<svg width="177" height="176" viewBox="0 0 177 176" fill="none" xmlns="http://www.w3.org/2000/svg">
<path fill-rule="evenodd" clip-rule="evenodd" d="M76.0814 0.828125H101.227C114.314 0.828125 124.576 0.828125 132.772 1.59857C141.124 2.39335 147.966 4.03156 153.999 7.69726C160.318 11.5432 165.631 16.8208 169.502 23.0981C173.192 29.0832 174.842 35.8875 175.642 44.1839C176.417 52.3263 176.417 62.5206 176.417 75.5289V84.1823C176.417 93.4357 176.417 100.694 176.009 106.558C175.601 112.518 174.76 117.482 172.841 122.072C170.482 127.73 167.024 132.871 162.665 137.201C158.306 141.532 153.131 144.967 147.435 147.31C140.863 150.019 133.385 150.619 123.131 150.797C120.599 150.787 118.069 150.884 115.546 151.089C113.93 151.268 113.301 151.527 112.934 151.738C112.55 151.965 112.019 152.371 111.105 153.62C110.117 154.966 108.999 156.831 107.219 159.816L102.794 167.244C96.4833 177.844 80.8329 177.844 74.5139 167.244L70.089 159.816C68.8825 157.697 67.586 155.629 66.2029 153.62C65.2886 152.371 64.7579 151.965 64.3742 151.738C64.0068 151.527 63.3782 151.268 61.7617 151.089C60.0309 150.903 57.7613 150.846 54.1692 150.789C43.9233 150.619 36.4451 150.019 29.873 147.31C24.1773 144.967 19.0021 141.532 14.6429 137.201C10.2836 132.871 6.82571 127.73 4.46659 122.072C2.54804 117.482 1.70715 112.518 1.29078 106.558C0.890747 100.694 0.890747 93.4357 0.890747 84.1741V75.5289C0.890747 62.5206 0.890747 52.3345 1.66633 44.1839C2.4664 35.8875 4.11554 29.0832 7.80567 23.0981C11.6773 16.8208 16.99 11.5432 23.3092 7.69726C29.3342 4.03156 36.1838 2.39335 44.5356 1.59857C52.7323 0.828125 62.9945 0.828125 76.0896 0.828125M45.7031 13.7148C38.2411 14.4204 33.4979 15.7667 29.7097 18.0699C25.0375 20.9131 21.1096 24.815 18.2475 29.4563C15.9289 33.2193 14.5736 37.9312 13.8634 45.3518C13.1449 52.8454 13.1368 62.4638 13.1368 75.8533V83.9633C13.1368 93.4925 13.1368 100.337 13.5123 105.739C13.8797 111.083 14.5818 114.57 15.7819 117.425C19.3035 125.87 26.0578 132.58 34.5592 136.078C38.7636 137.813 44.1356 138.462 54.3896 138.641H54.6427C57.892 138.697 60.7412 138.746 63.1088 139.006C65.6478 139.289 68.1378 139.849 70.5299 141.228C72.8974 142.606 74.6119 144.431 76.0977 146.459C77.4774 148.34 78.8898 150.716 80.49 153.401L85.0537 161.057C85.4352 161.663 85.9659 162.163 86.5957 162.51C87.2256 162.857 87.9339 163.039 88.654 163.039C89.3741 163.039 90.0824 162.857 90.7122 162.51C91.3421 162.163 91.8727 161.663 92.2543 161.057L96.818 153.401C98.4182 150.716 99.8387 148.34 101.21 146.459C102.696 144.431 104.411 142.598 106.778 141.228C109.17 139.849 111.66 139.281 114.199 139.006C116.567 138.746 119.416 138.697 122.665 138.641H122.927C133.172 138.462 138.544 137.813 142.749 136.078C151.25 132.58 158.005 125.87 161.526 117.425C162.726 114.57 163.428 111.083 163.796 105.739C164.171 100.337 164.171 93.4925 164.171 83.9633V75.8533C164.171 62.4638 164.171 52.8454 163.445 45.3437C162.734 37.9312 161.379 33.2193 159.061 29.4563C156.2 24.8189 152.275 20.9199 147.606 18.078C143.818 15.7748 139.075 14.4285 131.605 13.723C124.061 13.0093 114.379 13.0012 100.9 13.0012H76.408C62.9292 13.0012 53.2466 13.0012 45.6949 13.723" fill="white" fill-opacity="0.1"/>
</svg>
