<svg width="220" height="222" viewBox="0 0 220 222" fill="none" xmlns="http://www.w3.org/2000/svg">
<path fill-rule="evenodd" clip-rule="evenodd" d="M43.1933 167.681C29.1042 152.095 25.2542 132.377 26.9683 114.762C28.8567 95.33 37.6658 76.6912 49.1333 67.0721C64.46 54.2251 80.5567 48.9498 94.5267 46.3675C101.329 45.193 108.181 44.3221 115.06 43.7575C118.763 43.407 122.512 43.0566 126.115 42.1528C133.705 40.2437 141.194 37.1449 147.363 32.2201C150.187 29.9605 153.047 27.6733 156.851 28.0976C158.218 28.2506 159.534 28.7114 160.7 29.4459C161.867 30.1803 162.854 31.1694 163.588 32.3399C192.922 79.0707 188.494 128.679 163.992 159.925C151.754 175.52 134.567 186.403 114.519 189.622C97.0292 192.416 77.9167 189.289 58.6575 179.145C56.9656 184.436 55.7086 189.859 54.8992 195.358C54.5551 197.779 53.2691 199.964 51.324 201.432C49.3788 202.899 46.9339 203.529 44.5271 203.183C42.1202 202.837 39.9486 201.543 38.49 199.586C37.0313 197.629 36.4052 195.169 36.7492 192.748C37.8858 184.77 40.0492 176.276 43.1933 167.681ZM97.8267 64.5082C104.28 63.3185 110.339 62.7467 116.224 62.1657C121.027 61.7046 125.867 61.225 130.561 60.0445C138.466 58.0997 146.037 54.9722 153.019 50.7666C172.984 88.7359 167.411 125.783 149.6 148.507C139.993 160.755 126.784 168.981 111.65 171.398C98.0558 173.574 82.3167 171.176 65.5417 161.935C75.735 141.028 92.4 120.987 114.097 110.077C116.273 108.984 117.928 107.065 118.699 104.744C119.469 102.423 119.291 99.8894 118.204 97.7002C117.117 95.5111 115.211 93.8459 112.904 93.0711C110.597 92.2962 108.078 92.4752 105.902 93.5685C81.9958 105.595 63.6808 126.392 51.7733 148.572C45.8975 138.888 44.1375 127.627 45.2192 116.551C46.7683 100.615 54.0192 86.9928 60.8667 81.238C73.04 71.0286 85.8733 66.7217 97.8358 64.5082H97.8267Z" fill="white" fill-opacity="0.1"/>
</svg>
