<svg width="173" height="173" viewBox="0 0 173 173" fill="none" xmlns="http://www.w3.org/2000/svg">
<g clip-path="url(#clip0_26_678)">
<path d="M109.842 166.545H104.103C104.103 167.611 104.4 168.655 104.96 169.562C105.521 170.469 106.322 171.201 107.276 171.678C108.229 172.155 109.296 172.356 110.358 172.261C111.419 172.165 112.433 171.775 113.286 171.136L109.842 166.545ZM132.799 149.328L136.242 144.736C135.249 143.991 134.04 143.588 132.799 143.588C131.557 143.588 130.348 143.991 129.355 144.736L132.799 149.328ZM155.755 166.545L152.311 171.136C153.164 171.775 154.178 172.165 155.239 172.261C156.301 172.356 157.368 172.155 158.321 171.678C159.275 171.201 160.076 170.469 160.637 169.562C161.197 168.655 161.494 167.611 161.494 166.545H155.755ZM132.799 126.371C125.188 126.371 117.889 123.348 112.508 117.967C107.126 112.585 104.103 105.286 104.103 97.6759H92.6251C92.6251 108.331 96.8576 118.549 104.392 126.083C111.926 133.617 122.144 137.849 132.799 137.849V126.371ZM161.494 97.6759C161.494 105.286 158.471 112.585 153.089 117.967C147.708 123.348 140.409 126.371 132.799 126.371V137.849C143.453 137.849 153.671 133.617 161.205 126.083C168.739 118.549 172.972 108.331 172.972 97.6759H161.494ZM132.799 68.9806C140.409 68.9806 147.708 72.0039 153.089 77.3853C158.471 82.7667 161.494 90.0655 161.494 97.6759H172.972C172.972 87.0213 168.739 76.803 161.205 69.269C153.671 61.735 143.453 57.5025 132.799 57.5025V68.9806ZM132.799 57.5025C122.144 57.5025 111.926 61.735 104.392 69.269C96.8576 76.803 92.6251 87.0213 92.6251 97.6759H104.103C104.103 90.0655 107.126 82.7667 112.508 77.3853C117.889 72.0039 125.188 68.9806 132.799 68.9806V57.5025ZM104.103 120.632V166.545H115.581V120.632H104.103ZM113.286 171.136L136.242 153.919L129.355 144.736L106.399 161.954L113.286 171.136ZM129.355 153.919L152.311 171.136L159.198 161.954L136.242 144.736L129.355 153.919ZM161.494 166.545V120.632H150.016V166.545H161.494ZM172.972 57.5025V17.329H161.494V57.5025H172.972ZM155.755 0.111816H18.0172V11.5899H155.755V0.111816ZM0.799988 17.329V155.067H12.2781V17.329H0.799988ZM18.0172 172.284H92.6251V160.806H18.0172V172.284ZM0.799988 155.067C0.799988 159.633 2.61394 164.012 5.84279 167.241C9.07164 170.47 13.4509 172.284 18.0172 172.284V160.806C16.4951 160.806 15.0353 160.201 13.9591 159.125C12.8828 158.048 12.2781 156.589 12.2781 155.067H0.799988ZM18.0172 0.111816C13.4509 0.111816 9.07164 1.92577 5.84279 5.15462C2.61394 8.38347 0.799988 12.7627 0.799988 17.329H12.2781C12.2781 15.8069 12.8828 14.3472 13.9591 13.2709C15.0353 12.1946 16.4951 11.5899 18.0172 11.5899V0.111816ZM172.972 17.329C172.972 12.7627 171.158 8.38347 167.929 5.15462C164.7 1.92577 160.321 0.111816 155.755 0.111816V11.5899C157.277 11.5899 158.737 12.1946 159.813 13.2709C160.889 14.3472 161.494 15.8069 161.494 17.329H172.972ZM35.2344 57.5025H92.6251V46.0243H35.2344V57.5025ZM35.2344 91.9369H69.6688V80.4587H35.2344V91.9369Z" fill="white" fill-opacity="0.1"/>
</g>
<defs>
<clipPath id="clip0_26_678">
<rect width="172.172" height="172.172" fill="white" transform="translate(0.799988 0.111816)"/>
</clipPath>
</defs>
</svg>
