<svg width="237" height="238" viewBox="0 0 237 238" fill="none" xmlns="http://www.w3.org/2000/svg">
<path d="M118.5 22.5825C113.871 22.5825 109.272 24.1378 105.309 26.9818L93.0447 35.5435L78.9136 37.395H78.684L78.4544 37.6246C73.8199 38.6712 69.5768 41.0099 66.2171 44.3696C62.8575 47.7292 60.5188 51.9723 59.4722 56.6068L59.25 56.8364V57.066L57.3984 71.4193L48.8368 82.5287L48.5998 82.7583V82.9879C43.4229 91.2607 43.1933 101.94 48.8368 109.836L57.628 122.1L59.9462 134.839L36.1055 171.167L28.4696 182.513H63.8789L72.4405 202.414L77.7656 215.145L85.4015 203.569L108.776 168.389C115.056 170.967 122.144 171.204 128.224 168.389L151.599 203.569L159.234 215.145L164.559 202.414L173.121 182.513H208.53L200.895 171.167L177.75 135.994L179.602 122.108L188.163 109.843L188.4 109.613V109.384C193.577 101.111 193.807 90.6608 188.163 82.7657L179.602 70.4935L176.824 56.6068H177.054C177.024 56.4291 176.854 56.3106 176.824 56.1402C175.491 46.4529 167.826 38.5874 158.079 37.395H157.842L143.955 35.5435L131.691 26.9818C127.86 24.1757 123.248 22.6375 118.5 22.5825ZM118.5 37.6246C120.203 37.6246 121.885 38.1431 123.129 39.017L136.319 48.5044L137.941 49.6598L139.793 49.8968L155.998 52.2075H156.22C159.553 52.5778 161.864 54.896 162.241 58.2288V58.688L165.256 75.1225L165.478 76.7444L166.641 78.1294L176.128 91.3199C177.898 93.7788 178.128 97.9485 175.898 101.504L165.485 116.086L165.248 117.938L162.938 134.143V134.365C162.814 135.522 162.418 136.634 161.782 137.609L161.316 137.846V138.068C160.215 139.39 158.636 140.224 156.924 140.386H156.457L139.563 143.401L137.712 143.623L136.319 144.786L123.129 154.273C120.67 156.043 116.271 156.273 112.716 154.043L100.681 144.786L99.2882 143.63L97.207 143.393L81.0022 141.083H80.78C79.7327 140.99 78.7231 140.647 77.8363 140.083C76.9494 139.518 76.2114 138.748 75.6845 137.839C75.1923 136.984 74.8774 136.04 74.7587 135.061V134.602L71.7518 117.708L71.5148 115.857L70.3594 114.464L60.872 101.274C59.1019 98.815 58.8723 94.4157 61.1016 90.8607L70.3594 78.8256L71.5148 77.4332L71.7444 75.3521L73.8329 59.8434C73.8625 59.7323 74.0329 59.7323 74.0625 59.6138C74.5242 57.8309 75.4544 56.204 76.7567 54.9017C78.059 53.5995 79.6859 52.6692 81.4688 52.2075C81.5873 52.1779 81.5873 52.0075 81.6984 51.9779L97.207 49.8894L99.0586 49.6672L100.681 48.5044L113.871 39.017C115.115 38.1505 116.797 37.6246 118.5 37.6246ZM169.648 150.34L180.994 167.701H163.16L161.308 172.329L156.22 184.128L140.482 160.057L143.948 157.517L158.538 154.969V155.199C158.709 155.169 158.82 154.999 158.997 154.969C162.895 154.407 166.578 152.808 169.648 150.34ZM67.3524 150.57C70.5684 153.494 74.6085 155.353 78.921 155.895H79.1506L93.2743 157.747L96.5108 160.294L80.7726 184.128L75.6845 172.329L73.8329 167.701H56.0135L67.3524 150.57Z" fill="white" fill-opacity="0.1"/>
</svg>
