<svg width="196" height="197" viewBox="0 0 196 197" fill="none" xmlns="http://www.w3.org/2000/svg">
<path fill-rule="evenodd" clip-rule="evenodd" d="M98.0203 11.9727C96.2908 11.9727 94.632 12.6597 93.409 13.8827C92.1861 15.1057 91.499 16.7644 91.499 18.494V46.8228C91.499 48.5523 92.1861 50.2111 93.409 51.4341C94.632 52.6571 96.2908 53.3441 98.0203 53.3441C99.7499 53.3441 101.409 52.6571 102.632 51.4341C103.855 50.2111 104.542 48.5523 104.542 46.8228V25.3023C120.986 26.7646 136.463 33.7062 148.491 45.0143C160.519 56.3224 168.401 71.3419 170.874 87.6645C173.347 103.987 170.268 120.668 162.13 135.031C153.991 149.395 141.266 160.61 125.993 166.878C110.72 173.145 93.7846 174.103 77.9024 169.598C62.0202 165.092 48.111 155.384 38.4048 142.029C28.6987 128.675 23.7579 112.448 24.3747 95.9509C24.9915 79.4534 31.1301 63.6409 41.8063 51.0486C42.3882 50.4 42.8343 49.6414 43.1181 48.8175C43.4019 47.9936 43.5177 47.1212 43.4587 46.2518C43.3997 45.3824 43.1671 44.5337 42.7745 43.7557C42.382 42.9777 41.8375 42.2863 41.1732 41.7223C40.509 41.1583 39.7384 40.7331 38.9071 40.4719C38.0758 40.2107 37.2005 40.1188 36.3331 40.2015C35.4656 40.2843 34.6235 40.5401 33.8566 40.9537C33.0896 41.3674 32.4134 41.9306 31.8677 42.61C19.087 57.6814 11.836 76.6653 11.3148 96.4194C10.7937 116.173 17.0338 135.513 29.0021 151.238C40.9704 166.962 57.9494 178.128 77.1286 182.887C96.3078 187.647 116.537 185.714 134.469 177.41C152.4 169.105 166.958 154.927 175.733 137.221C184.507 119.515 186.973 99.3436 182.721 80.0454C178.47 60.7473 167.756 43.4795 152.353 31.1004C136.95 18.7213 117.781 11.973 98.0203 11.9727ZM88.1079 106.271L55.2924 60.5307C54.8555 59.9028 54.6533 59.1413 54.7211 58.3793C54.7888 57.6174 55.1224 56.9035 55.6633 56.3626C56.2042 55.8217 56.918 55.4882 57.6799 55.4204C58.4419 55.3526 59.2034 55.5549 59.8313 55.9918L105.598 88.7942C107.071 89.8544 108.295 91.222 109.187 92.8022C110.079 94.3825 110.616 96.1377 110.763 97.9463C110.909 99.7549 110.66 101.574 110.034 103.277C109.408 104.98 108.419 106.526 107.136 107.809C105.853 109.092 104.306 110.081 102.603 110.707C100.9 111.334 99.0816 111.582 97.273 111.436C95.4644 111.29 93.7092 110.752 92.1289 109.86C90.5487 108.969 89.1811 107.744 88.1209 106.271" fill="white" fill-opacity="0.1"/>
</svg>
