<svg width="198" height="139" viewBox="0 0 198 139" fill="none" xmlns="http://www.w3.org/2000/svg">
<path fill-rule="evenodd" clip-rule="evenodd" d="M132.778 37.3628C129.68 35.4575 127.169 32.731 125.526 29.4859C123.882 26.2408 123.17 22.6038 123.468 18.9785L103.699 15.5056L105.404 5.80113L126.773 9.55483C128.576 6.88046 131.009 4.69018 133.858 3.17665C136.706 1.66313 139.883 0.872741 143.108 0.875005H159.783C161.458 0.875005 162.813 2.22969 162.813 3.90457V37.2544C162.813 38.9293 161.453 40.284 159.783 40.284H157.887V80.9245C165.639 78.7033 173.944 79.489 181.142 83.1246C188.34 86.7601 193.901 92.9779 196.714 100.535C198.251 104.673 196.606 108.452 193.783 110.703C194.027 117.243 191.895 123.65 187.782 128.741C183.669 133.831 177.853 137.262 171.408 138.398C164.963 139.534 158.324 138.299 152.718 134.922C147.113 131.544 142.919 126.252 140.911 120.023C138.246 119.127 135.931 117.117 135.054 114.176H78.9652C78.3606 120.915 75.256 127.185 70.2621 131.751C65.2682 136.317 58.7465 138.849 51.9799 138.849C45.2133 138.849 38.6916 136.317 33.6977 131.751C28.7038 127.185 25.5992 120.915 24.9946 114.176H2.56599C2.27032 114.184 1.97587 114.134 1.69947 114.029C1.42306 113.924 1.17012 113.765 0.955105 113.562C0.740088 113.359 0.567207 113.115 0.446342 112.845C0.325478 112.575 0.259001 112.284 0.25071 111.989C0.25071 94.5698 10.236 79.3629 25.0784 71.22C24.9477 70.7719 24.8813 70.3075 24.8813 69.8407V55.0623C24.8813 51.1429 26.4383 47.3839 29.2098 44.6124C31.9813 41.841 35.7402 40.284 39.6597 40.284H83.9948C87.9142 40.284 91.6732 41.841 94.4446 44.6124C97.2161 47.3839 98.7731 51.1429 98.7731 55.0623V69.8407C98.7731 71.1472 98.2541 72.4002 97.3303 73.324C96.4065 74.2478 95.1535 74.7668 93.847 74.7668V79.6929H124.586L132.778 37.3628ZM133.256 20.5795C133.256 17.9665 134.294 15.4606 136.142 13.6129C137.989 11.7652 140.495 10.7272 143.108 10.7272H152.96V30.4317H143.108C140.495 30.4317 137.989 29.3937 136.142 27.5461C134.294 25.6984 133.256 23.1925 133.256 20.5795ZM122.675 89.5452H93.847V104.324H119.818L122.675 89.5452ZM129.852 104.324H135.547C137.326 96.8105 141.761 90.1939 148.034 85.6929V40.284H142.246L129.852 104.324ZM151.281 119.427C152.943 122.75 155.633 125.447 158.952 127.117C162.271 128.787 166.04 129.341 169.699 128.696C173.357 128.051 176.71 126.242 179.258 123.537C181.805 120.833 183.412 117.379 183.837 113.688L151.281 119.427ZM34.7336 55.0623C34.7336 53.7558 35.2526 52.5029 36.1764 51.579C37.1002 50.6552 38.3532 50.1362 39.6597 50.1362H83.9948C85.3013 50.1362 86.5542 50.6552 87.4781 51.579C88.4019 52.5029 88.9209 53.7558 88.9209 55.0623V64.9146H34.7336V55.0623ZM10.9601 104.324C14.7039 87.7471 30.3641 74.7668 49.9356 74.7668H83.9948V104.166C83.8353 104.278 83.6427 104.334 83.448 104.324H10.9601ZM67.3395 114.289C67.9602 114.309 68.5169 114.328 69.0144 114.353C68.3862 118.422 66.3229 122.131 63.1977 124.811C60.0725 127.49 56.0917 128.963 51.975 128.963C47.8583 128.963 43.8774 127.49 40.7522 124.811C37.6271 122.131 35.5638 118.422 34.9355 114.353C35.4331 114.328 35.9897 114.304 36.6104 114.289C40.236 114.176 45.1277 114.176 51.975 114.176C58.8174 114.176 63.7139 114.176 67.3445 114.289M179.424 93.5501C176.178 91.277 172.383 89.9154 168.432 89.6069C164.482 89.2985 160.521 90.0545 156.962 91.7963C153.403 93.538 150.376 96.2019 148.196 99.5106C146.016 102.819 144.763 106.652 144.566 110.609L187.138 103.102C185.518 99.2533 182.844 95.9455 179.424 93.5501Z" fill="white" fill-opacity="0.1"/>
</svg>
