<svg width="167" height="167" viewBox="0 0 167 167" fill="none" xmlns="http://www.w3.org/2000/svg">
<path d="M82.5113 166.277C78.0647 166.271 73.7983 164.519 70.6325 161.396L11.6071 102.279C10.0924 100.773 9.14843 98.7869 8.93668 96.6615L0.833349 10.5636C0.709304 9.21485 0.884311 7.85537 1.3459 6.58203C1.80748 5.30869 2.54428 4.15286 3.50377 3.19691C4.45971 2.23742 5.61555 1.50063 6.88889 1.03904C8.16222 0.577457 9.52171 0.402449 10.8704 0.526495L96.9684 8.62983C99.0938 8.84157 101.079 9.78559 102.585 11.3002L161.703 70.3257C164.835 73.4671 166.594 77.7223 166.594 82.1584C166.594 86.5945 164.835 90.8496 161.703 93.9911L94.2979 161.396C91.166 164.513 86.9299 166.267 82.5113 166.277ZM27.2613 91.5969L82.5113 146.847L147.43 81.9282L92.18 26.6782L20.2629 19.9561L27.2613 91.5969Z" fill="white" fill-opacity="0.1"/>
</svg>
