<svg xmlns="http://www.w3.org/2000/svg" viewBox="0 0 409.38 55.18"><defs><style>.cls-1{fill:#e65411;}.cls-2{fill:#fff;}</style></defs><g id="Layer_2" data-name="Layer 2"><g id="Layer_1-2" data-name="Layer 1"><rect class="cls-1" x="226.92" width="182.46" height="49.45" rx="7.82"/><path d="M30.24,19.75c0,12.89-11.48,12.43-14.76,12.43h-8v9.67H0V7.29H7.52v0l8,0C19.65,7.29,30.24,7.32,30.24,19.75Zm-7,0c0-6-4.82-6-7.33-6H7.52V25.69h8.23C17.75,25.69,23.2,26,23.2,19.73Z"/><path d="M55.09,14.85,53.9,21.94a19.52,19.52,0,0,0-5-.62c-5.57,0-7.23,4.35-7.23,8.1V41.85H34.17V14.15h7.52v4.07h.46c1.55-2.66,3.26-4.07,8-4.07A21,21,0,0,1,55.09,14.85Z"/><path d="M85.1,29.74H63c.51,3.7,2.73,5.54,7.59,5.54,4.49,0,6.71-1.25,7.4-3.07h7.28c-.77,5.95-5.58,9.64-14.68,9.64-9.5,0-14.9-4.77-14.9-14,0-9,5.54-14,14.9-14A16.14,16.14,0,0,1,80,16.48h0c5.35,3.61,5.83,9.47,5.4,13.27Zm-21.82-5H77.91c-.62-2.08-2-4.34-7.32-4.34C66.43,20.44,64.15,22,63.28,24.78Z"/><path d="M115.85,33.64c0,6.87-4.93,8.21-13.43,8.21-6.26,0-10.57-1.13-12.79-3.38a7.34,7.34,0,0,1-1.89-5.67v-.53h7.72v.24c0,2.36,1.76,3.42,6.76,3.42,3,0,5.89-.38,5.89-2.18,0-2.08-2.69-2.48-5.67-2.83l-1.17-.14c-8-1.05-12.91-2.82-12.91-8.34,0-3.87,2.24-8.48,12.87-8.48,11.47,0,13.89,5.09,13.89,9.35v.23h-7.65v-.23c0-2.19-1.86-3.34-6.24-3.34-4.2,0-5.08,1.52-5.08,2.37,0,1.22.86,1.9,5.68,2.63l.62.09C108.73,26,115.85,27.05,115.85,33.64Z"/><path d="M128.78,30.4h0V31c0,4,1.81,3.45,9,3.06v7.33s-1.48.51-9,.51-7.52-6.17-7.52-10.2V20.55h-3.7V14.22h3.7v-8h7.52v8h9v6.33h-9Z"/><path d="M141,12.34V5.65h7.48v6.69Zm0,29.51V14.31h7.48V41.85Z"/><path d="M183.21,14.45V39.19c0,5.69-1.06,16-14.83,16-12.45,0-14.83-6.72-14.83-10.83H161c.18,1.49,1.49,4.35,7.35,4.35,5.07,0,7.36-3.33,7.36-8.38v-2h-.35c-1.87,2.41-5,3.87-10.24,3.87-11.63,0-12.94-10.13-12.94-13.86,0-4,1.24-13.86,13-13.86,5.13,0,8.26,1.61,10.14,4.07h.42V14.45Zm-8.09,13.86c0-3.76-1.33-7.4-7.82-7.4-7.2,0-8,5.24-8,7.4,0,2,.8,7.4,7.94,7.4C173.79,35.71,175.12,32.5,175.12,28.31Z"/><path d="M216,29.74h-22.1c.51,3.7,2.73,5.54,7.59,5.54,4.49,0,6.71-1.25,7.4-3.07h7.28c-.77,5.95-5.58,9.64-14.68,9.64-9.5,0-14.89-4.77-14.89-14,0-9,5.53-14,14.89-14a16.12,16.12,0,0,1,9.38,2.61h0c5.35,3.61,5.83,9.47,5.4,13.27Zm-21.82-5h14.63c-.61-2.08-2-4.34-7.32-4.34C197.37,20.44,195.09,22,194.22,24.78Z"/><path class="cls-2" d="M267.83,19.75c0,12.89-11.48,12.43-14.76,12.43h-8v9.67h-7.52V7.29h7.52v0l8,0C257.24,7.29,267.83,7.32,267.83,19.75Zm-7,0c0-6-4.82-6-7.33-6h-8.35V25.69h8.23C255.34,25.69,260.79,26,260.79,19.73Z"/><path class="cls-2" d="M301.87,28V41.85H294.4V28c0-2.16,0-7.4-7.2-7.4-6.49,0-7.93,4.14-7.93,7.9V41.85h-7.51V6.16h7.51v12h.36c1.79-2.44,4.78-4.07,9.75-4.07C301.09,14.13,301.87,24,301.87,28Z"/><path class="cls-2" d="M368.62,28V41.85h-7.47V28c0-2.16.47-7.39-6.73-7.39-6.48,0-7.46,4.13-7.46,7.88V41.85h-7.51V14.15H347v4.06h.36c1.79-2.44,4.31-4.06,9.28-4.06C368.31,14.15,368.62,24,368.62,28Z"/><path class="cls-2" d="M401,29.74h-22.1c.52,3.7,2.73,5.54,7.59,5.54,4.49,0,6.71-1.25,7.41-3.07h7.27c-.77,5.95-5.58,9.64-14.68,9.64-9.49,0-14.89-4.77-14.89-14,0-9,5.53-14,14.89-14a16.12,16.12,0,0,1,9.38,2.61h0c5.36,3.61,5.84,9.47,5.41,13.27Zm-21.81-5h14.63c-.62-2.08-2-4.34-7.33-4.34C382.38,20.44,380.1,22,379.23,24.78Z"/><path class="cls-2" d="M326.81,13c-3.41.14-6.61,3.81-5.88,6.72C324,20,327.13,16.41,326.81,13Z"/><path class="cls-2" d="M332.45,35.72a16.8,16.8,0,0,1-3.3,4.89,3.77,3.77,0,0,1-4.49,1,7.83,7.83,0,0,0-6.67,0,3.64,3.64,0,0,1-4.39-1,18,18,0,0,1-5-10,10.54,10.54,0,0,1,1-6.89,7.08,7.08,0,0,1,6.05-3.82,6,6,0,0,1,2.74.54,5.66,5.66,0,0,0,5,0,7,7,0,0,1,6,0l.39.2a1,1,0,0,0-.24,1.2c.11.24.22.49.34.73,0,.07,0,.11,0,.15-.29.3-.59.59-.87.89a4.82,4.82,0,0,0-.35.44l-.85-.31a1.06,1.06,0,0,0-1.31.59c-.14.37-.28.74-.41,1.11,0,0,0,0,0,0a1,1,0,0,0,.65,1.28l.75.28c.07,0,.07.05.07.12a5.77,5.77,0,0,0,.07,1.71.11.11,0,0,1-.08.14l-.73.34a1,1,0,0,0-.53,1.38l.47,1.05,0,0a1,1,0,0,0,1.36.47l.73-.33a.1.1,0,0,1,.14,0c.16.18.32.36.49.52s.56.48.84.72A8,8,0,0,1,330,34a1,1,0,0,0,.59,1.32l1.1.41h0A1,1,0,0,0,332.45,35.72Z"/><path class="cls-2" d="M333.85,29a16.57,16.57,0,0,1-.24,2.89,4.09,4.09,0,0,1-.58-8A15.21,15.21,0,0,1,333.85,29Z"/></g></g></svg>