<svg width="75" height="84" viewBox="0 0 75 84" fill="none" xmlns="http://www.w3.org/2000/svg">
<path fill-rule="evenodd" clip-rule="evenodd" d="M53.8231 0C43.9242 0.416227 34.6653 11.0151 36.7791 19.4289C45.6956 20.2613 54.7311 10.0192 53.8231 0ZM70.1529 65.8676C67.8605 71.115 64.6005 75.7975 60.6112 80.0044C56.9791 83.8545 52.4539 85.0289 47.6012 82.9329C41.0664 80.0787 34.7847 80.0787 28.2797 82.9626C23.5014 85.0734 19.1548 83.8842 15.5525 80.1085C7.67803 71.9623 2.86996 62.2553 1.20277 51.0321C0.175667 44.09 0.666878 37.3709 4.16499 31.1275C8.02037 24.3192 13.9151 20.4989 21.6854 20.0678C24.335 19.934 27.2228 20.5286 29.6342 21.6138C34.5018 23.8435 39.0717 23.7692 43.9542 21.584C49.6256 19.0421 55.6245 19.0123 61.2662 21.6583C61.5075 21.7696 61.7432 21.8924 61.9802 22.016C62.1232 22.0906 62.2667 22.1654 62.4124 22.2381C61.4746 23.0854 61.1471 24.4827 61.7276 25.6868C62.0402 26.4004 62.3677 27.1139 62.6952 27.8126C62.7994 28.0058 62.7547 28.1099 62.591 28.2585C62.4498 28.3995 62.3082 28.5405 62.1665 28.6816L62.1659 28.6822L62.1658 28.6823C61.456 29.3891 60.7427 30.0993 60.0604 30.8302C59.6883 31.2464 59.3608 31.6627 59.0482 32.1086L56.5772 31.2167C55.0589 30.6964 53.3768 31.4397 52.7665 32.9262C52.3497 33.9965 51.9627 35.0668 51.5905 36.1371L51.5901 36.1383L51.5901 36.1383C51.5754 36.1825 51.5606 36.2266 51.5459 36.256C51.0398 37.7871 51.8733 39.452 53.4363 39.9575C53.6656 40.0416 53.8935 40.1272 54.1204 40.2124L54.1206 40.2125C54.6152 40.3983 55.105 40.5823 55.5947 40.7453C55.818 40.8196 55.8181 40.894 55.8181 41.1021C55.6394 42.767 55.699 44.4319 55.9967 46.0671C56.0265 46.2752 55.9967 46.3792 55.7883 46.4833C55.2863 46.6922 54.7917 46.923 54.2941 47.1553L54.2939 47.1554C54.0833 47.2537 53.8721 47.3523 53.6596 47.4495C52.1413 48.1482 51.4714 49.9172 52.1413 51.4334L53.5108 54.4808C53.5257 54.5402 53.5406 54.5848 53.5703 54.6294C54.2699 56.0862 56.0414 56.7106 57.515 55.997L59.6437 55.0308C59.7479 54.9267 59.9264 54.9267 60.0455 55.0308C60.1668 55.1633 60.2862 55.2967 60.4051 55.4296C60.7531 55.8188 61.0973 56.2036 61.4746 56.5471C61.9957 57.0274 62.5371 57.4809 63.0896 57.9436L63.0897 57.9437L63.0898 57.9438C63.3579 58.1683 63.6286 58.3951 63.9009 58.6282C63.633 59.3863 63.3055 60.2039 62.978 60.9769C62.3975 62.508 63.1566 64.2175 64.7047 64.7824C65.7616 65.1986 66.8185 65.5851 67.8903 65.9716C67.8958 65.9772 67.9014 65.9807 67.9078 65.9836C67.9132 65.9861 67.9192 65.9883 67.9262 65.991C67.9329 65.9936 67.9407 65.9968 67.9498 66.0013C68.7089 66.2243 69.4831 66.1649 70.1529 65.8676ZM73.5171 54.6447C73.9636 52.0433 74.2017 49.2189 74.2017 46.2755C74.2017 40.6119 73.2937 35.4091 71.8201 31.4252C66.6697 32.7036 62.844 37.3564 62.8589 42.9011C62.8589 49.0553 67.533 54.0798 73.5171 54.6447Z" fill="url(#paint0_linear_26_849)"/>
<path fill-rule="evenodd" clip-rule="evenodd" d="M39.1032 43.6121C38.3787 43.1666 37.7918 42.5292 37.4076 41.7704C37.0233 41.0117 36.8568 40.1614 36.9264 39.3137L32.3044 38.5018L32.7029 36.2328L37.6992 37.1104C38.1208 36.4852 38.6896 35.9731 39.3556 35.6192C40.0216 35.2653 40.7643 35.0805 41.5184 35.0811H45.4171C45.8087 35.0811 46.1254 35.3978 46.1254 35.7894V43.5867C46.1254 43.9783 45.8075 44.2951 45.4171 44.2951H44.9737V53.797C46.7862 53.2777 48.7279 53.4614 50.4108 54.3114C52.0938 55.1614 53.394 56.6152 54.0518 58.3821C54.4111 59.3496 54.0264 60.233 53.3665 60.7594C53.4234 62.2885 52.925 63.7865 51.9634 64.9767C51.0018 66.1669 49.6419 66.969 48.135 67.2346C46.6281 67.5002 45.0759 67.2115 43.7653 66.4219C42.4547 65.6322 41.4741 64.3949 41.0047 62.9385C40.3816 62.7289 39.8403 62.2589 39.6353 61.5713H26.5215C26.3801 63.1471 25.6542 64.6129 24.4866 65.6804C23.319 66.748 21.7942 67.34 20.2122 67.34C18.6301 67.34 17.1053 66.748 15.9377 65.6804C14.7701 64.6129 14.0442 63.1471 13.9029 61.5713H8.65894C8.58981 61.5733 8.52097 61.5617 8.45634 61.5371C8.39172 61.5124 8.33258 61.4753 8.28231 61.4278C8.23203 61.3803 8.19161 61.3234 8.16335 61.2603C8.1351 61.1972 8.11955 61.1291 8.11761 61.06C8.11761 56.9874 10.4522 53.4319 13.9224 51.5281C13.8919 51.4233 13.8764 51.3147 13.8764 51.2056V47.7503C13.8764 46.8339 14.2404 45.9551 14.8884 45.3071C15.5364 44.6591 16.4152 44.2951 17.3316 44.2951H27.6974C28.6138 44.2951 29.4926 44.6591 30.1406 45.3071C30.7886 45.9551 31.1527 46.8339 31.1527 47.7503V51.2056C31.1527 51.511 31.0313 51.804 30.8153 52.02C30.5993 52.236 30.3064 52.3573 30.0009 52.3573V53.5091H37.1878L39.1032 43.6121ZM39.2149 39.6881C39.2149 39.0771 39.4576 38.4912 39.8896 38.0592C40.3216 37.6272 40.9075 37.3846 41.5184 37.3846H43.8219V41.9916H41.5184C40.9075 41.9916 40.3216 41.7489 39.8896 41.3169C39.4576 40.8849 39.2149 40.299 39.2149 39.6881ZM36.741 55.8126H30.0009V59.2678H36.0729L36.741 55.8126ZM38.4191 59.2678H39.7505C40.1665 57.5113 41.2035 55.9643 42.6702 54.9119V44.2951H41.3169L38.4191 59.2678ZM43.4292 62.7991C43.8178 63.576 44.4469 64.2065 45.2228 64.597C45.9987 64.9875 46.88 65.117 47.7354 64.9662C48.5908 64.8154 49.3747 64.3924 49.9703 63.7601C50.566 63.1279 50.9415 62.3202 51.0411 61.4573L43.4292 62.7991ZM16.1799 47.7503C16.1799 47.4449 16.3012 47.1519 16.5172 46.9359C16.7332 46.7199 17.0262 46.5986 17.3316 46.5986H27.6974C28.0029 46.5986 28.2958 46.7199 28.5118 46.9359C28.7278 47.1519 28.8491 47.4449 28.8491 47.7503V50.0538H16.1799V47.7503ZM10.6215 59.2678C11.4969 55.3922 15.1583 52.3573 19.7342 52.3573H27.6974V59.231C27.6601 59.2572 27.6151 59.2702 27.5696 59.2678H10.6215ZM23.8033 61.5978C23.9484 61.6024 24.0786 61.607 24.1949 61.6128C24.048 62.564 23.5656 63.4313 22.8349 64.0578C22.1043 64.6843 21.1735 65.0287 20.211 65.0287C19.2485 65.0287 18.3178 64.6843 17.5871 64.0578C16.8564 63.4313 16.374 62.564 16.2271 61.6128C16.3434 61.607 16.4736 61.6013 16.6187 61.5978C17.4664 61.5713 18.6101 61.5713 20.211 61.5713C21.8108 61.5713 22.9556 61.5713 23.8045 61.5978M50.0091 56.749C49.2503 56.2175 48.3629 55.8991 47.4393 55.827C46.5157 55.7549 45.5897 55.9317 44.7576 56.3389C43.9255 56.7461 43.2177 57.369 42.708 58.1425C42.1983 58.9161 41.9052 59.8122 41.8593 60.7375L51.8128 58.9822C51.434 58.0824 50.8088 57.309 50.0091 56.749Z" fill="#FF7C40"/>
<defs>
<linearGradient id="paint0_linear_26_849" x1="52.4506" y1="82.473" x2="67.6643" y2="-11.6334" gradientUnits="userSpaceOnUse">
<stop stop-color="#E65411"/>
<stop offset="1" stop-color="#FF7C40"/>
</linearGradient>
</defs>
</svg>
