<svg width="406" height="418" viewBox="0 0 406 418" fill="none" xmlns="http://www.w3.org/2000/svg">
<path fill-rule="evenodd" clip-rule="evenodd" d="M228.069 24.6039C227.205 24.9537 225.705 25.2443 224.734 25.25C223.762 25.2557 221.909 25.634 220.614 26.091C219.319 26.5476 217.465 26.9249 216.493 26.9292C212.856 26.9457 207.722 28.5712 204.629 30.6859C203.455 31.4885 202.182 32.2993 201.8 32.4877C201.15 32.8089 201.146 32.9124 201.738 34.126C202.305 35.2881 202.311 35.5929 201.791 37.0917C200.941 39.542 200.917 44.2636 201.751 45.0521C202.33 45.6005 202.335 45.6915 201.798 45.8682C201.416 45.9936 201.192 46.4901 201.192 47.2115C201.192 47.8408 200.927 48.9986 200.604 49.7841C199.831 51.6602 199.838 51.6962 201.094 52.2798C201.841 52.6265 201.966 52.7851 201.5 52.7945C200.595 52.8126 200.014 53.8327 200.021 55.3896C200.028 56.8931 200.185 57.126 201.88 58.1393C202.581 58.5589 203.338 59.1946 203.562 59.5521C203.95 60.173 203.897 60.1703 202.375 59.491C200.252 58.5435 198.693 59.0206 198.026 60.8221C197.516 62.1976 194.8 64.7383 190.991 67.4037C187.584 69.7875 185.581 70.615 183.218 70.615C181.926 70.615 180.698 70.8888 179.459 71.4523C178.113 72.0654 176.637 72.3671 173.952 72.5785C171.273 72.7895 169.978 73.0539 169.15 73.5589C168.526 73.9392 167.226 74.6135 166.261 75.057C165.296 75.5005 164.154 76.0341 163.722 76.2427C163.29 76.4513 161.79 77.0981 160.387 77.68C157.238 78.986 157.266 78.9618 156.82 80.6656C156.618 81.4333 155.82 82.8783 155.046 83.8765L153.639 85.6915L154.703 86.8859C156.151 88.5124 157.971 88.8981 162.416 88.5218C164.321 88.3606 165.88 88.3354 165.88 88.4657C165.88 88.5964 165.254 89.0345 164.489 89.4394C163.326 90.0549 162.759 90.1393 161.033 89.9548C158.433 89.6766 157.408 90.0099 153.929 92.265C150.328 94.5984 149.971 94.7389 147.006 94.9865C144.584 95.1887 144.407 95.1494 141.946 93.866L139.396 92.5358L133.812 92.2896C128.23 92.0429 127.314 91.8766 123.777 90.4685C120.1 89.0043 117.228 89.2479 117.228 91.0232C117.228 91.6115 117.041 91.8007 116.541 91.7187C116.045 91.6374 115.797 91.1764 115.646 90.0563C115.502 88.9926 114.917 87.8438 113.782 86.3957C111.727 83.7754 111.675 82.8283 113.5 81.2656C115.174 79.8323 115.23 78.9322 113.727 77.6448C112.862 76.9043 112.21 76.6617 111.078 76.658C110.252 76.6556 109.211 76.5693 108.764 76.4665C108.199 76.3368 107.439 76.6455 106.275 77.4791C105.352 78.139 104.217 78.6769 103.752 78.6749C102.262 78.6685 99.1434 77.7096 97.0835 76.624C93.3251 74.6438 90.9118 75.5728 93.8423 77.8715C95.0205 78.7958 95.2555 79.2071 95.2555 80.3447C95.2555 81.2932 95.0166 81.8842 94.4708 82.2843C93.4562 83.0282 93.4805 83.2338 94.6913 84.1353C95.54 84.7672 95.6875 85.1452 95.6385 86.5688C95.5467 89.2529 95.5863 89.3779 96.8265 90.3241C98.8287 91.8518 100.356 94.1973 100.356 95.7441C100.356 96.6627 100.683 97.5403 101.328 98.3547C102.066 99.2854 102.208 99.7295 101.917 100.195C101.326 101.141 101.462 103.305 102.167 104.167C102.634 104.737 102.686 105.041 102.364 105.317C101.752 105.84 101.818 106.742 102.504 107.23C103.011 107.591 103.002 107.77 102.431 108.699C101.979 109.433 101.787 110.547 101.804 112.335C101.833 115.246 102.191 115.866 105.235 118.268C106.22 119.046 107.026 119.764 107.026 119.865C107.026 119.966 105.393 120.025 103.397 119.997C101.401 119.968 98.4262 120.049 96.7865 120.177C93.8603 120.405 93.7901 120.392 92.9552 119.483C92.1904 118.65 92.1646 118.5 92.6993 117.994C93.3675 117.362 93.4974 116.309 92.9069 116.309C91.5933 116.309 88.6828 117.283 87.7368 118.04C87.1239 118.53 86.524 118.795 86.404 118.628C85.9759 118.035 84.6917 118.339 83.4189 119.335C81.9774 120.462 81.5309 120.467 80.8819 119.362C80.0791 117.995 79.6503 117.815 78.7859 118.485C77.8152 119.237 77.7297 118.793 78.6733 117.9C79.3215 117.287 79.318 117.233 78.5996 116.783C77.9306 116.364 77.7387 116.395 76.9222 117.052C76.3522 117.51 75.5831 117.766 74.9075 117.722C74.1746 117.674 73.5107 117.928 72.892 118.492C72.3846 118.954 71.7981 119.332 71.5881 119.332C71.3782 119.332 70.4523 119.862 69.5306 120.508C68.6086 121.155 67.57 121.684 67.2216 121.684C66.8736 121.684 66.4871 121.911 66.3631 122.188C66.0163 122.962 64.9408 122.828 65.2304 122.047C65.4026 121.581 65.0283 121.028 63.8834 120.058C62.9837 119.295 62.2975 118.392 62.2975 117.972C62.2975 117.564 61.6795 116.644 60.9243 115.928C60.1274 115.173 59.551 114.275 59.551 113.788C59.551 112.882 58.317 111.605 57.4409 111.605C56.5601 111.605 55.9586 110.784 56.5 110.32C57.2247 109.699 56.2211 108.984 55.31 109.471C54.696 109.799 54.6359 109.719 54.7686 108.746C54.9961 107.077 54.2177 107.017 52.1099 108.539L50.2141 109.907L50.6323 108.741C51.1322 107.346 50.8006 106.921 49.8115 107.687C49.4156 107.994 48.4434 108.245 47.6512 108.245C46.7111 108.245 45.9248 108.49 45.3869 108.951L44.5633 109.656L43.2293 108.549L41.8953 107.441L40.5217 108.725C38.9416 110.203 38.9471 110.186 39.7656 110.96C40.3318 111.496 40.3153 111.562 39.5694 111.765C38.9495 111.933 38.7561 112.267 38.7561 113.167C38.7561 113.817 38.5952 114.298 38.3982 114.237C38.2017 114.175 36.7138 113.521 35.0918 112.783L32.1433 111.442L31.1337 112.254C30.5111 112.755 30.1242 113.43 30.1242 114.015C30.1242 115.133 29.6075 115.238 28.8227 114.279C28.514 113.901 28.0184 113.637 27.7214 113.691C27.3612 113.756 27.1395 113.398 27.0556 112.613C26.9861 111.966 26.8001 111.323 26.642 111.184C26.4839 111.044 25.5693 111.261 24.61 111.665C23.6507 112.068 22.3912 112.361 21.8113 112.315C20.3894 112.201 19.1382 112.824 19.1382 113.644C19.1382 114.216 19.0193 114.262 18.3386 113.95C17.8987 113.748 17.1925 113.678 16.7691 113.793C16.1739 113.955 15.9993 113.844 15.9993 113.307C15.9993 112.326 13.6671 112.335 12.627 113.321C11.9949 113.92 11.5849 114 9.97271 113.836C8.12235 113.649 8.07134 113.668 8.24673 114.454C8.4123 115.196 8.32912 115.247 7.25131 115.062C6.11858 114.868 6.08562 114.897 6.35831 115.827C6.63806 116.782 6.63139 116.786 5.84314 116.176C4.78142 115.353 3.31989 115.681 1.82109 117.079C1.04383 117.804 0.699728 118.445 0.770352 119.038C0.827636 119.524 0.667554 120.134 0.414091 120.396C-0.135209 120.963 -0.139133 124.362 0.408991 124.96C0.931611 125.531 1.80461 125.488 2.5442 124.855C2.97815 124.483 3.28026 124.434 3.57571 124.687C4.19171 125.214 5.63872 125.124 8.11175 124.405C11.311 123.474 14.4534 122.691 14.9655 122.698C15.2103 122.701 14.4574 123.117 13.2924 123.622C11.2114 124.524 10.0896 125.471 10.5926 125.902C10.9218 126.184 12.3708 126.17 13.7488 125.871C14.6272 125.68 14.7897 125.734 14.6021 126.152C14.4413 126.511 14.7987 126.842 15.7737 127.238C17.5911 127.977 17.5491 128.181 15.6364 127.904C14.7842 127.781 13.7597 127.836 13.3427 128.027C12.7894 128.28 12.3735 128.242 11.776 127.884C11.3287 127.616 10.6884 127.486 10.3529 127.596C9.5007 127.876 7.45142 127.035 7.2313 126.315C6.94567 125.379 5.79802 125.572 5.79802 126.556C5.79802 127.079 5.57555 127.396 5.20949 127.396C4.24272 127.396 4.54365 128.375 5.57909 128.597C6.47445 128.789 6.52231 128.911 6.30887 130.451C6.03304 132.446 6.57724 132.615 7.85437 130.931C8.34168 130.288 8.94983 129.692 9.20565 129.606C9.79732 129.407 13.8355 132.024 14.4691 133.018C14.8085 133.55 14.8324 133.99 14.5507 134.53C14.1941 135.214 13.857 135.297 11.251 135.347C6.24217 135.443 1.30592 135.851 0.790754 136.21C0.248516 136.589 0.813904 137.475 1.59744 137.475C1.82383 137.475 2.33154 137.725 2.72586 138.031C3.12018 138.337 4.09794 138.621 4.89835 138.662C5.85413 138.712 6.79186 139.069 7.63072 139.703C9.20212 140.889 11.1011 143.126 10.7747 143.406C10.6421 143.519 10.7143 143.9 10.9348 144.253C11.2408 144.743 11.1419 145.162 10.5157 146.03C9.59722 147.303 9.72434 147.469 12.0757 148.079C13.4874 148.445 16.2473 148.142 16.9527 147.543C17.1772 147.352 17.1144 146.907 16.7887 146.386C16.1072 145.296 16.4647 145.008 17.6641 145.681C18.88 146.364 19.2728 146.027 18.4759 144.986C18.1345 144.539 17.9603 144.084 18.0894 143.973C18.2185 143.863 18.5237 144.132 18.7682 144.572C19.3975 145.705 21.2985 146.926 22.0495 146.679C22.394 146.565 22.782 146.112 22.9115 145.67C23.2442 144.535 23.9999 144.674 24.5472 145.97C24.8034 146.577 25.7164 147.662 26.5761 148.381C28.0027 149.574 28.2271 149.653 29.1507 149.293C30.2486 148.865 31.8247 149.332 32.8491 150.389C33.1799 150.73 34.0085 150.915 35.2056 150.915C36.9983 150.915 37.0744 150.956 37.8062 152.343C38.4014 153.47 38.7945 153.793 39.6742 153.88C40.5707 153.968 41.0557 153.722 42.157 152.62C43.6531 151.123 44.8074 150.705 43.493 152.136C43.0457 152.623 42.6796 153.21 42.6796 153.44C42.6796 154.038 45.0636 155.954 45.8083 155.954C46.4902 155.954 47.7803 154.327 47.7803 153.467C47.7803 152.83 48.2272 152.776 48.8789 153.334C49.6605 154.003 49.4148 154.779 48.1726 155.565C46.7378 156.474 46.7264 156.834 48.0906 158.175C49.4592 159.52 50.6727 160.052 51.8133 159.807C52.9206 159.569 56.3537 161.422 57.0552 162.635C57.9153 164.124 59.8472 164.491 61.2448 163.43C61.8129 162.999 62.0656 162.954 62.1912 163.262C62.3811 163.726 63.8669 163.849 63.8669 163.4C63.8669 163.245 64.3083 162.946 64.8478 162.735C65.56 162.457 65.8287 162.455 65.8287 162.726C65.8287 162.964 66.369 163.037 67.322 162.927C68.2017 162.826 69.088 162.926 69.48 163.172C70.2867 163.677 70.3346 164.018 69.5981 164.018C69.2976 164.018 68.9389 164.269 68.8012 164.577C68.5693 165.094 69.7237 166.486 71.2786 167.564C71.7419 167.885 71.7365 167.971 71.2433 168.133C70.9235 168.238 70.413 168.189 70.109 168.024C69.3019 167.586 68.8817 167.657 67.8239 168.412L66.8763 169.087L68.547 170.545C69.6283 171.488 70.0607 172.087 69.7719 172.239C69.5263 172.369 69.0763 172.298 68.7714 172.082C68.2284 171.696 67.3982 171.873 67.3982 172.375C67.3982 172.515 68.0361 172.89 68.8154 173.208C70.1521 173.754 70.2608 173.754 70.7234 173.212C71.1781 172.68 71.2676 172.693 71.9542 173.393C72.3619 173.808 72.9787 174.282 73.3255 174.445C74.3162 174.911 76.6554 174.189 77.745 173.08C78.6098 172.2 78.8507 172.122 79.7794 172.425C80.5237 172.667 81.208 172.652 82.1104 172.372C83.2294 172.026 83.535 172.067 84.576 172.701C85.2292 173.1 86.1364 173.426 86.5919 173.426C87.0984 173.426 87.7093 173.833 88.1653 174.475C88.5753 175.052 89.4114 175.807 90.0231 176.153C90.6351 176.498 90.9479 176.782 90.7183 176.783C90.4888 176.784 89.1646 176.14 87.7756 175.352C84.1475 173.292 83.3247 173.04 81.0675 173.297C78.9029 173.542 77.8003 174.227 78.2186 175.065C78.8122 176.255 78.5556 176.925 77.2071 177.708C75.4356 178.737 75.3301 179.065 76.6888 179.32C78.8613 179.728 79.9669 180.243 81.7879 181.695L83.6339 183.167L82.5294 184.154C81.6972 184.898 81.485 185.345 81.6674 185.967C81.862 186.632 81.7376 186.83 81.0283 186.983C80.0701 187.189 77.5995 189.715 77.5995 190.489C77.5995 190.753 78.8075 192.048 80.2844 193.368C84.7 197.315 87.3256 201.164 87.6956 204.231C87.8698 205.679 88.0366 206.01 88.5121 205.854C88.8672 205.737 89.6005 206.058 90.3189 206.645C90.9839 207.187 91.8813 207.685 92.3129 207.751C92.7704 207.821 93.1498 208.185 93.2231 208.623C93.335 209.296 93.5719 209.376 95.4568 209.376C97.1907 209.376 97.6736 209.508 98.1759 210.123C98.5117 210.533 98.7868 211.195 98.7868 211.593C98.7868 212.747 99.6186 213.125 101.101 212.645C102.244 212.276 102.419 212.303 102.807 212.904C103.402 213.828 105.681 215.759 106.176 215.759C106.399 215.759 106.638 215.344 106.706 214.835C106.881 213.533 108.231 213.436 109.528 214.633C110.442 215.477 110.478 215.613 109.928 216.134C109.595 216.449 108.93 216.791 108.449 216.895C107.946 217.003 107.281 217.612 106.88 218.332L106.184 219.582L107.552 220.61C108.304 221.176 109.118 222.188 109.361 222.858C109.604 223.529 110.149 224.346 110.572 224.674C111.708 225.555 111.54 226.175 110.165 226.175C108.817 226.175 108.77 226.318 109.577 227.971C110.424 229.708 110.314 230.197 108.988 230.593C108.341 230.786 107.811 231.11 107.811 231.314C107.811 232.014 105.55 229.028 105.287 227.981C104.999 226.832 103.844 225.746 102.318 225.19C101.779 224.993 101.037 224.648 100.669 224.424C99.7822 223.88 99.2827 224.358 99.8807 225.178C100.142 225.536 100.356 226.144 100.356 226.528C100.356 227.462 100.986 228.438 102.561 229.946C103.28 230.634 103.973 231.617 104.101 232.13C104.764 234.778 105.323 234.993 106.664 233.11L107.416 232.054L107.417 233.075C107.418 233.854 107.882 234.487 109.38 235.75C110.459 236.66 111.342 237.556 111.342 237.741C111.342 237.926 110.497 237.364 109.465 236.493C107.906 235.179 107.341 234.91 106.13 234.91C104.802 234.91 104.672 234.993 104.667 235.834C104.664 236.343 104.555 237.099 104.425 237.514C104.235 238.12 104.35 238.27 104.999 238.27C105.445 238.27 105.951 238.477 106.124 238.73C106.296 238.983 107.144 239.499 108.007 239.875C109.951 240.724 111.553 242.176 111.888 243.394C112.028 243.902 112.405 244.318 112.726 244.318C113.664 244.318 118.127 248.004 119.092 249.575C119.577 250.366 120.165 252.19 120.397 253.629C120.63 255.068 120.934 256.472 121.073 256.749C121.212 257.026 121.341 258.16 121.359 259.269C121.406 262.2 122.135 263.975 123.918 265.502C125.245 266.639 125.351 266.829 124.656 266.829C123.316 266.829 122.409 266.226 121.292 264.594C120.382 263.265 120.213 262.596 120.104 259.895C119.929 255.593 119.24 254.454 114.211 250.158C110.651 247.117 110.165 246.563 110.165 245.551C110.165 243.508 108.334 243.128 107.261 244.946C106.522 246.196 106.297 247.654 106.189 251.877C106.107 255.115 105.964 255.802 105.037 257.421C104.081 259.09 103.961 259.724 103.793 263.973C103.638 267.901 103.436 269.108 102.57 271.291C102 272.728 101.533 274.483 101.533 275.189C101.533 275.894 101.347 276.929 101.12 277.487C100.893 278.046 100.76 279.391 100.825 280.477L100.945 282.452L101.468 280.94C102.678 277.446 104.256 275.842 105.792 276.546C106.876 277.043 108.203 278.555 108.203 279.294C108.203 280.136 106.832 280.695 105.418 280.428C103.915 280.146 103.368 280.552 102.128 282.871C100.943 285.087 100.071 288.15 99.5707 291.849C98.7852 297.659 98.2814 300.009 97.3649 302.138C96.8407 303.357 96.2521 305.171 96.0579 306.17C95.4972 309.048 93.0454 315.971 92.1002 317.342C91.4622 318.268 91.166 319.416 90.9584 321.764L90.6783 324.936L87.6281 327.465C84.5932 329.98 84.5669 329.993 82.4494 329.993C81.0722 329.993 80.2526 330.146 80.127 330.427C79.7845 331.191 81.6855 333.828 82.9622 334.361C83.6261 334.638 84.501 335.392 84.9063 336.037C85.7444 337.37 87.016 337.818 87.016 336.779C87.016 336.418 87.2365 335.971 87.5065 335.785C88.0397 335.417 89.5142 335.761 89.9418 336.353C90.0843 336.551 90.6281 336.713 91.1499 336.713C91.7027 336.713 92.3415 337.031 92.6813 337.475C93.4711 338.507 92.7845 340.198 90.8203 342.06C89.1387 343.654 89.2631 344.321 91.4552 345.465C93.1847 346.368 93.6861 346.293 93.6861 345.131C93.6861 343.956 95.2854 342.193 96.0053 342.574C96.3679 342.766 96.2827 343.022 95.6714 343.579C94.8907 344.291 94.8844 344.352 95.5435 344.842C95.9249 345.125 96.825 345.451 97.5446 345.568C98.2641 345.684 99.3726 346.096 100.008 346.483C100.643 346.871 101.755 347.328 102.478 347.499C103.202 347.67 104.451 348.257 105.255 348.804C107.007 349.997 108.652 350.307 111.564 349.996C114.011 349.734 114.873 350.089 114.873 351.359C114.873 351.9 115.873 352.991 118.072 354.845C119.83 356.33 121.413 357.544 121.589 357.544C121.764 357.544 122.097 357.241 122.328 356.872C122.827 356.074 123.614 356.006 124.29 356.704C125.109 357.549 127.252 357.338 128.112 356.329C128.859 355.449 128.86 355.449 130.204 356.045C132.316 356.98 133.704 357.882 136.513 360.145C137.949 361.301 139.283 362.248 139.479 362.248C139.674 362.248 140.177 362.025 140.596 361.754C141.015 361.483 142.098 361.256 143.002 361.25C143.906 361.244 144.755 361.088 144.889 360.904C145.275 360.369 147.684 360.515 148.259 361.108C148.546 361.404 148.97 361.971 149.199 362.367C149.429 362.763 150.009 363.136 150.49 363.195C151.188 363.281 151.363 363.138 151.363 362.48C151.363 360.775 153.102 360.554 154.291 362.108C154.945 362.962 156.426 363.119 159.014 362.607C159.699 362.472 160.835 362.561 161.733 362.821C163.842 363.433 164.157 363.016 163.131 360.973L162.282 359.283L163.047 357.801C163.574 356.78 164.188 356.186 165.019 355.891C166.118 355.501 166.344 355.541 167.561 356.335C168.296 356.815 169.158 357.208 169.478 357.208C169.798 357.208 170.454 357.568 170.937 358.008C171.553 358.569 172.422 358.869 173.85 359.013C178.625 359.493 178.873 359.57 179.451 360.755C179.921 361.718 180.236 361.9 181.778 362.098C182.759 362.224 184.086 362.237 184.726 362.128C185.366 362.018 186.31 362.065 186.822 362.232C188.104 362.649 189.421 365.107 189.421 367.079C189.421 367.957 189.61 368.978 189.841 369.347C190.148 369.838 190.132 370.151 189.783 370.511C189.08 371.236 189.832 372.385 191.519 373.163L192.928 373.813L194.102 373.07C194.747 372.661 195.732 372.327 196.29 372.327C196.877 372.327 197.7 371.963 198.238 371.466C199.129 370.642 199.244 370.623 200.868 371.035C201.801 371.271 203.387 371.9 204.392 372.43C206.574 373.584 207.617 373.525 207.79 372.24C207.936 371.162 208.279 371.086 209.175 371.934C210.045 372.757 209.997 372.959 208.843 373.335C206.69 374.036 208.216 376.695 210.772 376.695C211.863 376.695 212.339 376.449 213.336 375.372C214.477 374.138 214.637 374.073 215.731 374.4C216.594 374.657 217.055 374.641 217.48 374.339C217.94 374.013 218.321 374.034 219.336 374.444C220.039 374.728 221.497 375.249 222.576 375.603C223.655 375.956 225.224 376.649 226.064 377.142C227.838 378.185 228.476 378.256 228.99 377.47C229.321 376.963 229.533 376.949 230.93 377.344C232.736 377.854 233.38 377.655 233.082 376.678C232.764 375.637 234.273 374.425 235.669 374.601C236.499 374.705 237.061 374.508 237.845 373.836C238.487 373.286 239.164 373.001 239.567 373.111C242.068 373.789 241.997 373.797 241.997 372.829C241.997 372.061 242.092 371.976 242.57 372.316C242.927 372.57 243.606 372.635 244.378 372.49C245.443 372.29 245.774 372.407 246.769 373.34C247.827 374.333 248.062 374.404 249.571 374.198C251.789 373.894 252.087 373.54 250.879 372.64C249.073 371.296 247.899 369.49 246.887 366.502L245.896 363.574L246.702 361.337L247.509 359.101L246.312 358.165C245.343 357.408 245.16 357.051 245.355 356.295C245.812 354.511 245.885 354.439 247.103 354.592C247.747 354.673 248.275 354.627 248.275 354.489C248.275 353.853 247.748 353.176 247.252 353.176C246.952 353.176 246.706 352.874 246.706 352.504C246.706 352.134 246.956 351.832 247.263 351.832C247.931 351.832 248.313 350.514 248.335 348.137C248.347 346.861 248.468 346.488 248.784 346.758C249.644 347.494 250.185 347.091 251.104 345.03C251.696 343.702 252.365 342.794 252.928 342.554C253.416 342.345 254.346 341.71 254.993 341.143C255.846 340.397 256.788 340.008 258.403 339.734C262.068 339.114 262.986 338.772 263.68 337.765C264.62 336.402 267.291 334.419 268.55 334.148C269.138 334.022 270.569 333.04 271.731 331.965C273.913 329.947 277.914 327.441 279.499 327.101C280.693 326.844 282.995 328.341 284 330.027C284.414 330.723 284.976 331.413 285.249 331.561C285.833 331.878 289.506 332.287 294.181 332.557C297.875 332.771 298.659 333.09 298.321 334.242C298.012 335.297 299.332 335.985 301.832 336.073C302.911 336.11 304.395 336.348 305.13 336.6C306.285 336.996 306.59 336.988 307.386 336.542C308.437 335.952 308.485 335.738 307.838 334.521C307.456 333.803 307.474 333.584 307.936 333.334C309.188 332.656 313.399 333.443 313.415 334.359C313.429 335.185 314.686 336.261 316.113 336.668C318.185 337.26 319.804 337.125 321.197 336.245C322.315 335.538 322.618 335.487 323.679 335.825C324.344 336.036 325.165 336.568 325.502 337.007C326.064 337.737 326.057 337.893 325.417 338.847C324.721 339.886 324.723 339.894 325.781 340.673C326.46 341.174 327.075 341.37 327.482 341.217C329.211 340.569 330.711 340.678 332.28 341.568C333.463 342.238 333.996 342.374 334.378 342.102C335.052 341.623 336.475 342.099 337.676 343.205C338.185 343.673 338.849 343.974 339.152 343.875C339.965 343.608 340.958 344.456 340.725 345.219C340.508 345.931 341.805 347.098 342.837 347.117C343.639 347.132 344.494 345.888 344.209 345.12C343.886 344.248 344.632 343.968 345.651 344.58C346.15 344.879 346.891 345.012 347.423 344.898C347.925 344.79 348.582 344.876 348.882 345.089C349.184 345.304 349.87 345.383 350.414 345.265C351.167 345.104 351.504 345.219 351.839 345.755C352.217 346.359 352.167 346.456 351.479 346.456C350.468 346.456 350.447 346.998 351.439 347.453C352.285 347.84 353.945 347.916 354.332 347.585C354.47 347.467 354.297 346.955 353.946 346.447C353.101 345.222 353.422 344.66 355.264 344.14C356.652 343.747 356.928 343.776 358.265 344.452C359.902 345.279 359.902 345.279 360.818 343.718C361.177 343.107 361.912 342.423 362.451 342.2C367.197 340.235 366.801 340.331 367.6 340.95C368.611 341.733 370.298 341.116 370.298 339.964C370.298 339.527 370.651 338.895 371.083 338.561C371.515 338.226 371.868 337.755 371.868 337.513C371.868 336.864 370.366 336.29 369.281 336.523C367.828 336.835 368.16 336.169 369.866 335.347C371.535 334.544 372.172 333.729 372.344 332.177C372.444 331.279 372.584 331.179 373.633 331.258C374.281 331.307 375.569 331.172 376.496 330.958C377.892 330.636 378.313 330.336 378.948 329.21C379.37 328.463 379.715 327.679 379.715 327.469C379.715 327.033 381.358 325.625 381.867 325.625C382.052 325.625 382.535 325.368 382.94 325.054C383.554 324.579 383.876 324.547 384.857 324.864C386.342 325.344 386.7 324.782 386.046 322.992C385.644 321.889 385.683 321.701 386.427 321.174C386.883 320.851 387.495 320.586 387.786 320.586C388.078 320.586 388.632 320.305 389.018 319.961C390.016 319.073 391.673 318.794 392.273 319.413C392.962 320.123 393.742 320.033 394.048 319.208C394.192 318.82 395.263 317.68 396.429 316.674C398.501 314.885 398.947 314.117 398.156 313.698C397.569 313.388 397.682 312.326 398.352 311.85C398.675 311.62 398.94 311.142 398.94 310.787C398.94 310.432 399.715 309.43 400.662 308.56C402.94 306.467 404.343 303.945 403.714 303.075C402.82 301.84 402.516 301.255 402.288 300.328C401.989 299.117 401.093 298.841 399.719 299.536C399.116 299.842 398.287 300.091 397.877 300.091C397.467 300.091 396.523 300.476 395.779 300.946C393.932 302.114 392.141 301.816 388.289 299.701C386.147 298.526 384.53 297.918 382.642 297.58C381.187 297.319 379.865 296.984 379.705 296.834C378.206 295.436 375.684 292.501 375.367 291.787C375.054 291.082 375.098 290.834 375.577 290.605C376.419 290.201 376.339 289.745 375.203 288.47C373.946 287.059 373.969 286.681 375.399 285.14C376.046 284.442 376.577 283.552 376.578 283.161C376.579 282.087 377.964 280.365 379.305 279.772C380.483 279.25 380.91 278.173 380.107 277.748C379.891 277.634 379.715 276.903 379.715 276.123C379.715 274.102 378.03 272.54 375.85 272.54C373.119 272.54 368.944 270.241 369.721 269.165C370.24 268.446 369.421 266.77 368.252 266.162C367.599 265.822 366.656 264.927 366.156 264.174L365.248 262.805L366.095 262.297C366.561 262.017 367.197 261.789 367.51 261.789C367.823 261.789 368.374 261.56 368.735 261.28C369.322 260.826 369.55 260.828 370.881 261.305C372.951 262.045 373.862 261.739 375.632 259.709C376.763 258.412 377.505 257.892 378.465 257.724C380.958 257.289 382.413 255.242 381.3 253.735C381.049 253.396 381.183 252.897 381.726 252.144C382.925 250.483 382.652 250.093 377.619 246.281C376.22 245.221 376.106 244.996 376.02 243.133L375.928 241.126L373.125 239.855C370.6 238.71 370.279 238.449 369.895 237.227C369.229 235.109 369.517 233.758 370.663 233.619C372.065 233.449 375.742 231.585 376.237 230.792C377.186 229.276 374.644 225.032 372.5 224.554C371.414 224.311 371.276 224.142 371.252 223.018C371.227 221.866 371.079 221.698 369.585 221.125C368.682 220.779 367.944 220.28 367.944 220.017C367.944 219.252 369.019 217.258 369.687 216.783C370.585 216.145 370.441 215.483 369.121 214.196C367.878 212.984 367.708 212.397 368.318 211.421C368.796 210.656 367.947 209.568 366.306 208.841C365.332 208.41 364.409 208.356 361.37 208.551C357.896 208.774 357.532 208.867 356.216 209.876C355.432 210.477 354.143 211.064 353.328 211.192C351.223 211.521 349.896 212.863 349.896 214.661C349.896 215.726 350.095 216.196 350.68 216.509C351.976 217.202 351.589 217.998 349.09 219.779C347.035 221.244 346.485 221.471 344.999 221.471C343.612 221.471 343.126 221.301 342.469 220.586C342.022 220.099 341.656 219.602 341.656 219.482C341.656 219.362 342.76 218.816 344.108 218.268C346.396 217.338 346.564 217.193 346.62 216.095C346.652 215.449 346.798 214.538 346.943 214.072C347.146 213.42 346.921 212.919 345.963 211.888C344.911 210.756 344.752 210.351 344.925 209.24C345.037 208.519 345.521 207.475 346 206.92C346.763 206.036 346.814 205.779 346.414 204.831C346.163 204.237 346.065 203.513 346.195 203.222C346.451 202.649 349.878 200.314 351.465 199.63C352.005 199.398 353.188 198.694 354.095 198.067C355.549 197.06 355.746 196.759 355.764 195.507C355.776 194.727 355.823 193.333 355.868 192.409C355.913 191.485 355.81 190.476 355.639 190.167C355.21 189.391 356.657 188.209 358.037 188.207C358.675 188.206 359.918 187.687 361.078 186.936C362.62 185.938 363.125 185.368 363.437 184.267C363.752 183.159 364.633 182.172 367.655 179.537C369.756 177.706 371.475 175.942 371.475 175.617C371.475 175.292 372.005 174.509 372.652 173.878C373.3 173.247 373.829 172.418 373.829 172.037C373.829 171.387 373.68 171.359 371.475 171.578C368.672 171.856 368.466 171.514 370.465 169.899C371.378 169.162 371.851 168.448 371.937 167.676C372.056 166.603 372.154 166.534 373.633 166.474C374.496 166.439 375.633 166.363 376.159 166.306C376.902 166.225 377.168 166.389 377.353 167.038C377.644 168.066 380.017 169.51 380.87 169.179C381.206 169.05 382.275 168.876 383.246 168.794C385.619 168.592 387.249 167.597 386.939 166.54C386.74 165.863 386.867 165.733 387.821 165.639C388.816 165.542 388.96 165.371 389.168 164.036C389.296 163.214 389.605 162.483 389.855 162.412C390.642 162.187 390.35 161.178 389.147 159.974C387.924 158.748 387.655 157.689 388.404 157.048C388.741 156.759 388.729 156.284 388.355 155.138C387.923 153.818 387.941 153.502 388.491 152.783C388.84 152.327 389.121 151.607 389.116 151.182C389.1 149.899 389.599 148.099 390.166 147.396C390.925 146.455 390.837 145.942 389.72 144.806C388.611 143.677 388.401 141.742 389.27 140.658C389.562 140.294 389.898 139.358 390.016 138.579C390.134 137.8 390.601 136.759 391.054 136.266C391.507 135.773 391.878 134.895 391.878 134.316C391.878 133.737 392.319 132.708 392.858 132.029C393.665 131.011 393.769 130.64 393.446 129.913C392.7 128.234 393.295 126.09 395.098 123.96C395.5 123.485 395.466 123.202 394.911 122.397C393.962 121.022 394.017 120.846 395.943 119.066C397.87 117.285 398.548 116.319 398.548 115.358C398.548 114.936 399.244 114.317 400.48 113.637C401.542 113.054 402.64 112.34 402.92 112.051C403.6 111.349 404.42 109.285 404.43 108.245C404.434 107.783 404.789 106.951 405.218 106.397C405.647 105.843 405.999 105.288 406 105.165C406.002 105.042 405.105 104.776 404.008 104.574C402.91 104.373 401.272 103.837 400.368 103.383C398.845 102.618 398.36 102.56 393.829 102.595C389.392 102.629 388.734 102.554 386.777 101.792C385.427 101.266 384.135 100.43 383.326 99.5585C381.606 97.7062 380.412 97.7419 377.625 99.7275C376.384 100.611 374.375 100.762 372.258 100.131C371.163 99.8038 370.889 99.8297 370.489 100.299C369.756 101.157 369.232 100.96 368.961 99.7235C368.628 98.2025 367.549 97.4485 365.41 97.2423C363.646 97.0719 363.628 97.0803 363.628 98.0809C363.628 100.472 360.942 100.325 359.345 97.8457C358.82 97.0309 357.45 95.5264 356.301 94.5023C354.779 93.146 354.212 92.3813 354.212 91.6875C354.212 91.0215 353.688 90.2602 352.472 89.1585C350.878 87.7131 350.576 87.5808 348.843 87.566C347.6 87.5556 346.483 87.2975 345.58 86.8114C344.824 86.4051 343.909 86.0722 343.545 86.0715C342.416 86.0692 340.721 86.7475 339.631 87.6379C338.734 88.3706 338.364 88.459 337.013 88.2635C336.148 88.1385 335.351 87.8385 335.243 87.5976C335.136 87.3563 334.195 86.9111 333.153 86.6081C332.111 86.3054 330.97 85.7322 330.618 85.3347C330.042 84.6839 329.859 84.654 328.79 85.0333C328.137 85.2648 327.17 85.4056 326.641 85.3465C326.112 85.287 325.362 85.4634 324.974 85.7382C324.587 86.0131 323.723 86.2671 323.056 86.3023C322.388 86.3376 321.419 86.4132 320.902 86.4703C320.099 86.559 319.87 86.348 319.333 85.0202C318.509 82.9872 317.924 82.4372 316.31 82.1778C315.576 82.0599 314.976 81.8408 314.976 81.6907C314.976 81.1289 312.918 79.3505 312.268 79.3505C311.896 79.3505 311.079 78.8926 310.453 78.3325C308.719 76.783 304.997 75.3188 302.792 75.3188C301.461 75.3188 300.867 75.1682 300.697 74.7872C300.296 73.8925 300.43 73.0697 301.047 72.6309C301.943 71.9942 301.759 71.2604 300.406 70.0647L299.176 68.9781L299.817 67.6059C300.17 66.851 300.459 65.7261 300.459 65.1056C300.459 64.4853 300.723 63.7895 301.047 63.5594C301.842 62.9942 301.788 62.1019 300.918 61.4276C299.821 60.5772 299.32 60.7324 297.281 62.5528C295.592 64.0613 295.387 64.4134 295.28 65.9768C295.167 67.6426 295.104 67.7323 293.845 68.0101C293.121 68.1701 291.827 68.6979 290.971 69.183C289.484 70.026 289.323 70.0465 287.383 69.646C286.267 69.4152 284.293 69.1206 282.999 68.9912C280.132 68.7049 279.796 68.5369 279.459 67.2222C279.247 66.3964 279.36 66.0897 280.017 65.6949C281.104 65.0431 281.056 64.2609 279.833 62.7184L278.826 61.4474L280.03 60.0127C281.744 57.969 281.505 56.5037 279.457 56.5037C278.586 56.5037 277.337 55.5257 276.56 54.2359C276.036 53.3647 274.99 53.2736 273.432 53.9634C272.491 54.38 272.126 54.382 270.803 53.9782C269.958 53.7205 268.688 53.5028 267.981 53.4947C266.95 53.4829 266.62 53.6526 266.307 54.3565C265.673 55.7858 264.869 54.797 264.688 52.3644C264.503 49.8825 263.305 48.1042 261.817 48.1042C260.515 48.1042 259.653 47.7696 259.653 47.2642C259.653 46.4804 258.391 46.3759 257.507 47.0868C256.332 48.0323 255.204 47.9386 253.855 46.7831C252.695 45.7899 252.216 44.2505 252.186 41.4215C252.175 40.4196 251.77 39.8286 249.858 38.0247C247.754 36.0404 247.469 35.8791 246.737 36.2608C246.294 36.492 245.59 36.6808 245.171 36.6808C244.239 36.6808 241.997 38.2441 241.997 38.8946C241.997 40.1434 238.192 38.4917 236.557 36.533C235.831 35.6631 234.828 34.7916 234.327 34.5964C232.882 34.0326 231.658 30.4503 232.784 30.0804C233.693 29.7814 233.478 29.0399 232.002 27.3835C231.027 26.2899 230.732 25.6975 230.968 25.3038C231.82 23.8816 230.586 23.5839 228.069 24.6039ZM57.0745 107.79C56.5354 108.252 56.8147 108.965 57.4911 108.853C57.869 108.791 58.1778 108.528 58.1778 108.269C58.1778 107.738 57.4856 107.438 57.0745 107.79ZM87.5905 119.973C87.7737 120.233 87.8941 121.103 87.8588 121.905C87.8235 122.708 87.9722 123.364 88.19 123.364C88.8821 123.364 88.6537 120.47 87.9216 119.961C87.3558 119.569 87.3072 119.57 87.5905 119.973ZM37.0885 155.537C36.1328 155.719 36.232 156.18 37.3636 156.815C38.2946 157.337 39.9331 157.229 39.9331 156.645C39.9331 155.999 38.2024 155.325 37.0885 155.537ZM47.8521 162.185C47.971 163.391 48.9958 164.433 49.5757 163.936C49.9339 163.63 48.782 161.224 48.197 161.057C47.8752 160.965 47.7669 161.319 47.8521 162.185ZM43.726 167.266C42.631 168.204 45.0915 171.315 46.6515 170.965C47.1062 170.864 47.7877 170.946 48.166 171.148C49.0068 171.598 50.1344 171.278 50.1344 170.589C50.1344 170.311 49.6491 169.866 49.0554 169.6C48.4618 169.335 47.4578 168.651 46.8241 168.08C45.7522 167.114 44.3369 166.743 43.726 167.266ZM74.0529 183.352C73.3188 184.11 73.9654 185.492 75.3921 186.212C76.1065 186.573 76.8979 187.258 77.1506 187.733C77.4037 188.208 77.829 188.536 78.0954 188.461C78.9723 188.214 78.835 186.976 77.8156 185.939C77.2652 185.378 76.8147 184.696 76.8147 184.422C76.8147 183.423 74.7568 182.627 74.0529 183.352ZM70.1454 195.096C69.881 195.369 69.7601 195.805 69.8771 196.066C70.1443 196.662 72.713 197.411 73.5491 197.136C74.1181 196.949 74.1189 196.877 73.5593 196.349C73.2207 196.03 72.4223 195.505 71.7851 195.184C70.7685 194.671 70.5672 194.66 70.1454 195.096ZM95.4286 215.9C94.6823 216.367 94.6858 216.394 95.6126 217.239C96.1325 217.713 97.1918 218.2 97.9667 218.321C98.7412 218.443 100.104 218.986 100.993 219.529C102.093 220.2 102.972 220.481 103.739 220.406C105.453 220.238 105.121 219.464 102.71 218.012C100.892 216.918 100.321 216.739 99.083 216.876C97.6929 217.03 97.6266 216.995 97.8502 216.231C98.0515 215.545 97.9444 215.423 97.1389 215.423C96.617 215.423 95.8476 215.638 95.4286 215.9ZM125.859 266.973C125.859 267.065 126.213 267.303 126.644 267.501C127.076 267.698 127.429 267.784 127.429 267.692C127.429 267.6 127.076 267.362 126.644 267.165C126.213 266.967 125.859 266.881 125.859 266.973ZM313.877 329.052C313.181 329.649 313.304 330.482 314.191 331.169C314.623 331.503 314.976 331.981 314.976 332.229C314.976 332.531 315.531 332.694 316.643 332.721C319.107 332.78 319.421 332.711 320.187 331.939C321.178 330.942 320.829 330.497 319.059 330.497C317.99 330.497 317.099 330.217 316.116 329.573C314.498 328.513 314.505 328.515 313.877 329.052ZM363.398 346.395C362.732 346.891 361.85 347.477 361.436 347.699C360.785 348.048 360.763 348.149 361.274 348.458C362.44 349.164 363.783 348.712 364.558 347.353C365.506 345.692 364.954 345.236 363.398 346.395ZM354.608 347.964C353.963 348.63 354.387 349.48 355.362 349.48C356.362 349.48 357.101 348.393 356.469 347.852C355.854 347.325 355.189 347.365 354.608 347.964Z" fill="url(#paint0_linear_282_99)"/>
<path d="M275 134.417C267.281 134.417 261 140.548 261 148.075C260.949 159.085 274.468 168.214 275 168.583C275 168.583 289.051 159.085 289 148.083C289 140.548 282.719 134.417 275 134.417ZM275 154.917C271.133 154.917 268 151.859 268 148.083C268 144.308 271.133 141.25 275 141.25C278.868 141.25 282 144.308 282 148.083C282 151.859 278.868 154.917 275 154.917Z" fill="white"/>
<path fill-rule="evenodd" clip-rule="evenodd" d="M277.111 142.021C275.834 142.074 274.639 143.409 274.911 144.47C276.062 144.575 277.229 143.284 277.111 142.021ZM279.219 150.321C278.923 150.982 278.503 151.572 277.988 152.103C277.519 152.588 276.935 152.736 276.308 152.472C275.465 152.112 274.654 152.112 273.814 152.475C273.198 152.741 272.637 152.591 272.172 152.116C271.155 151.089 270.534 149.866 270.319 148.452C270.187 147.577 270.25 146.73 270.702 145.944C271.199 145.086 271.96 144.605 272.963 144.55C273.305 144.533 273.678 144.608 273.989 144.745C274.618 145.026 275.207 145.017 275.838 144.741C276.57 144.421 277.344 144.417 278.072 144.751C278.103 144.765 278.134 144.78 278.164 144.796L278.164 144.796C278.183 144.805 278.201 144.815 278.22 144.824C278.099 144.93 278.057 145.107 278.132 145.258C278.172 145.348 278.214 145.438 278.257 145.526C278.27 145.55 278.264 145.564 278.243 145.582L278.188 145.636C278.097 145.725 278.005 145.814 277.917 145.906C277.869 145.959 277.826 146.011 277.786 146.067L277.467 145.955C277.271 145.889 277.054 145.983 276.975 146.17C276.921 146.305 276.871 146.44 276.823 146.575L276.823 146.575L276.823 146.575C276.821 146.581 276.819 146.586 276.818 146.59C276.752 146.783 276.86 146.993 277.062 147.056C277.091 147.067 277.121 147.078 277.15 147.089C277.214 147.112 277.277 147.135 277.34 147.156C277.369 147.165 277.369 147.174 277.369 147.201C277.346 147.41 277.354 147.62 277.392 147.826C277.396 147.852 277.392 147.866 277.365 147.879C277.3 147.905 277.237 147.934 277.172 147.963L277.172 147.963C277.145 147.976 277.118 147.988 277.09 148C276.894 148.088 276.808 148.311 276.894 148.502L277.071 148.886C277.073 148.894 277.075 148.9 277.079 148.905C277.169 149.089 277.398 149.167 277.588 149.077L277.863 148.956C277.876 148.943 277.899 148.943 277.915 148.956C277.93 148.972 277.946 148.989 277.961 149.006C278.006 149.055 278.05 149.104 278.099 149.147C278.166 149.207 278.236 149.264 278.308 149.323L278.308 149.323C278.342 149.351 278.377 149.38 278.412 149.409C278.378 149.505 278.335 149.608 278.293 149.705C278.218 149.898 278.316 150.113 278.516 150.184C278.652 150.237 278.789 150.286 278.927 150.334C278.928 150.335 278.93 150.336 278.931 150.337L278.935 150.338C279.033 150.366 279.133 150.359 279.219 150.321ZM279.654 148.907C279.711 148.579 279.742 148.223 279.742 147.852C279.742 147.139 279.625 146.483 279.435 145.981C278.77 146.142 278.276 146.729 278.278 147.427C278.278 148.203 278.881 148.836 279.654 148.907Z" fill="white"/>
<path d="M149.5 250.417C141.965 250.417 135.833 256.548 135.833 264.075C135.784 275.085 148.981 284.214 149.5 284.583C149.5 284.583 163.216 275.085 163.167 264.083C163.167 256.548 157.036 250.417 149.5 250.417ZM149.5 270.917C145.725 270.917 142.667 267.859 142.667 264.083C142.667 260.308 145.725 257.25 149.5 257.25C153.275 257.25 156.333 260.308 156.333 264.083C156.333 267.859 153.275 270.917 149.5 270.917Z" fill="white"/>
<path fill-rule="evenodd" clip-rule="evenodd" d="M151.561 258.021C150.314 258.074 149.147 259.409 149.414 260.47C150.537 260.575 151.676 259.284 151.561 258.021ZM153.619 266.321C153.33 266.982 152.919 267.572 152.417 268.103C151.959 268.588 151.389 268.736 150.777 268.472C149.954 268.112 149.162 268.112 148.343 268.475C147.741 268.741 147.193 268.591 146.739 268.116C145.747 267.089 145.141 265.866 144.931 264.452C144.801 263.577 144.863 262.73 145.304 261.944C145.79 261.086 146.533 260.605 147.512 260.55C147.846 260.533 148.209 260.608 148.513 260.745C149.127 261.026 149.702 261.017 150.318 260.741C151.032 260.421 151.788 260.417 152.499 260.751C152.529 260.765 152.559 260.78 152.589 260.796L152.589 260.796C152.607 260.805 152.625 260.815 152.644 260.824C152.525 260.93 152.484 261.107 152.557 261.258C152.597 261.348 152.638 261.438 152.679 261.526C152.692 261.55 152.687 261.564 152.666 261.582L152.612 261.636C152.523 261.725 152.433 261.814 152.347 261.906C152.3 261.959 152.259 262.011 152.22 262.067L151.908 261.955C151.717 261.889 151.505 261.983 151.428 262.17C151.376 262.305 151.327 262.44 151.28 262.575L151.28 262.575L151.28 262.575C151.278 262.581 151.276 262.586 151.274 262.59C151.21 262.783 151.316 262.993 151.512 263.056C151.541 263.067 151.57 263.078 151.598 263.088L151.599 263.089L151.599 263.089C151.661 263.112 151.723 263.135 151.784 263.156C151.813 263.165 151.813 263.174 151.813 263.201C151.79 263.41 151.798 263.62 151.835 263.826C151.839 263.852 151.835 263.866 151.809 263.879C151.746 263.905 151.683 263.934 151.621 263.963L151.621 263.963C151.594 263.976 151.567 263.988 151.541 264C151.349 264.088 151.265 264.311 151.349 264.502L151.522 264.886C151.524 264.894 151.526 264.9 151.529 264.905C151.618 265.089 151.841 265.167 152.026 265.077L152.295 264.956C152.308 264.943 152.33 264.943 152.345 264.956C152.361 264.972 152.376 264.989 152.391 265.006L152.391 265.006L152.391 265.006C152.434 265.055 152.478 265.104 152.525 265.147C152.591 265.207 152.659 265.264 152.729 265.323L152.729 265.323C152.763 265.351 152.797 265.38 152.831 265.409C152.797 265.505 152.756 265.608 152.715 265.705C152.642 265.898 152.737 266.113 152.932 266.184C153.066 266.237 153.199 266.286 153.334 266.334C153.335 266.335 153.336 266.336 153.338 266.337L153.341 266.338C153.437 266.366 153.534 266.359 153.619 266.321ZM154.043 264.907C154.099 264.579 154.129 264.223 154.129 263.852C154.129 263.139 154.015 262.483 153.829 261.981C153.18 262.142 152.698 262.729 152.7 263.427C152.7 264.203 153.289 264.836 154.043 264.907Z" fill="white"/>
<path d="M275 119L275 2" stroke="#3E3E3E" stroke-width="3" stroke-linecap="round" stroke-linejoin="round" stroke-dasharray="8 8"/>
<path d="M150 416L150 293" stroke="#3E3E3E" stroke-width="3" stroke-linecap="round" stroke-linejoin="round" stroke-dasharray="8 8"/>
<defs>
<linearGradient id="paint0_linear_282_99" x1="255.621" y1="333.272" x2="304.565" y2="39.703" gradientUnits="userSpaceOnUse">
<stop stop-color="#E65411"/>
<stop offset="1" stop-color="#FF7C40"/>
</linearGradient>
</defs>
</svg>
