<svg width="434" height="354" viewBox="0 0 434 354" fill="none" xmlns="http://www.w3.org/2000/svg">
<path fill-rule="evenodd" clip-rule="evenodd" d="M246.069 0.603914C245.205 0.953672 243.705 1.2443 242.734 1.25001C241.762 1.25572 239.909 1.63404 238.614 2.09097C237.319 2.54757 235.465 2.92488 234.493 2.92925C230.856 2.94571 225.722 4.57119 222.629 6.68586C221.455 7.48853 220.182 8.29925 219.8 8.48774C219.15 8.80894 219.146 8.91242 219.738 10.126C220.305 11.2881 220.311 11.5929 219.791 13.0917C218.941 15.542 218.917 20.2636 219.751 21.0521C220.33 21.6005 220.335 21.6915 219.798 21.8682C219.416 21.9935 219.192 22.4901 219.192 23.2115C219.192 23.8408 218.927 24.9986 218.604 25.7841C217.831 27.6602 217.838 27.6962 219.094 28.2798C219.841 28.6265 219.966 28.7851 219.5 28.7945C218.595 28.8126 218.014 29.8327 218.021 31.3896C218.028 32.8931 218.185 33.126 219.88 34.1393C220.581 34.5589 221.338 35.1946 221.562 35.5521C221.95 36.173 221.897 36.1703 220.375 35.491C218.252 34.5435 216.693 35.0206 216.026 36.8221C215.516 38.1976 212.8 40.7383 208.991 43.4037C205.584 45.7875 203.581 46.615 201.218 46.615C199.926 46.615 198.698 46.8888 197.459 47.4523C196.113 48.0654 194.637 48.3671 191.952 48.5785C189.273 48.7895 187.978 49.0539 187.15 49.5589C186.526 49.9392 185.226 50.6135 184.261 51.057C183.296 51.5005 182.154 52.0341 181.722 52.2427C181.29 52.4513 179.79 53.0981 178.387 53.68C175.238 54.986 175.266 54.9618 174.82 56.6656C174.618 57.4333 173.82 58.8783 173.046 59.8765L171.639 61.6915L172.703 62.8859C174.151 64.5124 175.971 64.8981 180.416 64.5218C182.321 64.3606 183.88 64.3354 183.88 64.4657C183.88 64.5964 183.254 65.0345 182.489 65.4394C181.326 66.0549 180.759 66.1393 179.033 65.9548C176.433 65.6766 175.408 66.0099 171.929 68.265C168.328 70.5984 167.971 70.7389 165.006 70.9865C162.584 71.1887 162.407 71.1494 159.946 69.866L157.396 68.5358L151.812 68.2896C146.23 68.0429 145.314 67.8766 141.777 66.4685C138.1 65.0043 135.228 65.2479 135.228 67.0232C135.228 67.6115 135.041 67.8007 134.541 67.7187C134.045 67.6374 133.797 67.1764 133.646 66.0563C133.502 64.9926 132.917 63.8438 131.782 62.3957C129.727 59.7754 129.675 58.8283 131.5 57.2656C133.174 55.8323 133.23 54.9322 131.727 53.6448C130.862 52.9043 130.21 52.6617 129.078 52.658C128.252 52.6556 127.211 52.5693 126.764 52.4665C126.199 52.3368 125.439 52.6455 124.275 53.4791C123.352 54.139 122.217 54.6769 121.752 54.6749C120.262 54.6685 117.143 53.7096 115.084 52.624C111.325 50.6438 108.912 51.5728 111.842 53.8715C113.021 54.7958 113.256 55.2071 113.256 56.3447C113.256 57.2932 113.017 57.8842 112.471 58.2843C111.456 59.0282 111.481 59.2338 112.691 60.1353C113.54 60.7672 113.688 61.1452 113.638 62.5688C113.547 65.2529 113.586 65.3779 114.827 66.3241C116.829 67.8518 118.356 70.1973 118.356 71.7441C118.356 72.6627 118.683 73.5403 119.328 74.3547C120.066 75.2854 120.208 75.7295 119.917 76.1952C119.326 77.1413 119.462 79.3047 120.167 80.1669C120.634 80.737 120.686 81.0407 120.364 81.3166C119.752 81.8404 119.818 82.7422 120.504 83.2297C121.011 83.5905 121.002 83.7699 120.431 84.6989C119.979 85.4327 119.787 86.5472 119.804 88.3349C119.833 91.2459 120.191 91.8658 123.235 94.2684C124.22 95.0458 125.026 95.7645 125.026 95.8653C125.026 95.9661 123.393 96.0252 121.397 95.9967C119.401 95.9684 116.426 96.0494 114.787 96.1767C111.86 96.4045 111.79 96.3918 110.955 95.4826C110.19 94.65 110.165 94.5002 110.699 93.9942C111.368 93.3619 111.497 92.3086 110.907 92.3086C109.593 92.3086 106.683 93.2833 105.737 94.0396C105.124 94.5298 104.524 94.7945 104.404 94.6275C103.976 94.0349 102.692 94.3389 101.419 95.3348C99.9774 96.462 99.5309 96.4667 98.8819 95.3616C98.0791 93.9945 97.6503 93.8155 96.7859 94.4854C95.8152 95.2373 95.7297 94.7932 96.6733 93.9005C97.3215 93.287 97.318 93.2329 96.5996 92.783C95.9306 92.3643 95.7387 92.3949 94.9222 93.0518C94.3521 93.5104 93.5831 93.7664 92.9075 93.7221C92.1746 93.6744 91.5107 93.928 90.892 94.4918C90.3846 94.9541 89.798 95.3324 89.5881 95.3324C89.3782 95.3324 88.4523 95.8616 87.5306 96.5084C86.6086 97.1551 85.57 97.6843 85.2216 97.6843C84.8736 97.6843 84.4871 97.9111 84.3631 98.1883C84.0163 98.962 82.9408 98.8283 83.2304 98.0472C83.4026 97.5815 83.0283 97.0281 81.8834 96.0578C80.9837 95.2948 80.2975 94.3923 80.2975 93.9717C80.2975 93.5638 79.6795 92.6442 78.9243 91.9283C78.1274 91.173 77.551 90.2746 77.551 89.7877C77.551 88.8816 76.317 87.6048 75.4409 87.6048C74.5601 87.6048 73.9586 86.7837 74.5 86.32C75.2247 85.6995 74.2211 84.9838 73.31 85.471C72.696 85.7993 72.6359 85.7193 72.7686 84.7463C72.9961 83.0775 72.2177 83.0167 70.1099 84.5387L68.2141 85.9074L68.6323 84.7406C69.1322 83.3463 68.8006 82.9209 67.8115 83.6869C67.4156 83.994 66.4434 84.245 65.6512 84.245C64.7111 84.245 63.9248 84.4899 63.3869 84.9506L62.5633 85.6558L61.2293 84.5487L59.8953 83.4413L58.5217 84.7255C56.9416 86.2028 56.9471 86.1856 57.7656 86.9601C58.3318 87.4956 58.3153 87.5622 57.5694 87.7651C56.9495 87.9334 56.7561 88.2674 56.7561 89.1675C56.7561 89.8169 56.5952 90.2984 56.3982 90.2366C56.2017 90.1751 54.7138 89.5209 53.0918 88.7831L50.1433 87.4415L49.1337 88.2536C48.5111 88.7546 48.1242 89.4299 48.1242 90.0152C48.1242 91.133 47.6075 91.2378 46.8227 90.2786C46.514 89.9013 46.0184 89.6365 45.7214 89.6906C45.3612 89.7561 45.1395 89.3976 45.0556 88.6128C44.9861 87.966 44.8001 87.3229 44.642 87.1835C44.4839 87.0441 43.5693 87.2608 42.61 87.6646C41.6507 88.0685 40.3912 88.3611 39.8113 88.3148C38.3894 88.2012 37.1382 88.8238 37.1382 89.6442C37.1382 90.2164 37.0193 90.2618 36.3386 89.95C35.8987 89.7484 35.1925 89.6775 34.7691 89.7927C34.1739 89.9547 33.9993 89.8445 33.9993 89.3072C33.9993 88.3258 31.6671 88.3353 30.627 89.321C29.9949 89.9201 29.5849 89.9997 27.9727 89.8364C26.1223 89.6493 26.0713 89.6678 26.2467 90.4536C26.4123 91.1961 26.3291 91.2469 25.2513 91.0624C24.1186 90.8682 24.0856 90.8968 24.3583 91.8275C24.6381 92.782 24.6314 92.7864 23.8431 92.1755C22.7814 91.3527 21.3199 91.681 19.8211 93.079C19.0438 93.8037 18.6997 94.4454 18.7704 95.0384C18.8276 95.5236 18.6676 96.1344 18.4141 96.3958C17.8648 96.9626 17.8609 100.362 18.409 100.96C18.9316 101.531 19.8046 101.488 20.5442 100.855C20.9781 100.483 21.2803 100.434 21.5757 100.687C22.1917 101.214 23.6387 101.124 26.1118 100.405C29.311 99.4741 32.4534 98.6912 32.9655 98.698C33.2103 98.701 32.4574 99.1166 31.2924 99.6219C29.2114 100.524 28.0896 101.471 28.5926 101.902C28.9218 102.184 30.3708 102.17 31.7488 101.871C32.6272 101.68 32.7897 101.734 32.6021 102.152C32.4413 102.511 32.7987 102.842 33.7737 103.238C35.5911 103.977 35.5491 104.181 33.6364 103.904C32.7842 103.781 31.7597 103.836 31.3427 104.027C30.7894 104.28 30.3735 104.242 29.776 103.884C29.3287 103.616 28.6884 103.486 28.3529 103.596C27.5007 103.876 25.4514 103.035 25.2313 102.315C24.9457 101.379 23.798 101.572 23.798 102.556C23.798 103.079 23.5756 103.396 23.2095 103.396C22.2427 103.396 22.5437 104.375 23.5791 104.597C24.4744 104.789 24.5223 104.911 24.3089 106.451C24.033 108.446 24.5772 108.615 25.8544 106.931C26.3417 106.288 26.9498 105.692 27.2056 105.606C27.7973 105.407 31.8355 108.024 32.4691 109.018C32.8085 109.55 32.8324 109.99 32.5507 110.53C32.1941 111.214 31.857 111.297 29.251 111.347C24.2422 111.443 19.3059 111.851 18.7908 112.21C18.2485 112.589 18.8139 113.475 19.5974 113.475C19.8238 113.475 20.3315 113.725 20.7259 114.031C21.1202 114.337 22.0979 114.621 22.8983 114.662C23.8541 114.712 24.7919 115.069 25.6307 115.703C27.2021 116.889 29.1011 119.126 28.7747 119.406C28.6421 119.519 28.7143 119.9 28.9348 120.253C29.2408 120.743 29.1419 121.162 28.5157 122.03C27.5972 123.303 27.7243 123.469 30.0757 124.079C31.4874 124.445 34.2473 124.142 34.9527 123.543C35.1772 123.352 35.1144 122.907 34.7887 122.386C34.1072 121.296 34.4647 121.008 35.6641 121.681C36.88 122.364 37.2728 122.027 36.4759 120.986C36.1345 120.539 35.9603 120.084 36.0894 119.973C36.2185 119.863 36.5237 120.132 36.7682 120.572C37.3975 121.705 39.2985 122.926 40.0495 122.679C40.394 122.565 40.782 122.112 40.9115 121.67C41.2442 120.535 41.9999 120.674 42.5472 121.97C42.8034 122.577 43.7164 123.662 44.5761 124.381C46.0027 125.574 46.2271 125.653 47.1507 125.293C48.2486 124.865 49.8247 125.332 50.8491 126.389C51.1799 126.73 52.0085 126.915 53.2056 126.915C54.9983 126.915 55.0744 126.956 55.8062 128.343C56.4014 129.47 56.7945 129.793 57.6742 129.88C58.5707 129.968 59.0557 129.722 60.157 128.62C61.6531 127.123 62.8074 126.705 61.493 128.136C61.0457 128.623 60.6796 129.21 60.6796 129.44C60.6796 130.038 63.0636 131.954 63.8083 131.954C64.4902 131.954 65.7803 130.327 65.7803 129.467C65.7803 128.83 66.2272 128.776 66.8789 129.334C67.6605 130.003 67.4148 130.779 66.1726 131.565C64.7378 132.474 64.7264 132.834 66.0906 134.175C67.4592 135.52 68.6727 136.052 69.8133 135.807C70.9206 135.569 74.3537 137.422 75.0552 138.635C75.9153 140.124 77.8472 140.491 79.2448 139.43C79.8129 138.999 80.0656 138.954 80.1912 139.262C80.3811 139.726 81.8669 139.849 81.8669 139.4C81.8669 139.245 82.3083 138.946 82.8478 138.735C83.56 138.457 83.8287 138.455 83.8287 138.726C83.8287 138.964 84.369 139.037 85.322 138.927C86.2017 138.826 87.088 138.926 87.48 139.172C88.2867 139.677 88.3346 140.018 87.5981 140.018C87.2976 140.018 86.9389 140.269 86.8012 140.577C86.5694 141.094 87.7237 142.486 89.2786 143.564C89.7419 143.885 89.7365 143.971 89.2433 144.133C88.9235 144.238 88.413 144.189 88.109 144.024C87.3019 143.586 86.8817 143.657 85.8239 144.412L84.8763 145.087L86.547 146.545C87.6283 147.488 88.0607 148.087 87.7719 148.239C87.5263 148.369 87.0763 148.298 86.7714 148.082C86.2284 147.696 85.3982 147.873 85.3982 148.375C85.3982 148.515 86.0361 148.89 86.8154 149.208C88.1521 149.754 88.2608 149.754 88.7234 149.212C89.1781 148.68 89.2676 148.693 89.9542 149.393C90.3619 149.808 90.9787 150.282 91.3255 150.445C92.3162 150.911 94.6554 150.189 95.745 149.08C96.6098 148.2 96.8507 148.122 97.7794 148.425C98.5237 148.667 99.208 148.652 100.11 148.372C101.229 148.026 101.535 148.066 102.576 148.701C103.229 149.1 104.136 149.426 104.592 149.426C105.098 149.426 105.709 149.833 106.165 150.475C106.575 151.052 107.411 151.807 108.023 152.153C108.635 152.498 108.948 152.782 108.718 152.783C108.489 152.784 107.165 152.14 105.776 151.352C102.148 149.292 101.325 149.04 99.0675 149.297C96.9029 149.542 95.8003 150.227 96.2186 151.065C96.8122 152.255 96.5556 152.925 95.2071 153.708C93.4356 154.737 93.3301 155.065 94.6888 155.32C96.8613 155.728 97.9669 156.243 99.7879 157.695L101.634 159.167L100.529 160.154C99.6972 160.898 99.485 161.345 99.6674 161.967C99.862 162.632 99.7376 162.83 99.0283 162.983C98.0701 163.189 95.5995 165.715 95.5995 166.489C95.5995 166.753 96.8075 168.048 98.2844 169.368C102.7 173.315 105.326 177.164 105.696 180.231C105.87 181.679 106.037 182.01 106.512 181.854C106.867 181.737 107.6 182.058 108.319 182.645C108.984 183.187 109.881 183.685 110.313 183.751C110.77 183.821 111.15 184.185 111.223 184.623C111.335 185.296 111.572 185.376 113.457 185.376C115.191 185.376 115.674 185.508 116.176 186.123C116.512 186.533 116.787 187.195 116.787 187.593C116.787 188.747 117.619 189.125 119.101 188.645C120.244 188.276 120.419 188.303 120.807 188.904C121.402 189.828 123.681 191.759 124.176 191.759C124.399 191.759 124.638 191.344 124.706 190.835C124.881 189.533 126.231 189.436 127.528 190.633C128.442 191.477 128.478 191.613 127.928 192.134C127.595 192.449 126.93 192.791 126.449 192.895C125.946 193.003 125.281 193.612 124.88 194.332L124.184 195.582L125.552 196.61C126.304 197.176 127.118 198.188 127.361 198.858C127.604 199.529 128.149 200.346 128.572 200.674C129.708 201.555 129.54 202.175 128.165 202.175C126.817 202.175 126.77 202.318 127.577 203.971C128.424 205.708 128.314 206.197 126.988 206.593C126.341 206.786 125.811 207.11 125.811 207.314C125.811 208.014 123.55 205.028 123.287 203.981C122.999 202.832 121.844 201.746 120.318 201.19C119.779 200.993 119.037 200.648 118.669 200.424C117.782 199.88 117.283 200.358 117.881 201.178C118.142 201.536 118.356 202.144 118.356 202.528C118.356 203.462 118.986 204.438 120.561 205.946C121.28 206.634 121.973 207.617 122.101 208.13C122.764 210.778 123.323 210.993 124.664 209.11L125.416 208.054L125.417 209.075C125.418 209.854 125.882 210.487 127.38 211.75C128.459 212.66 129.342 213.556 129.342 213.741C129.342 213.926 128.497 213.364 127.465 212.493C125.906 211.179 125.341 210.91 124.13 210.91C122.802 210.91 122.672 210.993 122.667 211.834C122.664 212.343 122.555 213.099 122.425 213.514C122.235 214.12 122.35 214.27 122.999 214.27C123.445 214.27 123.951 214.477 124.124 214.73C124.296 214.983 125.144 215.499 126.007 215.875C127.951 216.724 129.553 218.176 129.888 219.394C130.028 219.902 130.405 220.318 130.726 220.318C131.664 220.318 136.127 224.004 137.092 225.575C137.577 226.366 138.165 228.19 138.397 229.629C138.63 231.068 138.934 232.472 139.073 232.749C139.212 233.026 139.341 234.16 139.359 235.269C139.406 238.2 140.135 239.975 141.918 241.502C143.245 242.639 143.351 242.829 142.656 242.829C141.316 242.829 140.409 242.226 139.292 240.594C138.382 239.265 138.213 238.596 138.104 235.895C137.929 231.593 137.24 230.454 132.211 226.158C128.651 223.117 128.165 222.563 128.165 221.551C128.165 219.508 126.334 219.128 125.261 220.946C124.522 222.196 124.297 223.654 124.189 227.877C124.107 231.115 123.964 231.802 123.037 233.421C122.081 235.09 121.961 235.724 121.793 239.973C121.638 243.901 121.436 245.108 120.57 247.291C120 248.728 119.533 250.483 119.533 251.189C119.533 251.894 119.347 252.929 119.12 253.487C118.893 254.046 118.76 255.391 118.825 256.477L118.945 258.452L119.468 256.94C120.678 253.446 122.256 251.842 123.792 252.546C124.876 253.043 126.203 254.555 126.203 255.294C126.203 256.135 124.832 256.695 123.418 256.428C121.915 256.146 121.368 256.552 120.128 258.871C118.943 261.087 118.071 264.15 117.571 267.849C116.785 273.659 116.281 276.009 115.365 278.138C114.841 279.357 114.252 281.171 114.058 282.17C113.497 285.048 111.045 291.971 110.1 293.342C109.462 294.268 109.166 295.416 108.958 297.764L108.678 300.936L105.628 303.465C102.593 305.98 102.567 305.993 100.449 305.993C99.0722 305.993 98.2526 306.146 98.127 306.427C97.7845 307.191 99.6855 309.828 100.962 310.361C101.626 310.638 102.501 311.392 102.906 312.037C103.744 313.37 105.016 313.818 105.016 312.779C105.016 312.418 105.237 311.971 105.506 311.785C106.04 311.417 107.514 311.761 107.942 312.353C108.084 312.551 108.628 312.713 109.15 312.713C109.703 312.713 110.341 313.031 110.681 313.475C111.471 314.507 110.784 316.198 108.82 318.06C107.139 319.654 107.263 320.321 109.455 321.465C111.185 322.368 111.686 322.293 111.686 321.131C111.686 319.956 113.285 318.193 114.005 318.574C114.368 318.766 114.283 319.022 113.671 319.579C112.891 320.291 112.884 320.352 113.544 320.842C113.925 321.125 114.825 321.451 115.545 321.568C116.264 321.684 117.373 322.096 118.008 322.483C118.643 322.871 119.755 323.328 120.478 323.499C121.202 323.67 122.451 324.257 123.255 324.804C125.007 325.997 126.652 326.307 129.564 325.996C132.011 325.734 132.873 326.089 132.873 327.359C132.873 327.9 133.873 328.991 136.072 330.845C137.83 332.33 139.413 333.544 139.589 333.544C139.764 333.544 140.097 333.241 140.328 332.872C140.827 332.074 141.614 332.006 142.29 332.704C143.109 333.549 145.252 333.338 146.112 332.329C146.859 331.449 146.86 331.449 148.204 332.045C150.316 332.98 151.704 333.882 154.513 336.145C155.949 337.301 157.283 338.248 157.479 338.248C157.674 338.248 158.177 338.025 158.596 337.754C159.015 337.483 160.098 337.256 161.002 337.25C161.906 337.244 162.755 337.088 162.889 336.904C163.275 336.369 165.684 336.515 166.259 337.108C166.546 337.404 166.97 337.971 167.199 338.367C167.429 338.763 168.009 339.136 168.49 339.195C169.188 339.281 169.363 339.138 169.363 338.48C169.363 336.775 171.102 336.554 172.291 338.108C172.945 338.962 174.426 339.119 177.014 338.607C177.699 338.472 178.835 338.561 179.733 338.821C181.842 339.433 182.157 339.016 181.131 336.973L180.282 335.283L181.047 333.801C181.574 332.78 182.188 332.186 183.019 331.891C184.118 331.501 184.344 331.541 185.561 332.335C186.296 332.815 187.158 333.208 187.478 333.208C187.798 333.208 188.454 333.568 188.937 334.008C189.553 334.569 190.422 334.869 191.85 335.013C196.625 335.493 196.873 335.57 197.451 336.755C197.921 337.718 198.236 337.9 199.778 338.098C200.759 338.224 202.086 338.237 202.726 338.128C203.366 338.018 204.31 338.065 204.822 338.232C206.104 338.649 207.421 341.107 207.421 343.079C207.421 343.957 207.61 344.978 207.841 345.347C208.148 345.838 208.132 346.151 207.783 346.511C207.08 347.236 207.832 348.385 209.519 349.163L210.928 349.813L212.102 349.07C212.747 348.661 213.732 348.327 214.29 348.327C214.877 348.327 215.7 347.963 216.238 347.466C217.129 346.642 217.244 346.623 218.868 347.035C219.801 347.271 221.387 347.9 222.392 348.43C224.574 349.584 225.617 349.525 225.79 348.24C225.936 347.162 226.279 347.086 227.175 347.934C228.045 348.757 227.997 348.959 226.843 349.335C224.69 350.036 226.216 352.695 228.772 352.695C229.863 352.695 230.339 352.449 231.336 351.372C232.477 350.138 232.637 350.073 233.731 350.4C234.594 350.657 235.055 350.641 235.48 350.339C235.94 350.013 236.321 350.034 237.336 350.444C238.039 350.728 239.497 351.249 240.576 351.603C241.655 351.956 243.224 352.649 244.064 353.142C245.838 354.185 246.476 354.256 246.99 353.47C247.321 352.963 247.533 352.949 248.93 353.344C250.736 353.854 251.38 353.655 251.082 352.678C250.764 351.637 252.273 350.425 253.669 350.601C254.499 350.705 255.061 350.508 255.845 349.836C256.487 349.286 257.164 349.001 257.567 349.111C260.068 349.789 259.997 349.797 259.997 348.829C259.997 348.061 260.092 347.976 260.57 348.316C260.927 348.57 261.606 348.635 262.378 348.49C263.443 348.29 263.774 348.407 264.769 349.34C265.827 350.333 266.062 350.404 267.571 350.198C269.789 349.894 270.087 349.54 268.879 348.64C267.073 347.296 265.899 345.49 264.887 342.502L263.896 339.574L264.702 337.337L265.509 335.101L264.312 334.165C263.343 333.408 263.16 333.051 263.355 332.295C263.812 330.511 263.885 330.439 265.103 330.592C265.747 330.673 266.275 330.627 266.275 330.489C266.275 329.853 265.748 329.176 265.252 329.176C264.952 329.176 264.706 328.874 264.706 328.504C264.706 328.134 264.956 327.832 265.263 327.832C265.931 327.832 266.313 326.514 266.335 324.137C266.347 322.861 266.468 322.488 266.784 322.758C267.644 323.494 268.185 323.091 269.104 321.03C269.696 319.702 270.365 318.794 270.928 318.554C271.416 318.345 272.346 317.71 272.993 317.143C273.846 316.397 274.788 316.008 276.403 315.734C280.068 315.114 280.986 314.772 281.68 313.765C282.62 312.402 285.291 310.419 286.55 310.148C287.138 310.022 288.569 309.04 289.731 307.965C291.913 305.947 295.914 303.441 297.499 303.101C298.693 302.844 300.995 304.341 302 306.027C302.414 306.723 302.976 307.413 303.249 307.561C303.833 307.878 307.506 308.287 312.181 308.557C315.875 308.771 316.659 309.09 316.321 310.242C316.012 311.297 317.332 311.985 319.832 312.073C320.911 312.11 322.395 312.348 323.13 312.6C324.285 312.996 324.59 312.988 325.386 312.542C326.437 311.952 326.485 311.738 325.838 310.521C325.456 309.803 325.474 309.584 325.936 309.334C327.188 308.656 331.399 309.443 331.415 310.359C331.43 311.185 332.686 312.261 334.113 312.668C336.185 313.26 337.804 313.125 339.197 312.245C340.315 311.538 340.618 311.487 341.679 311.825C342.344 312.036 343.165 312.568 343.502 313.007C344.064 313.737 344.057 313.893 343.417 314.847C342.721 315.886 342.723 315.894 343.781 316.673C344.46 317.174 345.075 317.37 345.482 317.217C347.211 316.569 348.711 316.678 350.28 317.568C351.463 318.238 351.996 318.374 352.378 318.102C353.052 317.623 354.475 318.099 355.676 319.205C356.185 319.673 356.849 319.974 357.152 319.875C357.965 319.608 358.958 320.456 358.725 321.219C358.508 321.931 359.805 323.098 360.837 323.117C361.639 323.132 362.494 321.888 362.209 321.12C361.886 320.248 362.632 319.968 363.651 320.58C364.15 320.879 364.891 321.012 365.423 320.898C365.925 320.79 366.582 320.876 366.882 321.089C367.184 321.304 367.87 321.383 368.414 321.265C369.167 321.104 369.504 321.219 369.839 321.755C370.217 322.359 370.167 322.456 369.479 322.456C368.468 322.456 368.447 322.998 369.439 323.453C370.285 323.84 371.945 323.916 372.332 323.585C372.47 323.467 372.297 322.955 371.946 322.447C371.101 321.222 371.422 320.66 373.264 320.14C374.652 319.747 374.928 319.776 376.265 320.452C377.902 321.279 377.902 321.279 378.818 319.718C379.177 319.107 379.912 318.423 380.451 318.2C385.197 316.235 384.801 316.331 385.6 316.95C386.611 317.733 388.298 317.116 388.298 315.964C388.298 315.527 388.651 314.895 389.083 314.561C389.514 314.227 389.868 313.755 389.868 313.513C389.868 312.864 388.366 312.29 387.281 312.523C385.828 312.835 386.16 312.169 387.866 311.347C389.535 310.544 390.172 309.729 390.344 308.177C390.444 307.279 390.585 307.179 391.633 307.258C392.281 307.307 393.569 307.172 394.496 306.958C395.892 306.636 396.313 306.336 396.948 305.21C397.37 304.463 397.715 303.679 397.715 303.469C397.715 303.033 399.358 301.625 399.867 301.625C400.052 301.625 400.535 301.368 400.94 301.054C401.554 300.579 401.876 300.547 402.857 300.864C404.342 301.344 404.7 300.782 404.046 298.992C403.644 297.889 403.683 297.701 404.427 297.174C404.883 296.851 405.495 296.586 405.786 296.586C406.078 296.586 406.632 296.305 407.018 295.961C408.016 295.073 409.673 294.794 410.273 295.413C410.962 296.123 411.742 296.033 412.048 295.208C412.192 294.82 413.263 293.68 414.429 292.674C416.501 290.885 416.947 290.117 416.156 289.698C415.569 289.388 415.682 288.326 416.352 287.85C416.675 287.62 416.94 287.142 416.94 286.787C416.94 286.432 417.715 285.43 418.662 284.56C420.94 282.467 422.343 279.945 421.714 279.075C420.82 277.84 420.516 277.255 420.288 276.328C419.989 275.117 419.093 274.841 417.719 275.536C417.116 275.842 416.287 276.091 415.877 276.091C415.467 276.091 414.523 276.476 413.779 276.946C411.932 278.114 410.141 277.816 406.289 275.701C404.147 274.526 402.53 273.918 400.642 273.58C399.187 273.319 397.865 272.984 397.705 272.834C396.206 271.436 393.684 268.501 393.367 267.787C393.054 267.082 393.098 266.834 393.577 266.605C394.419 266.201 394.339 265.745 393.203 264.47C391.946 263.059 391.969 262.681 393.399 261.14C394.046 260.442 394.577 259.552 394.578 259.161C394.579 258.087 395.964 256.365 397.305 255.772C398.483 255.25 398.91 254.173 398.107 253.748C397.891 253.634 397.715 252.903 397.715 252.123C397.715 250.102 396.03 248.54 393.85 248.54C391.119 248.54 386.944 246.241 387.721 245.165C388.24 244.446 387.421 242.77 386.252 242.162C385.599 241.822 384.656 240.927 384.156 240.174L383.248 238.805L384.095 238.297C384.561 238.017 385.197 237.789 385.51 237.789C385.823 237.789 386.374 237.56 386.735 237.28C387.322 236.826 387.55 236.828 388.881 237.305C390.951 238.045 391.862 237.739 393.632 235.709C394.763 234.412 395.505 233.892 396.465 233.724C398.958 233.289 400.413 231.242 399.3 229.735C399.049 229.396 399.183 228.897 399.726 228.144C400.925 226.483 400.652 226.093 395.619 222.281C394.22 221.221 394.106 220.996 394.02 219.133L393.928 217.126L391.125 215.855C388.6 214.71 388.279 214.449 387.895 213.227C387.229 211.109 387.517 209.758 388.663 209.619C390.065 209.449 393.742 207.585 394.237 206.792C395.186 205.276 392.644 201.032 390.5 200.554C389.414 200.311 389.276 200.142 389.252 199.018C389.227 197.866 389.079 197.698 387.585 197.125C386.682 196.779 385.944 196.28 385.944 196.017C385.944 195.252 387.019 193.258 387.687 192.783C388.585 192.145 388.441 191.483 387.121 190.196C385.878 188.984 385.708 188.397 386.318 187.421C386.796 186.656 385.947 185.568 384.306 184.841C383.332 184.41 382.409 184.356 379.37 184.551C375.896 184.774 375.532 184.867 374.216 185.876C373.432 186.477 372.143 187.064 371.328 187.192C369.223 187.521 367.896 188.863 367.896 190.661C367.896 191.726 368.095 192.196 368.68 192.509C369.976 193.202 369.589 193.998 367.09 195.779C365.035 197.244 364.485 197.471 362.999 197.471C361.612 197.471 361.126 197.301 360.469 196.586C360.022 196.099 359.656 195.602 359.656 195.482C359.656 195.362 360.76 194.816 362.108 194.268C364.396 193.338 364.564 193.193 364.62 192.095C364.652 191.449 364.798 190.538 364.943 190.072C365.146 189.42 364.921 188.919 363.963 187.888C362.911 186.756 362.752 186.351 362.925 185.24C363.037 184.519 363.521 183.475 364 182.92C364.763 182.036 364.814 181.779 364.414 180.831C364.163 180.237 364.065 179.513 364.195 179.222C364.451 178.649 367.878 176.314 369.465 175.63C370.005 175.398 371.188 174.694 372.095 174.067C373.549 173.06 373.746 172.759 373.764 171.507C373.776 170.727 373.823 169.333 373.868 168.409C373.913 167.485 373.81 166.476 373.639 166.167C373.21 165.391 374.657 164.209 376.037 164.207C376.675 164.206 377.918 163.687 379.078 162.936C380.62 161.938 381.125 161.368 381.437 160.267C381.752 159.159 382.633 158.171 385.655 155.537C387.756 153.706 389.475 151.942 389.475 151.617C389.475 151.292 390.005 150.509 390.652 149.878C391.3 149.247 391.829 148.418 391.829 148.037C391.829 147.387 391.68 147.359 389.475 147.578C386.672 147.856 386.466 147.514 388.465 145.899C389.378 145.162 389.851 144.448 389.937 143.676C390.056 142.603 390.154 142.534 391.633 142.474C392.496 142.439 393.633 142.363 394.159 142.306C394.902 142.225 395.168 142.389 395.353 143.038C395.644 144.066 398.017 145.51 398.87 145.179C399.206 145.05 400.275 144.876 401.246 144.794C403.619 144.592 405.249 143.597 404.939 142.54C404.74 141.863 404.867 141.733 405.821 141.639C406.816 141.542 406.96 141.371 407.168 140.036C407.296 139.214 407.605 138.483 407.855 138.412C408.642 138.187 408.35 137.178 407.147 135.974C405.924 134.748 405.655 133.689 406.404 133.048C406.741 132.759 406.729 132.284 406.355 131.138C405.923 129.818 405.941 129.502 406.491 128.783C406.84 128.327 407.121 127.607 407.116 127.182C407.1 125.899 407.599 124.099 408.166 123.396C408.925 122.455 408.837 121.942 407.72 120.806C406.611 119.677 406.401 117.742 407.27 116.658C407.562 116.294 407.898 115.358 408.016 114.579C408.134 113.8 408.601 112.759 409.054 112.266C409.507 111.773 409.878 110.895 409.878 110.316C409.878 109.737 410.319 108.708 410.858 108.029C411.665 107.011 411.769 106.64 411.446 105.913C410.7 104.234 411.295 102.09 413.098 99.9602C413.5 99.4855 413.466 99.2019 412.911 98.3966C411.962 97.0221 412.017 96.8464 413.943 95.066C415.87 93.2846 416.548 92.3193 416.548 91.3578C416.548 90.9361 417.244 90.3165 418.48 89.6372C419.542 89.0536 420.64 88.34 420.92 88.0514C421.6 87.3488 422.42 85.2845 422.43 84.245C422.434 83.783 422.789 82.9515 423.218 82.3971C423.647 81.8427 423.999 81.2884 424 81.1651C424.002 81.0417 423.105 80.776 422.008 80.5744C420.91 80.3728 419.272 79.8366 418.368 79.3827C416.845 78.6183 416.36 78.5599 411.829 78.5948C407.392 78.6287 406.734 78.5538 404.777 77.7918C403.427 77.2656 402.135 76.4301 401.326 75.5585C399.606 73.7062 398.412 73.7419 395.625 75.7275C394.384 76.6115 392.375 76.7623 390.258 76.1307C389.163 75.8038 388.889 75.8297 388.489 76.2987C387.756 77.1575 387.232 76.9602 386.961 75.7235C386.628 74.2025 385.549 73.4485 383.41 73.2423C381.646 73.0719 381.628 73.0803 381.628 74.0809C381.628 76.4721 378.942 76.3249 377.345 73.8457C376.82 73.0309 375.45 71.5264 374.301 70.5023C372.779 69.146 372.212 68.3813 372.212 67.6875C372.212 67.0215 371.688 66.2602 370.472 65.1585C368.878 63.7131 368.576 63.5808 366.843 63.566C365.6 63.5556 364.483 63.2975 363.58 62.8114C362.824 62.4051 361.909 62.0722 361.545 62.0715C360.416 62.0692 358.721 62.7475 357.631 63.6379C356.734 64.3707 356.364 64.459 355.013 64.2635C354.148 64.1385 353.351 63.8385 353.243 63.5976C353.135 63.3563 352.195 62.9111 351.153 62.6081C350.111 62.3054 348.97 61.7322 348.618 61.3347C348.042 60.6839 347.859 60.654 346.79 61.0333C346.137 61.2648 345.17 61.4056 344.641 61.3465C344.112 61.287 343.362 61.4634 342.974 61.7382C342.587 62.0131 341.723 62.2671 341.056 62.3023C340.388 62.3376 339.419 62.4132 338.902 62.4703C338.099 62.559 337.87 62.348 337.333 61.0202C336.509 58.9872 335.924 58.4372 334.31 58.1778C333.576 58.0599 332.976 57.8408 332.976 57.6907C332.976 57.1289 330.918 55.3505 330.268 55.3505C329.896 55.3505 329.079 54.8926 328.453 54.3325C326.719 52.783 322.997 51.3188 320.792 51.3188C319.461 51.3188 318.867 51.1682 318.697 50.7872C318.296 49.8925 318.43 49.0697 319.047 48.6309C319.943 47.9942 319.759 47.2604 318.406 46.0647L317.176 44.9781L317.817 43.6059C318.17 42.851 318.459 41.7261 318.459 41.1056C318.459 40.4853 318.723 39.7895 319.047 39.5594C319.842 38.9943 319.788 38.1019 318.918 37.4276C317.821 36.5772 317.32 36.7324 315.281 38.5528C313.592 40.0613 313.387 40.4134 313.28 41.9768C313.167 43.6426 313.104 43.7323 311.845 44.0101C311.121 44.1701 309.827 44.6979 308.971 45.183C307.484 46.026 307.323 46.0465 305.383 45.646C304.267 45.4152 302.293 45.1206 300.999 44.9912C298.132 44.7049 297.796 44.5369 297.459 43.2222C297.247 42.3964 297.36 42.0897 298.017 41.6949C299.104 41.0431 299.056 40.2609 297.833 38.7184L296.826 37.4474L298.03 36.0127C299.743 33.969 299.505 32.5037 297.457 32.5037C296.586 32.5037 295.337 31.5257 294.56 30.2359C294.035 29.3647 292.99 29.2736 291.432 29.9634C290.491 30.38 290.126 30.382 288.803 29.9782C287.958 29.7205 286.688 29.5028 285.981 29.4947C284.95 29.4829 284.62 29.6526 284.307 30.3565C283.673 31.7858 282.869 30.797 282.688 28.3644C282.503 25.8825 281.305 24.1042 279.817 24.1042C278.515 24.1042 277.653 23.7696 277.653 23.2642C277.653 22.4804 276.391 22.3759 275.507 23.0868C274.332 24.0323 273.204 23.9386 271.855 22.7831C270.695 21.7899 270.216 20.2505 270.186 17.4215C270.175 16.4196 269.77 15.8286 267.858 14.0247C265.754 12.0404 265.469 11.8791 264.737 12.2608C264.294 12.492 263.59 12.6808 263.171 12.6808C262.239 12.6808 259.997 14.2441 259.997 14.8946C259.997 16.1434 256.192 14.4917 254.557 12.533C253.831 11.6631 252.828 10.7916 252.327 10.5964C250.882 10.0326 249.658 6.45034 250.784 6.08042C251.693 5.7814 251.478 5.03989 250.002 3.38349C249.027 2.28987 248.732 1.69754 248.968 1.30377C249.82 -0.118448 248.586 -0.416128 246.069 0.603914ZM75.0745 83.7901C74.5354 84.2517 74.8147 84.9647 75.4911 84.8531C75.869 84.7906 76.1778 84.5276 76.1778 84.2685C76.1778 83.738 75.4856 83.438 75.0745 83.7901ZM105.59 95.9731C105.774 96.2332 105.894 97.1027 105.859 97.905C105.824 98.7077 105.972 99.3642 106.19 99.3642C106.882 99.3642 106.654 96.4701 105.922 95.9614C105.356 95.5686 105.307 95.5703 105.59 95.9731ZM55.0885 131.537C54.1328 131.719 54.232 132.18 55.3636 132.815C56.2946 133.337 57.9331 133.229 57.9331 132.645C57.9331 131.999 56.2024 131.325 55.0885 131.537ZM65.8521 138.185C65.971 139.391 66.9958 140.433 67.5757 139.936C67.9339 139.63 66.782 137.224 66.197 137.057C65.8752 136.965 65.7669 137.319 65.8521 138.185ZM61.726 143.266C60.631 144.204 63.0915 147.315 64.6515 146.965C65.1062 146.864 65.7877 146.946 66.166 147.148C67.0068 147.598 68.1344 147.278 68.1344 146.589C68.1344 146.311 67.6491 145.866 67.0554 145.6C66.4618 145.335 65.4578 144.651 64.8241 144.08C63.7522 143.114 62.3369 142.743 61.726 143.266ZM92.0529 159.352C91.3188 160.11 91.9654 161.492 93.3921 162.212C94.1065 162.573 94.8979 163.258 95.1506 163.733C95.4037 164.208 95.829 164.536 96.0954 164.461C96.9723 164.214 96.835 162.976 95.8156 161.939C95.2652 161.378 94.8147 160.696 94.8147 160.422C94.8147 159.423 92.7568 158.627 92.0529 159.352ZM88.1454 171.096C87.881 171.369 87.7601 171.805 87.8771 172.066C88.1443 172.662 90.713 173.411 91.5491 173.136C92.1181 172.949 92.1189 172.877 91.5593 172.349C91.2207 172.03 90.4223 171.505 89.7851 171.184C88.7685 170.671 88.5672 170.66 88.1454 171.096ZM113.429 191.9C112.682 192.367 112.686 192.394 113.613 193.239C114.132 193.713 115.192 194.2 115.967 194.321C116.741 194.443 118.104 194.986 118.993 195.529C120.093 196.2 120.972 196.481 121.739 196.406C123.453 196.238 123.121 195.464 120.71 194.012C118.892 192.918 118.321 192.739 117.083 192.876C115.693 193.03 115.627 192.995 115.85 192.231C116.051 191.545 115.944 191.423 115.139 191.423C114.617 191.423 113.848 191.638 113.429 191.9ZM143.859 242.973C143.859 243.065 144.213 243.303 144.644 243.501C145.076 243.698 145.429 243.784 145.429 243.692C145.429 243.6 145.076 243.362 144.644 243.165C144.213 242.967 143.859 242.881 143.859 242.973ZM331.877 305.052C331.181 305.649 331.304 306.482 332.191 307.169C332.623 307.503 332.976 307.981 332.976 308.229C332.976 308.531 333.531 308.694 334.643 308.721C337.107 308.78 337.421 308.711 338.187 307.939C339.178 306.942 338.829 306.497 337.059 306.497C335.99 306.497 335.099 306.217 334.116 305.573C332.498 304.513 332.505 304.515 331.877 305.052ZM381.398 322.395C380.732 322.891 379.85 323.477 379.436 323.699C378.785 324.048 378.763 324.149 379.274 324.458C380.44 325.164 381.783 324.712 382.558 323.353C383.506 321.692 382.954 321.236 381.398 322.395ZM372.608 323.964C371.963 324.63 372.387 325.48 373.362 325.48C374.362 325.48 375.101 324.393 374.469 323.852C373.854 323.325 373.189 323.365 372.608 323.964Z" fill="url(#paint0_linear_282_96)"/>
<path d="M293 110.417C285.281 110.417 279 116.548 279 124.075C278.949 135.085 292.468 144.214 293 144.583C293 144.583 307.051 135.085 307 124.083C307 116.548 300.719 110.417 293 110.417ZM293 130.917C289.133 130.917 286 127.859 286 124.083C286 120.308 289.133 117.25 293 117.25C296.868 117.25 300 120.308 300 124.083C300 127.859 296.868 130.917 293 130.917Z" fill="white"/>
<path fill-rule="evenodd" clip-rule="evenodd" d="M295.111 118.021C293.834 118.074 292.639 119.409 292.911 120.47C294.062 120.575 295.229 119.284 295.111 118.021ZM297.219 126.321C296.923 126.982 296.503 127.572 295.988 128.103C295.519 128.588 294.935 128.736 294.308 128.472C293.465 128.112 292.654 128.112 291.814 128.475C291.198 128.741 290.637 128.591 290.172 128.116C289.155 127.089 288.534 125.866 288.319 124.452C288.187 123.577 288.25 122.73 288.702 121.944C289.199 121.086 289.96 120.605 290.963 120.55C291.305 120.533 291.678 120.608 291.989 120.745C292.618 121.026 293.207 121.017 293.838 120.741C294.57 120.421 295.344 120.417 296.072 120.751C296.103 120.765 296.134 120.78 296.164 120.796L296.164 120.796C296.183 120.805 296.201 120.815 296.22 120.824C296.099 120.93 296.057 121.107 296.132 121.258C296.172 121.348 296.214 121.438 296.257 121.526C296.27 121.55 296.264 121.564 296.243 121.582L296.188 121.636C296.097 121.725 296.005 121.814 295.917 121.906C295.869 121.959 295.826 122.011 295.786 122.067L295.467 121.955C295.271 121.889 295.054 121.983 294.975 122.17C294.921 122.305 294.871 122.44 294.823 122.575L294.823 122.575L294.823 122.575C294.821 122.581 294.819 122.586 294.818 122.59C294.752 122.783 294.86 122.993 295.062 123.056C295.091 123.067 295.121 123.078 295.15 123.089C295.214 123.112 295.277 123.135 295.34 123.156C295.369 123.165 295.369 123.174 295.369 123.201C295.346 123.41 295.354 123.62 295.392 123.826C295.396 123.852 295.392 123.866 295.365 123.879C295.3 123.905 295.237 123.934 295.172 123.963L295.172 123.963C295.145 123.976 295.118 123.988 295.09 124C294.894 124.088 294.808 124.311 294.894 124.502L295.071 124.886C295.073 124.894 295.075 124.9 295.079 124.905C295.169 125.089 295.398 125.167 295.588 125.077L295.863 124.956C295.876 124.943 295.899 124.943 295.915 124.956C295.93 124.972 295.946 124.989 295.961 125.006C296.006 125.055 296.05 125.104 296.099 125.147C296.166 125.207 296.236 125.264 296.308 125.323L296.308 125.323C296.342 125.351 296.377 125.38 296.412 125.409C296.378 125.505 296.335 125.608 296.293 125.705C296.218 125.898 296.316 126.113 296.516 126.184C296.652 126.237 296.789 126.286 296.927 126.334C296.928 126.335 296.93 126.336 296.931 126.337L296.935 126.338C297.033 126.366 297.133 126.359 297.219 126.321ZM297.654 124.907C297.711 124.579 297.742 124.223 297.742 123.852C297.742 123.139 297.625 122.483 297.435 121.981C296.77 122.142 296.276 122.729 296.278 123.427C296.278 124.203 296.881 124.836 297.654 124.907Z" fill="white"/>
<path d="M167.5 226.417C159.965 226.417 153.833 232.548 153.833 240.075C153.784 251.085 166.981 260.214 167.5 260.583C167.5 260.583 181.216 251.085 181.167 240.083C181.167 232.548 175.035 226.417 167.5 226.417ZM167.5 246.917C163.725 246.917 160.667 243.859 160.667 240.083C160.667 236.308 163.725 233.25 167.5 233.25C171.275 233.25 174.333 236.308 174.333 240.083C174.333 243.859 171.275 246.917 167.5 246.917Z" fill="white"/>
<path fill-rule="evenodd" clip-rule="evenodd" d="M169.561 234.021C168.314 234.074 167.147 235.409 167.414 236.47C168.537 236.575 169.676 235.284 169.561 234.021ZM171.619 242.321C171.33 242.982 170.919 243.572 170.417 244.103C169.959 244.588 169.389 244.736 168.777 244.472C167.954 244.112 167.162 244.112 166.343 244.475C165.741 244.741 165.193 244.591 164.739 244.116C163.747 243.089 163.141 241.866 162.931 240.452C162.801 239.577 162.863 238.73 163.304 237.944C163.79 237.086 164.533 236.605 165.512 236.55C165.846 236.533 166.209 236.608 166.513 236.745C167.127 237.026 167.702 237.017 168.318 236.741C169.032 236.421 169.788 236.417 170.499 236.751C170.529 236.765 170.559 236.78 170.589 236.796L170.589 236.796C170.607 236.805 170.625 236.815 170.644 236.824C170.525 236.93 170.484 237.107 170.557 237.258C170.597 237.348 170.638 237.438 170.679 237.526C170.692 237.55 170.687 237.564 170.666 237.582L170.612 237.636L170.612 237.636C170.523 237.725 170.433 237.814 170.347 237.906C170.3 237.959 170.259 238.011 170.22 238.067L169.908 237.955C169.717 237.889 169.505 237.983 169.428 238.17C169.376 238.305 169.327 238.44 169.28 238.575L169.28 238.575L169.28 238.575C169.278 238.581 169.276 238.586 169.274 238.59C169.21 238.783 169.316 238.993 169.512 239.056C169.541 239.067 169.57 239.078 169.599 239.088L169.599 239.089L169.599 239.089C169.661 239.112 169.723 239.135 169.784 239.156C169.813 239.165 169.813 239.174 169.813 239.201C169.79 239.41 169.798 239.62 169.835 239.826C169.839 239.852 169.835 239.866 169.809 239.879C169.746 239.905 169.683 239.934 169.621 239.963L169.621 239.963C169.594 239.976 169.567 239.988 169.541 240C169.349 240.088 169.265 240.311 169.349 240.502L169.522 240.886C169.524 240.894 169.526 240.9 169.529 240.905C169.618 241.089 169.841 241.167 170.026 241.077L170.295 240.956C170.308 240.943 170.33 240.943 170.345 240.956C170.361 240.972 170.376 240.989 170.391 241.006L170.391 241.006C170.434 241.055 170.478 241.104 170.525 241.147C170.591 241.207 170.659 241.264 170.729 241.323C170.763 241.351 170.797 241.38 170.831 241.409C170.797 241.505 170.756 241.608 170.715 241.705C170.642 241.898 170.737 242.113 170.932 242.184C171.066 242.237 171.199 242.286 171.334 242.334C171.335 242.335 171.336 242.336 171.338 242.337L171.341 242.338C171.437 242.366 171.534 242.359 171.619 242.321ZM172.043 240.907C172.099 240.579 172.129 240.223 172.129 239.852C172.129 239.139 172.015 238.483 171.829 237.981C171.18 238.142 170.698 238.729 170.7 239.427C170.7 240.203 171.289 240.836 172.043 240.907Z" fill="white"/>
<path d="M315 128H432" stroke="#3E3E3E" stroke-width="3" stroke-linecap="round" stroke-linejoin="round" stroke-dasharray="8 8"/>
<path d="M2 243H146" stroke="#3E3E3E" stroke-width="3" stroke-linecap="round" stroke-linejoin="round" stroke-dasharray="8 8"/>
<defs>
<linearGradient id="paint0_linear_282_96" x1="273.621" y1="309.272" x2="322.565" y2="15.703" gradientUnits="userSpaceOnUse">
<stop stop-color="#E65411"/>
<stop offset="1" stop-color="#FF7C40"/>
</linearGradient>
</defs>
</svg>
