<svg width="83" height="103" viewBox="0 0 83 103" fill="none" xmlns="http://www.w3.org/2000/svg">
<circle cx="43" cy="40" r="25" fill="white"/>
<path d="M41.5 0.25C18.8936 0.25 0.49999 18.6436 0.49999 41.2244C0.351365 74.255 39.942 101.643 41.5 102.75C41.5 102.75 82.6486 74.255 82.5 41.25C82.5 18.6436 64.1064 0.25 41.5 0.25ZM41.5 61.75C30.1737 61.75 21 52.5763 21 41.25C21 29.9237 30.1737 20.75 41.5 20.75C52.8262 20.75 62 29.9237 62 41.25C62 52.5763 52.8262 61.75 41.5 61.75Z" fill="#E65411"/>
<path fill-rule="evenodd" clip-rule="evenodd" d="M47.6837 23.0645C43.9417 23.2218 40.4417 27.2284 41.2407 30.4089C44.6113 30.7236 48.0269 26.8519 47.6837 23.0645ZM53.8566 47.9637C52.99 49.9473 51.7577 51.7174 50.2496 53.3076C48.8766 54.7631 47.166 55.207 45.3316 54.4147C42.8614 53.3357 40.4868 53.3357 38.0278 54.4259C36.2215 55.2238 34.5784 54.7743 33.2167 53.347C30.24 50.2676 28.4225 46.5982 27.7922 42.3556C27.404 39.7314 27.5897 37.1915 28.912 34.8313C30.3694 32.2577 32.5977 30.8135 35.535 30.6506C36.5366 30.6 37.6282 30.8248 38.5398 31.235C40.3799 32.0779 42.1073 32.0498 43.953 31.2237C46.0969 30.2628 48.3646 30.2516 50.4972 31.2518C50.5885 31.2939 50.6775 31.3403 50.7671 31.387C50.8212 31.4152 50.8755 31.4435 50.9305 31.471C50.576 31.7913 50.4522 32.3195 50.6717 32.7747C50.7898 33.0444 50.9136 33.3141 51.0374 33.5782C51.0768 33.6513 51.0599 33.6906 50.998 33.7468L50.8373 33.907L50.8372 33.9071C50.5689 34.1743 50.2993 34.4427 50.0414 34.719C49.9008 34.8763 49.777 35.0336 49.6588 35.2022L48.7247 34.8651C48.1508 34.6684 47.5149 34.9493 47.2842 35.5113C47.1267 35.9159 46.9803 36.3205 46.8397 36.7251C46.834 36.7419 46.8284 36.7588 46.8228 36.77C46.6315 37.3488 46.9466 37.9782 47.5374 38.1692C47.6241 38.201 47.7102 38.2334 47.796 38.2656C47.983 38.3358 48.1682 38.4054 48.3533 38.467C48.4377 38.4951 48.4378 38.5232 48.4378 38.6019C48.3702 39.2313 48.3927 39.8606 48.5053 40.4788C48.5165 40.5574 48.5053 40.5968 48.4265 40.6361C48.2368 40.715 48.0498 40.8023 47.8617 40.8901L47.8616 40.8901C47.782 40.9273 47.7022 40.9646 47.6218 41.0014C47.0479 41.2655 46.7947 41.9342 47.0479 42.5073L47.5656 43.6593C47.5712 43.6818 47.5768 43.6986 47.5881 43.7155C47.8525 44.2662 48.5222 44.5022 49.0792 44.2325L49.8839 43.8672C49.9233 43.8279 49.9908 43.8279 50.0358 43.8672C50.0815 43.9171 50.1265 43.9675 50.1714 44.0176L50.1717 44.018L50.1717 44.018C50.3033 44.1651 50.4334 44.3105 50.576 44.4404C50.773 44.622 50.9777 44.7934 51.1866 44.9684L51.1866 44.9684L51.1867 44.9685C51.288 45.0533 51.3903 45.139 51.4932 45.2271C51.3919 45.5137 51.2681 45.8227 51.1444 46.1149C50.9249 46.6937 51.2119 47.3399 51.7971 47.5535C52.1966 47.7108 52.5961 47.8569 53.0013 48.003C53.0027 48.0045 53.0042 48.0055 53.0057 48.0064C53.0079 48.0077 53.0102 48.0086 53.013 48.0096C53.016 48.0108 53.0195 48.0121 53.0238 48.0143C53.3107 48.0985 53.6034 48.0761 53.8566 47.9637ZM55.1283 43.721C55.2971 42.7377 55.3871 41.67 55.3871 40.5574C55.3871 38.4164 55.0439 36.4496 54.4868 34.9437C52.5399 35.4269 51.0937 37.1858 51.0993 39.2818C51.0993 41.6082 52.8662 43.5075 55.1283 43.721Z" fill="#E65411"/>
</svg>
