<svg width="234" height="32" viewBox="0 0 234 32" fill="none" xmlns="http://www.w3.org/2000/svg">
<g clip-path="url(#clip0_5_36)">
<path d="M231.702 28.4756H132.002C130.733 28.4756 129.704 27.4487 129.704 26.1812V2.54443C129.704 1.27692 130.733 0.25 132.002 0.25H231.702C232.972 0.25 234 1.27692 234 2.54443V26.1841C234 27.4487 232.972 28.4756 231.702 28.4756Z" fill="#E65411"/>
<path d="M17.2876 11.5197C17.2876 18.8783 10.724 18.6142 8.84654 18.6142C8.12378 18.6142 5.18864 18.6142 4.2984 18.6142V24.139H0V4.41046H4.2984V4.42807C5.34729 4.4222 7.68894 4.41046 8.85829 4.41046C11.2323 4.41046 17.2876 4.42807 17.2876 11.5197ZM13.2625 11.5138C13.2625 8.1103 10.5036 8.11911 9.06984 8.11911C8.28243 8.11911 5.46482 8.11911 4.29546 8.11911V14.9144C5.25915 14.9144 8.62619 14.9144 9.00226 14.9144C10.1452 14.9144 13.2625 15.0787 13.2625 11.5138Z" fill="#E65411"/>
<path d="M31.4903 8.72352L30.8057 12.7725C30.4061 12.661 29.3191 12.4204 27.9617 12.4204C24.7768 12.4204 23.8249 14.9026 23.8249 17.0445V24.139H19.5294V8.32449H23.8278V10.6483H24.0952C24.9766 9.13429 25.955 8.32449 28.6756 8.32449C29.8303 8.32449 30.747 8.56215 31.4903 8.72352Z" fill="#E65411"/>
<path d="M48.6398 17.2264H36.0061C36.2999 19.3389 37.5662 20.3893 40.3456 20.3893C42.9106 20.3893 44.1827 19.6764 44.5764 18.6377H48.7368C48.296 22.0324 45.5489 24.142 40.3456 24.142C34.9161 24.142 31.834 21.4163 31.834 16.1555C31.834 10.9916 34.9954 8.16901 40.3456 8.16901C42.5874 8.16901 44.3678 8.72941 45.7076 9.65951C45.7076 9.65657 45.7076 9.65657 45.7076 9.65364C48.7691 11.7133 49.0423 15.0611 48.7985 17.2294L48.6398 17.2264ZM36.1706 14.3921H44.5294C44.1769 13.2068 43.4012 11.9158 40.3427 11.9158C37.9717 11.9158 36.6671 12.7901 36.1706 14.3921Z" fill="#E65411"/>
<path d="M66.2184 19.4504C66.2184 23.3733 63.4037 24.1391 58.5412 24.1391C54.9626 24.1391 52.5034 23.4906 51.2312 22.2084C50.1353 21.1052 50.1471 19.7702 50.153 18.9722L50.1559 18.6641H54.566V18.7991C54.566 20.1517 55.5737 20.7532 58.4295 20.7532C60.1483 20.7532 61.7966 20.539 61.7966 19.5091C61.7966 18.3208 60.2599 18.0949 58.5559 17.8954C58.3267 17.869 58.0975 17.8426 57.883 17.8132C53.329 17.2118 50.5085 16.2054 50.5085 13.0542C50.5085 10.8478 51.7836 8.21594 57.8625 8.21594C64.4232 8.21594 65.8011 11.1177 65.8011 13.5501V13.685H61.4293V13.5501C61.4293 12.306 60.3686 11.6459 57.8625 11.6459C55.4621 11.6459 54.9597 12.5143 54.9597 13.0014C54.9597 13.6968 55.4503 14.087 58.2092 14.5007L58.5647 14.5535C62.1491 15.0875 66.2184 15.6919 66.2184 19.4504Z" fill="#E65411"/>
<path d="M73.6075 17.602V17.9188C73.6075 20.2191 74.6417 19.8876 78.7462 19.6646V23.8486C78.7462 23.8486 77.903 24.142 73.6046 24.142C69.3062 24.142 69.3062 20.6152 69.3062 18.3179V11.9803H67.1937V8.36556H69.3062V3.79724H73.6046V8.36556H78.7462V11.9774H73.6046V17.602H73.6075Z" fill="#E65411"/>
<path d="M80.6031 7.29172V3.47452H84.878V7.29172H80.6031ZM80.6031 24.1391V8.4184H84.878V24.1391H80.6031Z" fill="#E65411"/>
<path d="M104.722 8.49469V22.6163C104.722 25.8672 104.114 31.75 96.2425 31.75C89.1294 31.75 87.7661 27.9123 87.7661 25.5621C88.8767 25.5621 91.3036 25.5621 92.0205 25.5621C92.1204 26.4159 92.8725 28.0472 96.219 28.0472C99.1189 28.0472 100.423 26.146 100.423 23.2618V22.1116H100.227C99.1541 23.4877 97.3472 24.321 94.3709 24.321C87.725 24.321 86.9758 18.538 86.9758 16.4078C86.9758 14.1017 87.6839 8.49469 94.3827 8.49469C97.3119 8.49469 99.1042 9.41598 100.18 10.8185H100.42V8.49469H104.722ZM100.094 16.4078C100.094 14.266 99.3363 12.1857 95.6284 12.1857C91.5151 12.1857 91.0803 15.1785 91.0803 16.4078C91.0803 17.5462 91.5416 20.6299 95.6226 20.6299C99.3363 20.6299 100.094 18.802 100.094 16.4078Z" fill="#E65411"/>
<path d="M123.484 17.2264H110.851C111.144 19.3389 112.411 20.3893 115.19 20.3893C117.755 20.3893 119.027 19.6764 119.421 18.6377H123.581C123.141 22.0324 120.393 24.142 115.19 24.142C109.761 24.142 106.679 21.4163 106.679 16.1555C106.679 10.9916 109.84 8.16901 115.19 8.16901C117.432 8.16901 119.212 8.72941 120.552 9.65951C120.552 9.65657 120.552 9.65657 120.552 9.65364C123.614 11.7133 123.887 15.0611 123.643 17.2294L123.484 17.2264ZM111.015 14.3921H119.374C119.021 13.2068 118.246 11.9158 115.187 11.9158C112.816 11.9158 111.512 12.7901 111.015 14.3921Z" fill="#E65411"/>
<path d="M153.088 11.5197C153.088 18.8783 146.525 18.6142 144.647 18.6142C143.924 18.6142 140.989 18.6142 140.099 18.6142V24.139H135.801V4.41046H140.099V4.42807C141.148 4.4222 143.49 4.41046 144.659 4.41046C147.036 4.41046 153.088 4.42807 153.088 11.5197ZM149.066 11.5138C149.066 8.1103 146.307 8.11911 144.873 8.11911C144.086 8.11911 141.268 8.11911 140.099 8.11911V14.9144C141.063 14.9144 144.43 14.9144 144.806 14.9144C145.949 14.9144 149.066 15.0787 149.066 11.5138Z" fill="white"/>
<path d="M172.544 16.2288V24.142H168.272V16.2288C168.272 14.9965 168.272 12.0067 164.159 12.0067C160.451 12.0067 159.628 14.3686 159.628 16.5105V24.142H155.33V3.76791H159.628V10.6395H159.831C160.857 9.24579 162.567 8.3157 165.405 8.3157C172.101 8.3157 172.544 13.9197 172.544 16.2288Z" fill="white"/>
<path d="M210.698 16.2318V24.139H206.429V16.2318C206.429 15.0024 206.694 12.0097 202.583 12.0097C198.878 12.0097 198.32 14.3716 198.32 16.5134V24.139H194.025V8.32449H198.32V10.6453H198.523C199.545 9.25165 200.991 8.32449 203.826 8.32449C210.519 8.32449 210.698 13.9256 210.698 16.2318Z" fill="white"/>
<path d="M229.232 17.2264H216.598C216.892 19.3389 218.158 20.3893 220.937 20.3893C223.502 20.3893 224.774 19.6764 225.168 18.6377H229.328C228.888 22.0324 226.141 24.142 220.937 24.142C215.508 24.142 212.426 21.4163 212.426 16.1555C212.426 10.9916 215.587 8.16901 220.937 8.16901C223.179 8.16901 224.96 8.72941 226.299 9.65951C226.299 9.65657 226.299 9.65657 226.299 9.65364C229.361 11.7133 229.634 15.0611 229.39 17.2294L229.232 17.2264ZM216.762 14.3921H225.121C224.769 13.2068 223.993 11.9158 220.934 11.9158C218.563 11.9158 217.259 12.7901 216.762 14.3921Z" fill="white"/>
<path d="M186.803 7.64084C184.849 7.72299 183.021 9.81497 183.439 11.4756C185.199 11.64 186.982 9.61839 186.803 7.64084Z" fill="white"/>
<path d="M190.026 20.6416C189.573 21.6773 188.93 22.6016 188.143 23.4319C187.426 24.1918 186.532 24.4236 185.575 24.0099C184.285 23.4466 183.045 23.4466 181.761 24.0158C180.818 24.4324 179.96 24.1977 179.249 23.4525C177.695 21.8446 176.746 19.9287 176.417 17.7134C176.214 16.3432 176.311 15.017 177.001 13.7847C177.762 12.4409 178.926 11.6869 180.459 11.6018C180.982 11.5754 181.552 11.6928 182.028 11.9069C182.989 12.3471 183.891 12.3324 184.855 11.9011C185.974 11.3994 187.158 11.3935 188.272 11.9158C188.348 11.951 188.422 11.992 188.498 12.0302C188.313 12.1974 188.248 12.4732 188.363 12.7109C188.425 12.8517 188.489 12.9925 188.554 13.1304C188.574 13.1686 188.566 13.1891 188.533 13.2185C188.366 13.3857 188.195 13.553 188.034 13.7261C187.96 13.8082 187.896 13.8904 187.834 13.9784L187.346 13.8023C187.047 13.6997 186.715 13.8464 186.594 14.1398C186.512 14.351 186.435 14.5623 186.362 14.7735C186.359 14.7823 186.356 14.7911 186.353 14.797C186.253 15.0992 186.418 15.4278 186.726 15.5276C186.87 15.5804 187.011 15.6361 187.152 15.6831C187.196 15.6977 187.196 15.7124 187.196 15.7535C187.161 16.0821 187.173 16.4107 187.232 16.7335C187.238 16.7745 187.232 16.7951 187.191 16.8156C187.05 16.8743 186.911 16.9418 186.77 17.0063C186.471 17.1442 186.339 17.4934 186.471 17.7927L186.741 18.3941C186.744 18.4059 186.747 18.4147 186.753 18.4235C186.891 18.711 187.241 18.8343 187.531 18.6934L187.952 18.5027C187.972 18.4822 188.007 18.4822 188.031 18.5027C188.125 18.6054 188.213 18.711 188.313 18.802C188.466 18.9428 188.627 19.0719 188.792 19.2127C188.739 19.3624 188.674 19.5238 188.61 19.6763C188.495 19.9785 188.645 20.3159 188.95 20.4274C189.159 20.5096 189.368 20.5859 189.579 20.6622C189.582 20.6651 189.585 20.6651 189.591 20.668C189.741 20.712 189.894 20.7003 190.026 20.6416Z" fill="white"/>
<path d="M190.825 16.7745C190.825 17.3555 190.778 17.9129 190.69 18.4264C189.509 18.3149 188.586 17.3232 188.586 16.1085C188.583 15.0141 189.338 14.0957 190.355 13.8434C190.646 14.6297 190.825 15.6567 190.825 16.7745Z" fill="white"/>
</g>
<defs>
<clipPath id="clip0_5_36">
<rect width="234" height="31.5" fill="white" transform="translate(0 0.25)"/>
</clipPath>
</defs>
</svg>
