<svg width="341" height="46" viewBox="0 0 341 46" fill="none" xmlns="http://www.w3.org/2000/svg">
<g clip-path="url(#clip0_30_947)">
<path d="M337.652 41.2183H192.362C190.512 41.2183 189.013 39.7187 189.013 37.8677V3.3506C189.013 1.49963 190.512 0 192.362 0H337.652C339.501 0 341 1.49963 341 3.3506V37.872C341 39.7187 339.501 41.2183 337.652 41.2183Z" fill="white"/>
<path d="M25.1927 16.4574C25.1927 27.2033 15.6277 26.8177 12.8918 26.8177C11.8385 26.8177 7.56122 26.8177 6.26391 26.8177V34.8857H0V6.07568H6.26391V6.10139C7.79243 6.09282 11.2048 6.07568 12.9089 6.07568C16.3684 6.07568 25.1927 6.10139 25.1927 16.4574ZM19.3269 16.4488C19.3269 11.4786 15.3066 11.4915 13.2172 11.4915C12.0697 11.4915 7.96369 11.4915 6.25963 11.4915V21.4147C7.66398 21.4147 12.5706 21.4147 13.1187 21.4147C14.7842 21.4147 19.3269 21.6547 19.3269 16.4488Z" fill="white"/>
<path d="M45.8897 12.3742L44.8921 18.287C44.3098 18.1242 42.7256 17.7729 40.7475 17.7729C36.1063 17.7729 34.7191 21.3977 34.7191 24.5255V34.8858H28.4595V11.7915H34.7234V15.1849H35.113C36.3975 12.9741 37.8232 11.7915 41.788 11.7915C43.4706 11.7915 44.8064 12.1386 45.8897 12.3742Z" fill="white"/>
<path d="M70.8811 24.7912H52.4704C52.8986 27.8761 54.7439 29.41 58.7943 29.41C62.5321 29.41 64.386 28.3688 64.9597 26.8521H71.0224C70.3802 31.8094 66.3769 34.8901 58.7943 34.8901C50.882 34.8901 46.3906 30.9096 46.3906 23.2273C46.3906 15.6863 50.9976 11.5645 58.7943 11.5645C62.0611 11.5645 64.6557 12.3828 66.6081 13.7411C66.6081 13.7368 66.6081 13.7368 66.6081 13.7325C71.0695 16.7403 71.4677 21.6291 71.1123 24.7955L70.8811 24.7912ZM52.7102 20.6522H64.8912C64.3774 18.9212 63.2471 17.036 58.79 17.036C55.3348 17.036 53.4338 18.3128 52.7102 20.6522Z" fill="white"/>
<path d="M96.4976 28.0387C96.4976 33.7673 92.3959 34.8856 85.3099 34.8856C80.095 34.8856 76.5113 33.9387 74.6574 32.0663C73.0604 30.4553 73.0775 28.5058 73.0861 27.3403L73.0904 26.8905H79.517V27.0875C79.517 29.0628 80.9856 29.9411 85.1472 29.9411C87.6519 29.9411 90.0539 29.6283 90.0539 28.1244C90.0539 26.3891 87.8147 26.0592 85.3314 25.7679C84.9974 25.7293 84.6634 25.6907 84.3509 25.6479C77.7145 24.7695 73.6042 23.2999 73.6042 18.6982C73.6042 15.4761 75.4624 11.6328 84.3209 11.6328C93.8816 11.6328 95.8897 15.8703 95.8897 19.4223V19.6194H89.5187V19.4223C89.5187 17.6056 87.9731 16.6416 84.3209 16.6416C80.8229 16.6416 80.0907 17.9098 80.0907 18.6211C80.0907 19.6365 80.8057 20.2064 84.8261 20.8105L85.3442 20.8877C90.5677 21.6675 96.4976 22.5501 96.4976 28.0387Z" fill="white"/>
<path d="M107.266 25.3395V25.8022C107.266 29.1614 108.773 28.6772 114.754 28.3516V34.4615C114.754 34.4615 113.525 34.8899 107.261 34.8899C100.998 34.8899 100.998 29.7398 100.998 26.3849V17.1301H97.9191V11.8514H100.998V5.18018H107.261V11.8514H114.754V17.1258H107.261V25.3395H107.266Z" fill="white"/>
<path d="M117.46 10.2833V4.70898H123.69V10.2833H117.46ZM117.46 34.8858V11.9286H123.69V34.8858H117.46Z" fill="white"/>
<path d="M152.607 12.04V32.6621C152.607 37.4095 151.721 46.0002 140.251 46.0002C129.885 46.0002 127.899 40.3959 127.899 36.9638C129.517 36.9638 133.054 36.9638 134.098 36.9638C134.244 38.2107 135.34 40.5929 140.217 40.5929C144.442 40.5929 146.343 37.8165 146.343 33.6047V31.9251H146.057C144.494 33.9346 141.861 35.1514 137.523 35.1514C127.839 35.1514 126.747 26.7064 126.747 23.5957C126.747 20.228 127.779 12.04 137.541 12.04C141.809 12.04 144.421 13.3854 145.988 15.4335H146.339V12.04H152.607ZM145.864 23.5957C145.864 20.4679 144.759 17.4301 139.356 17.4301C133.362 17.4301 132.728 21.8005 132.728 23.5957C132.728 25.2582 133.4 29.7614 139.347 29.7614C144.759 29.7614 145.864 27.092 145.864 23.5957Z" fill="white"/>
<path d="M179.949 24.7912H161.539C161.967 27.8761 163.812 29.41 167.863 29.41C171.6 29.41 173.454 28.3688 174.028 26.8521H180.091C179.448 31.8094 175.445 34.8901 167.863 34.8901C159.95 34.8901 155.459 30.9096 155.459 23.2273C155.459 15.6863 160.066 11.5645 167.863 11.5645C171.129 11.5645 173.724 12.3828 175.676 13.7411C175.676 13.7368 175.676 13.7368 175.676 13.7325C180.138 16.7403 180.536 21.6291 180.181 24.7955L179.949 24.7912ZM161.778 20.6522H173.959C173.446 18.9212 172.315 17.036 167.858 17.036C164.403 17.036 162.502 18.3128 161.778 20.6522Z" fill="white"/>
<path d="M223.09 16.4574C223.09 27.2033 213.525 26.8177 210.789 26.8177C209.736 26.8177 205.459 26.8177 204.162 26.8177V34.8857H197.898V6.07568H204.162V6.10139C205.69 6.09282 209.102 6.07568 210.807 6.07568C214.27 6.07568 223.09 6.10139 223.09 16.4574ZM217.229 16.4488C217.229 11.4786 213.208 11.4915 211.119 11.4915C209.972 11.4915 205.866 11.4915 204.162 11.4915V21.4147C205.566 21.4147 210.473 21.4147 211.021 21.4147C212.686 21.4147 217.229 21.6547 217.229 16.4488Z" fill="#E65411"/>
<path d="M251.443 23.3341V34.8898H245.217V23.3341C245.217 21.5346 245.217 17.1685 239.223 17.1685C233.82 17.1685 232.621 20.6176 232.621 23.7454V34.8898H226.357V5.13721H232.621V15.1719H232.916C234.411 13.1366 236.903 11.7784 241.039 11.7784C250.796 11.7784 251.443 19.9621 251.443 23.3341Z" fill="#E65411"/>
<path d="M307.043 23.3386V34.8858H300.822V23.3386C300.822 21.5434 301.207 17.173 295.217 17.173C289.818 17.173 289.005 20.6222 289.005 23.75V34.8858H282.745V11.7915H289.005V15.1807H289.3C290.79 13.1455 292.897 11.7915 297.028 11.7915C306.782 11.7915 307.043 19.9709 307.043 23.3386Z" fill="#E65411"/>
<path d="M334.051 24.7912H315.64C316.069 27.8761 317.914 29.41 321.964 29.41C325.702 29.41 327.556 28.3688 328.13 26.8521H334.192C333.55 31.8094 329.547 34.8901 321.964 34.8901C314.052 34.8901 309.561 30.9096 309.561 23.2273C309.561 15.6863 314.167 11.5645 321.964 11.5645C325.231 11.5645 327.826 12.3828 329.778 13.7411C329.778 13.7368 329.778 13.7368 329.778 13.7325C334.239 16.7403 334.638 21.6291 334.282 24.7955L334.051 24.7912ZM315.88 20.6522H328.061C327.547 18.9212 326.417 17.036 321.96 17.036C318.505 17.036 316.604 18.3128 315.88 20.6522Z" fill="#E65411"/>
<path d="M272.221 10.793C269.374 10.9129 266.711 13.9679 267.319 16.393C269.883 16.6329 272.482 13.6808 272.221 10.793Z" fill="#E65411"/>
<path d="M276.918 29.7784C276.259 31.2909 275.321 32.6405 274.174 33.8531C273.129 34.9628 271.827 35.3013 270.431 34.6972C268.552 33.8745 266.745 33.8745 264.874 34.7057C263.5 35.3141 262.249 34.9714 261.213 33.8831C258.948 31.5351 257.565 28.7372 257.086 25.5023C256.79 23.5014 256.932 21.5647 257.938 19.7652C259.047 17.8028 260.742 16.7016 262.977 16.5774C263.739 16.5388 264.57 16.7102 265.264 17.023C266.664 17.6657 267.978 17.6443 269.382 17.0144C271.014 16.2817 272.739 16.2732 274.362 17.0358C274.473 17.0872 274.58 17.1472 274.692 17.2029C274.422 17.4472 274.328 17.8499 274.495 18.197C274.585 18.4026 274.679 18.6083 274.773 18.8097C274.803 18.8654 274.79 18.8954 274.743 18.9382C274.499 19.1824 274.251 19.4267 274.015 19.6795C273.908 19.7994 273.814 19.9194 273.724 20.0479L273.013 19.7909C272.577 19.6409 272.093 19.8551 271.917 20.2836C271.797 20.5921 271.686 20.9006 271.579 21.2091C271.575 21.2219 271.57 21.2348 271.566 21.2434C271.421 21.6847 271.66 22.1646 272.11 22.3102C272.32 22.3874 272.525 22.4688 272.731 22.5373C272.795 22.5587 272.795 22.5802 272.795 22.6402C272.744 23.12 272.761 23.5999 272.846 24.0712C272.855 24.1312 272.846 24.1612 272.786 24.1912C272.581 24.2769 272.38 24.3754 272.174 24.4697C271.737 24.6711 271.545 25.181 271.737 25.618L272.131 26.4963C272.136 26.5135 272.14 26.5263 272.148 26.5392C272.35 26.9591 272.859 27.139 273.283 26.9334L273.895 26.6549C273.925 26.6249 273.977 26.6249 274.011 26.6549C274.148 26.8048 274.276 26.9591 274.422 27.0919C274.645 27.2976 274.88 27.4861 275.12 27.6918C275.043 27.9103 274.949 28.1459 274.854 28.3687C274.687 28.81 274.906 29.3028 275.351 29.4656C275.655 29.5856 275.959 29.697 276.267 29.8084C276.271 29.8127 276.276 29.8127 276.284 29.8169C276.503 29.8812 276.725 29.8641 276.918 29.7784Z" fill="#E65411"/>
<path d="M278.083 24.1309C278.083 24.9793 278.014 25.7934 277.886 26.5432C276.164 26.3804 274.82 24.9322 274.82 23.1583C274.816 21.5602 275.916 20.2191 277.398 19.8506C277.821 20.9989 278.083 22.4985 278.083 24.1309Z" fill="#E65411"/>
</g>
<defs>
<clipPath id="clip0_30_947">
<rect width="341" height="46" fill="white"/>
</clipPath>
</defs>
</svg>
