<svg id="Calque_1" data-name="Calque 1" xmlns="http://www.w3.org/2000/svg" viewBox="0 0 15.01 15"><defs><style>.cls-1{fill:#f6e200;}</style></defs><title>star-active</title><path class="cls-1" d="M8.2.43l1.85,3.5a.8.8,0,0,0,.55.41l3.75.76a.85.85,0,0,1,.63,1,.82.82,0,0,1-.2.38L12.17,9.42a.9.9,0,0,0-.21.67l.47,4a.8.8,0,0,1-.67.92.72.72,0,0,1-.46-.06L7.84,13.23a.81.81,0,0,0-.68,0L3.7,14.92a.8.8,0,0,1-1.07-.4.81.81,0,0,1-.07-.46l.47-4a.83.83,0,0,0-.21-.67L.22,6.5A.84.84,0,0,1,.27,5.3a.82.82,0,0,1,.38-.2L4.4,4.34A.8.8,0,0,0,5,3.93L6.8.43a.78.78,0,0,1,1-.35A.79.79,0,0,1,8.2.43Z" transform="translate(0.01 0)"/></svg>