<svg width="388" height="362" viewBox="0 0 388 362" fill="none" xmlns="http://www.w3.org/2000/svg">
<path fill-rule="evenodd" clip-rule="evenodd" d="M199.981 0.617562C199.224 0.975223 197.909 1.27242 197.057 1.27826C196.206 1.2841 194.58 1.67096 193.445 2.13822C192.309 2.60514 190.683 2.99098 189.831 2.99544C186.642 3.01228 182.141 4.6745 179.428 6.83696C178.399 7.65776 177.283 8.4868 176.948 8.67955C176.378 9.00801 176.375 9.11383 176.894 10.3548C177.391 11.5432 177.396 11.8549 176.94 13.3876C176.195 15.8932 176.174 20.7215 176.905 21.5279C177.413 22.0886 177.417 22.1817 176.946 22.3624C176.611 22.4906 176.415 22.9984 176.415 23.736C176.415 24.3796 176.183 25.5635 175.899 26.3668C175.221 28.2853 175.227 28.3221 176.329 28.9189C176.983 29.2734 177.093 29.4356 176.685 29.4452C175.891 29.4638 175.382 30.5069 175.388 32.099C175.394 33.6365 175.532 33.8746 177.018 34.9108C177.633 35.3399 178.297 35.99 178.492 36.3555C178.833 36.9905 178.787 36.9877 177.452 36.293C175.591 35.3241 174.224 35.812 173.638 37.6543C173.191 39.0609 170.81 41.659 167.47 44.3846C164.482 46.8222 162.726 47.6684 160.654 47.6684C159.521 47.6684 158.444 47.9485 157.358 48.5246C156.178 49.1517 154.883 49.4602 152.53 49.6763C150.18 49.8921 149.045 50.1625 148.319 50.6788C147.772 51.0678 146.632 51.7573 145.786 52.2108C144.939 52.6644 143.938 53.21 143.559 53.4233C143.181 53.6367 141.865 54.2981 140.635 54.8931C137.874 56.2286 137.899 56.2039 137.507 57.9461C137.33 58.7312 136.63 60.2089 135.952 61.2297L134.718 63.0857L135.651 64.3071C136.921 65.9703 138.516 66.3648 142.414 65.98C144.085 65.815 145.451 65.7893 145.451 65.9226C145.451 66.0562 144.903 66.5043 144.232 66.9183C143.212 67.5477 142.715 67.6339 141.201 67.4453C138.922 67.1608 138.023 67.5017 134.972 69.8077C131.815 72.1939 131.501 72.3375 128.902 72.5907C126.778 72.7975 126.623 72.7573 124.465 71.4449L122.229 70.0847L117.332 69.8328C112.438 69.5806 111.635 69.4106 108.534 67.9706C105.309 66.4733 102.791 66.7224 102.791 68.5379C102.791 69.1395 102.627 69.3329 102.189 69.2491C101.753 69.1659 101.536 68.6945 101.404 67.5491C101.278 66.4613 100.765 65.2866 99.7693 63.8058C97.9676 61.1263 97.9222 60.1577 99.5223 58.5598C100.99 57.0941 101.039 56.1736 99.7208 54.8571C98.9626 54.0998 98.3911 53.8518 97.3986 53.848C96.6744 53.8456 95.7613 53.7573 95.3691 53.6521C94.874 53.5195 94.208 53.8353 93.1865 54.6877C92.378 55.3625 91.3827 55.9125 90.9747 55.9105C89.6681 55.9039 86.9336 54.9234 85.1274 53.8133C81.8319 51.7882 79.7157 52.7382 82.2853 55.089C83.3185 56.0342 83.5246 56.4547 83.5246 57.618C83.5246 58.5879 83.3151 59.1923 82.8365 59.6015C81.9468 60.3622 81.9681 60.5724 83.0298 61.4942C83.774 62.1405 83.9034 62.527 83.8604 63.9828C83.7798 66.7276 83.8146 66.8554 84.9021 67.8229C86.6577 69.3851 87.9971 71.7836 87.9971 73.3654C87.9971 74.3048 88.2836 75.2022 88.8496 76.035C89.4964 76.9867 89.6209 77.4409 89.3656 77.9171C88.8472 78.8846 88.9669 81.0969 89.5851 81.9785C89.9942 82.5616 90.0396 82.8722 89.7572 83.1542C89.2208 83.6899 89.2786 84.612 89.8803 85.1106C90.3252 85.4796 90.3173 85.663 89.816 86.613C89.42 87.3634 89.2514 88.503 89.2669 90.3312C89.2917 93.3079 89.6061 93.9418 92.2748 96.3987C93.1387 97.1937 93.8457 97.9287 93.8457 98.0317C93.8457 98.1348 92.4135 98.1953 90.6634 98.1661C88.9132 98.1372 86.3047 98.22 84.867 98.3502C82.3012 98.5832 82.2396 98.5701 81.5075 97.6404C80.8369 96.789 80.8142 96.6358 81.2832 96.1184C81.8691 95.4717 81.9829 94.3946 81.4652 94.3946C80.3133 94.3946 77.7613 95.3914 76.9318 96.1647C76.3944 96.666 75.8684 96.9368 75.7631 96.766C75.3877 96.1599 74.2617 96.4709 73.1456 97.4892C71.8816 98.6419 71.4901 98.6467 70.9211 97.5167C70.2172 96.1187 69.8412 95.9356 69.0832 96.6207C68.2321 97.3896 68.1571 96.9354 68.9845 96.0225C69.5529 95.3951 69.5498 95.3398 68.9198 94.8798C68.3332 94.4517 68.165 94.4829 67.4491 95.1546C66.9492 95.6236 66.2749 95.8854 65.6824 95.8401C65.0398 95.7913 64.4577 96.0507 63.9151 96.6272C63.4703 97.0999 62.9559 97.4868 62.7719 97.4868C62.5878 97.4868 61.7759 98.0279 60.9677 98.6893C60.1593 99.3507 59.2486 99.8918 58.9431 99.8918C58.6379 99.8918 58.299 100.124 58.1903 100.407C57.8862 101.198 56.9432 101.062 57.1971 100.263C57.3481 99.7867 57.0199 99.2208 56.016 98.2286C55.2271 97.4483 54.6254 96.5255 54.6254 96.0953C54.6254 95.6782 54.0835 94.7379 53.4213 94.0057C52.7225 93.2334 52.2171 92.3146 52.2171 91.8168C52.2171 90.8902 51.1351 89.5846 50.3669 89.5846C49.5945 89.5846 49.0671 88.7449 49.5419 88.2708C50.1773 87.6362 49.2973 86.9044 48.4984 87.4025C47.96 87.7382 47.9074 87.6565 48.0237 86.6615C48.2232 84.9549 47.5406 84.8927 45.6925 86.4491L44.0301 87.8489L44.3968 86.6556C44.8351 85.2298 44.5444 84.7948 43.6771 85.5782C43.33 85.8922 42.4774 86.1488 41.7828 86.1488C40.9585 86.1488 40.2691 86.3993 39.7974 86.8704L39.0752 87.5915L37.9055 86.4594L36.7358 85.327L35.5313 86.6402C34.1459 88.1509 34.1507 88.1333 34.8684 88.9253C35.3648 89.4729 35.3503 89.541 34.6963 89.7485C34.1528 89.9206 33.9831 90.2621 33.9831 91.1826C33.9831 91.8467 33.8421 92.339 33.6694 92.2758C33.497 92.2129 32.1924 91.544 30.7702 90.7895L28.1847 89.4176L27.2995 90.248C26.7535 90.7603 26.4143 91.4509 26.4143 92.0494C26.4143 93.1925 25.9612 93.2997 25.2731 92.3188C25.0024 91.9329 24.5679 91.6622 24.3074 91.7175C23.9916 91.7845 23.7972 91.4179 23.7236 90.6153C23.6627 89.9539 23.4996 89.2963 23.361 89.1537C23.2223 89.0112 22.4204 89.2328 21.5792 89.6458C20.738 90.0587 19.6337 90.358 19.1252 90.3106C17.8784 90.1944 16.7813 90.8311 16.7813 91.6701C16.7813 92.2552 16.677 92.3016 16.0801 91.9827C15.6944 91.7766 15.0752 91.7041 14.704 91.8219C14.1821 91.9876 14.029 91.8749 14.029 91.3255C14.029 90.3219 11.984 90.3315 11.072 91.3396C10.5177 91.9522 10.1582 92.0336 8.74454 91.8666C7.12206 91.6752 7.07733 91.6941 7.23112 92.4978C7.3763 93.2571 7.30337 93.3089 6.3583 93.1203C5.36506 92.9217 5.33616 92.9509 5.57527 93.9026C5.82056 94.8787 5.81472 94.8832 5.12354 94.2586C4.19258 93.4172 2.91104 93.7528 1.59681 95.1825C0.915275 95.9236 0.613554 96.5798 0.675481 97.1862C0.725711 97.6823 0.585343 98.3069 0.363095 98.5742C-0.118558 99.1538 -0.121998 102.63 0.358622 103.242C0.816881 103.826 1.58236 103.781 2.23088 103.134C2.61138 102.754 2.87629 102.703 3.13535 102.962C3.67549 103.501 4.9443 103.409 7.11277 102.674C9.91805 101.722 12.6735 100.922 13.1224 100.928C13.3371 100.931 12.6769 101.357 11.6554 101.873C9.83067 102.796 8.84706 103.765 9.28812 104.205C9.57677 104.493 10.8473 104.479 12.0556 104.173C12.8259 103.978 12.9683 104.033 12.8038 104.461C12.6628 104.828 12.9762 105.166 13.8311 105.571C15.4247 106.327 15.3879 106.535 13.7107 106.252C12.9635 106.126 12.0652 106.182 11.6995 106.378C11.2144 106.637 10.8497 106.598 10.3257 106.232C9.93354 105.957 9.37207 105.825 9.07791 105.937C8.33066 106.224 6.53375 105.364 6.34075 104.627C6.09029 103.67 5.08398 103.867 5.08398 104.874C5.08398 105.408 4.88891 105.733 4.56792 105.733C3.72021 105.733 3.98409 106.733 4.89201 106.961C5.6771 107.157 5.71907 107.282 5.53192 108.857C5.29006 110.897 5.76724 111.069 6.88708 109.348C7.31438 108.69 7.84763 108.081 8.07195 107.993C8.59076 107.789 12.1316 110.466 12.6872 111.482C12.9848 112.026 13.0058 112.476 12.7588 113.028C12.446 113.727 12.1505 113.812 9.86542 113.863C5.47343 113.962 1.14509 114.378 0.693371 114.746C0.217911 115.134 0.713669 116.04 1.40071 116.04C1.59922 116.04 2.04441 116.295 2.39016 116.608C2.73592 116.921 3.59326 117.211 4.2951 117.254C5.13318 117.305 5.95543 117.669 6.69098 118.317C8.06885 119.531 9.73399 121.818 9.44775 122.104C9.33147 122.22 9.39477 122.61 9.58812 122.97C9.85647 123.471 9.76977 123.901 9.22069 124.788C8.4153 126.089 8.52677 126.26 10.5886 126.883C11.8264 127.258 14.2464 126.947 14.865 126.334C15.0618 126.139 15.0067 125.685 14.7212 125.152C14.1236 124.037 14.437 123.743 15.4887 124.431C16.5549 125.129 16.8993 124.785 16.2005 123.72C15.9012 123.264 15.7485 122.797 15.8616 122.685C15.9748 122.572 16.2425 122.847 16.4568 123.297C17.0087 124.455 18.6755 125.704 19.334 125.451C19.6361 125.335 19.9763 124.871 20.0899 124.42C20.3816 123.259 21.0442 123.401 21.5242 124.727C21.7488 125.347 22.5494 126.456 23.3032 127.192C24.5541 128.412 24.7509 128.493 25.5608 128.124C26.5234 127.686 27.9054 128.164 28.8037 129.245C29.0937 129.594 29.8203 129.783 30.8699 129.783C32.4419 129.783 32.5086 129.825 33.1502 131.243C33.6721 132.396 34.0169 132.727 34.7882 132.815C35.5743 132.905 35.9995 132.653 36.9653 131.527C38.2771 129.996 39.2892 129.568 38.1367 131.032C37.7445 131.53 37.4235 132.13 37.4235 132.365C37.4235 132.977 39.5139 134.936 40.1669 134.936C40.7648 134.936 41.896 133.272 41.896 132.393C41.896 131.741 42.2879 131.686 42.8593 132.257C43.5446 132.941 43.3293 133.734 42.24 134.539C40.9819 135.468 40.9719 135.836 42.1681 137.207C43.3681 138.583 44.4323 139.127 45.4324 138.876C46.4033 138.633 49.4136 140.527 50.0287 141.768C50.7829 143.291 52.4769 143.666 53.7024 142.581C54.2005 142.14 54.4221 142.095 54.5322 142.409C54.6987 142.884 56.0016 143.009 56.0016 142.55C56.0016 142.392 56.3886 142.086 56.8616 141.871C57.4861 141.586 57.7217 141.584 57.7217 141.861C57.7217 142.104 58.1955 142.179 59.0312 142.067C59.8025 141.963 60.5797 142.066 60.9234 142.317C61.6307 142.834 61.6727 143.182 61.0269 143.182C60.7634 143.182 60.4489 143.439 60.3282 143.754C60.1248 144.283 61.137 145.706 62.5004 146.808C62.9067 147.136 62.9019 147.224 62.4695 147.39C62.1891 147.497 61.7415 147.447 61.4749 147.279C60.7672 146.831 60.3987 146.904 59.4712 147.675L58.6403 148.366L60.1052 149.857C61.0534 150.821 61.4325 151.433 61.1793 151.589C60.964 151.722 60.5693 151.65 60.302 151.428C59.8259 151.033 59.0979 151.215 59.0979 151.728C59.0979 151.871 59.6573 152.254 60.3406 152.58C61.5127 153.138 61.608 153.138 62.0136 152.584C62.4124 152.04 62.4908 152.053 63.0929 152.769C63.4503 153.194 63.9911 153.678 64.2953 153.845C65.164 154.322 67.2151 153.583 68.1705 152.449C68.9288 151.549 69.14 151.47 69.9543 151.779C70.607 152.027 71.207 152.011 71.9983 151.725C72.9795 151.371 73.2475 151.413 74.1602 152.062C74.733 152.469 75.5284 152.802 75.9279 152.802C76.372 152.802 76.9077 153.219 77.3075 153.876C77.667 154.466 78.4001 155.238 78.9365 155.591C79.4732 155.945 79.7474 156.235 79.5461 156.236C79.3449 156.237 78.1837 155.578 76.9658 154.772C73.7845 152.666 73.0631 152.408 71.0838 152.67C69.1858 152.922 68.219 153.622 68.5858 154.479C69.1063 155.695 68.8813 156.381 67.6988 157.182C66.1455 158.234 66.053 158.57 67.2444 158.83C69.1493 159.247 70.1188 159.774 71.7155 161.258L73.3342 162.764L72.3657 163.773C71.636 164.534 71.4499 164.991 71.6099 165.627C71.7805 166.308 71.6714 166.51 71.0494 166.666C70.2093 166.877 68.0429 169.46 68.0429 170.252C68.0429 170.521 69.1022 171.846 70.3971 173.196C74.2689 177.232 76.5712 181.168 76.8957 184.304C77.0484 185.785 77.1946 186.123 77.6116 185.964C77.9229 185.844 78.566 186.172 79.1959 186.772C79.779 187.327 80.5658 187.836 80.9443 187.904C81.3454 187.975 81.6781 188.347 81.7425 188.795C81.8405 189.483 82.0483 189.565 83.7011 189.565C85.2214 189.565 85.6449 189.701 86.0852 190.329C86.3797 190.749 86.6209 191.425 86.6209 191.832C86.6209 193.012 87.3503 193.399 88.6504 192.909C89.6526 192.531 89.8057 192.558 90.1459 193.173C90.6678 194.118 92.6663 196.093 93.1005 196.093C93.2959 196.093 93.5051 195.668 93.565 195.148C93.7184 193.816 94.9022 193.717 96.0389 194.942C96.8406 195.805 96.8722 195.944 96.3899 196.476C96.0981 196.798 95.5146 197.148 95.0932 197.254C94.6521 197.364 94.069 197.987 93.717 198.724L93.1071 200.002L94.3067 201.053C94.9662 201.632 95.6801 202.666 95.8931 203.352C96.1057 204.038 96.5836 204.874 96.9551 205.209C97.9511 206.11 97.8039 206.744 96.598 206.744C95.4159 206.744 95.375 206.89 96.082 208.58C96.8251 210.356 96.7287 210.857 95.5659 211.262C94.9982 211.459 94.5338 211.791 94.5338 211.999C94.5338 212.715 92.5511 209.662 92.3209 208.591C92.0681 207.415 91.0556 206.306 89.7173 205.737C89.2442 205.536 88.5936 205.183 88.2716 204.953C87.4937 204.397 87.0558 204.886 87.5801 205.724C87.8096 206.091 87.9971 206.712 87.9971 207.105C87.9971 208.06 88.5489 209.058 89.9302 210.6C90.5605 211.304 91.1681 212.309 91.2806 212.834C91.8616 215.542 92.3526 215.761 93.5282 213.835L94.1873 212.756L94.1884 213.8C94.1894 214.597 94.5964 215.244 95.9099 216.536C96.856 217.466 97.6301 218.382 97.6301 218.571C97.6301 218.76 96.8894 218.186 95.9842 217.296C94.6174 215.951 94.1213 215.677 93.0599 215.677C91.8957 215.677 91.7811 215.761 91.7767 216.621C91.7743 217.141 91.6786 217.914 91.5647 218.339C91.3986 218.958 91.4987 219.112 92.0684 219.112C92.4592 219.112 92.903 219.324 93.0544 219.583C93.2058 219.842 93.9489 220.369 94.7058 220.754C96.4105 221.622 97.8145 223.106 98.1083 224.352C98.2312 224.872 98.5618 225.297 98.8439 225.297C99.6661 225.297 103.58 229.066 104.425 230.672C104.851 231.481 105.366 233.347 105.57 234.819C105.774 236.29 106.041 237.726 106.163 238.009C106.285 238.292 106.397 239.452 106.413 240.586C106.455 243.583 107.094 245.398 108.658 246.96C109.821 248.122 109.914 248.316 109.305 248.316C108.129 248.316 107.334 247.7 106.355 246.031C105.557 244.672 105.408 243.988 105.312 241.226C105.16 236.827 104.555 235.662 100.146 231.269C97.0243 228.159 96.598 227.593 96.598 226.558C96.598 224.469 94.9927 224.08 94.0511 225.94C93.4036 227.218 93.2061 228.708 93.1119 233.027C93.0393 236.338 92.914 237.04 92.1014 238.696C91.2634 240.403 91.1577 241.051 91.0105 245.396C90.8746 249.413 90.6978 250.647 89.9385 252.879C89.4382 254.349 89.0292 256.143 89.0292 256.865C89.0292 257.587 88.8661 258.645 88.6666 259.216C88.4674 259.787 88.3511 261.163 88.4085 262.273L88.5131 264.292L88.9721 262.746C90.0327 259.174 91.4168 257.533 92.7637 258.253C93.7139 258.761 94.8778 260.308 94.8778 261.063C94.8778 261.924 93.6751 262.496 92.4351 262.223C91.1175 261.935 90.6376 262.35 89.5504 264.721C88.5118 266.987 87.7466 270.119 87.3083 273.902C86.6195 279.843 86.1778 282.246 85.3741 284.424C84.9145 285.67 84.3984 287.525 84.2281 288.546C83.7365 291.49 81.5866 298.569 80.7578 299.971C80.1984 300.918 79.9387 302.092 79.7567 304.493L79.511 307.737L76.8365 310.323C74.1753 312.895 74.1523 312.908 72.2955 312.908C71.0879 312.908 70.3693 313.065 70.2592 313.352C69.9588 314.133 71.6257 316.83 72.7452 317.375C73.3273 317.658 74.0945 318.43 74.4499 319.089C75.1848 320.452 76.2998 320.91 76.2998 319.847C76.2998 319.479 76.4931 319.021 76.7298 318.831C77.1974 318.454 78.4903 318.806 78.8653 319.412C78.9902 319.614 79.467 319.78 79.9246 319.78C80.4093 319.78 80.9694 320.105 81.2673 320.559C81.9599 321.614 81.3578 323.344 79.6356 325.247C78.161 326.878 78.2701 327.559 80.1922 328.73C81.7087 329.653 82.1484 329.577 82.1484 328.388C82.1484 327.187 83.5507 325.384 84.182 325.774C84.4999 325.97 84.4253 326.231 83.8892 326.801C83.2046 327.529 83.1991 327.591 83.7771 328.092C84.1115 328.382 84.9007 328.716 85.5317 328.835C86.1627 328.954 87.1346 329.375 87.6919 329.771C88.2489 330.167 89.2236 330.634 89.858 330.809C90.492 330.984 91.5874 331.585 92.2924 332.144C93.8288 333.364 95.2714 333.682 97.8245 333.363C99.9699 333.095 100.726 333.459 100.726 334.757C100.726 335.31 101.603 336.425 103.531 338.322C105.073 339.84 106.461 341.081 106.615 341.081C106.769 341.081 107.061 340.772 107.263 340.394C107.7 339.578 108.391 339.509 108.983 340.223C109.701 341.087 111.581 340.871 112.334 339.839C112.99 338.94 112.99 338.94 114.169 339.548C116.021 340.505 117.238 341.427 119.701 343.741C120.96 344.924 122.13 345.892 122.302 345.892C122.473 345.892 122.914 345.664 123.281 345.387C123.648 345.11 124.598 344.878 125.391 344.872C126.184 344.866 126.928 344.706 127.045 344.517C127.384 343.97 129.496 344.119 130 344.726C130.252 345.029 130.624 345.609 130.825 346.014C131.026 346.419 131.535 346.8 131.956 346.86C132.569 346.948 132.722 346.802 132.722 346.129C132.722 344.386 134.247 344.16 135.29 345.749C135.863 346.622 137.162 346.782 139.431 346.259C140.031 346.121 141.028 346.212 141.815 346.478C143.664 347.103 143.941 346.677 143.041 344.589L142.296 342.859L142.967 341.344C143.43 340.301 143.968 339.693 144.697 339.391C145.66 338.993 145.858 339.033 146.926 339.846C147.57 340.337 148.326 340.738 148.606 340.738C148.887 340.738 149.462 341.106 149.886 341.556C150.425 342.13 151.188 342.437 152.44 342.584C156.627 343.075 156.844 343.154 157.351 344.365C157.763 345.35 158.039 345.536 159.392 345.739C160.252 345.867 161.415 345.881 161.977 345.769C162.538 345.657 163.365 345.705 163.815 345.875C164.938 346.302 166.094 348.815 166.094 350.832C166.094 351.73 166.259 352.774 166.461 353.151C166.73 353.653 166.717 353.973 166.411 354.341C165.795 355.083 166.454 356.258 167.933 357.053L169.169 357.718L170.198 356.958C170.763 356.541 171.627 356.199 172.117 356.199C172.631 356.199 173.353 355.826 173.824 355.318C174.606 354.476 174.706 354.457 176.13 354.877C176.949 355.119 178.34 355.762 179.221 356.305C181.134 357.484 182.048 357.424 182.2 356.11C182.328 355.008 182.629 354.93 183.414 355.796C184.178 356.639 184.136 356.845 183.123 357.23C181.235 357.946 182.574 360.665 184.815 360.665C185.772 360.665 186.189 360.414 187.063 359.313C188.064 358.05 188.204 357.984 189.163 358.318C189.92 358.582 190.324 358.565 190.697 358.256C191.1 357.923 191.434 357.944 192.324 358.364C192.941 358.654 194.219 359.187 195.165 359.549C196.111 359.91 197.487 360.619 198.223 361.123C199.779 362.189 200.338 362.262 200.789 361.458C201.08 360.939 201.265 360.925 202.49 361.329C204.074 361.851 204.639 361.647 204.377 360.648C204.098 359.583 205.421 358.344 206.646 358.524C207.373 358.631 207.866 358.429 208.554 357.742C209.117 357.18 209.71 356.888 210.064 357C212.256 357.694 212.195 357.702 212.195 356.712C212.195 355.926 212.278 355.84 212.697 356.187C213.01 356.447 213.606 356.514 214.282 356.365C215.216 356.161 215.506 356.281 216.379 357.235C217.307 358.25 217.512 358.323 218.836 358.112C220.781 357.802 221.042 357.439 219.983 356.519C218.399 355.144 217.369 353.297 216.482 350.242L215.613 347.248L216.32 344.961L217.027 342.674L215.978 341.717C215.129 340.942 214.968 340.577 215.139 339.804C215.539 337.98 215.604 337.907 216.671 338.063C217.237 338.146 217.699 338.099 217.699 337.958C217.699 337.307 217.237 336.615 216.802 336.615C216.539 336.615 216.323 336.306 216.323 335.928C216.323 335.55 216.543 335.241 216.812 335.241C217.398 335.241 217.733 333.893 217.752 331.462C217.762 330.158 217.869 329.775 218.145 330.052C218.9 330.805 219.374 330.393 220.179 328.285C220.699 326.927 221.286 325.998 221.779 325.753C222.207 325.539 223.023 324.89 223.59 324.31C224.337 323.547 225.164 323.149 226.58 322.869C229.794 322.235 230.598 321.885 231.207 320.856C232.032 319.462 234.373 317.434 235.477 317.157C235.993 317.028 237.248 316.024 238.266 314.925C240.18 312.861 243.688 310.299 245.078 309.95C246.125 309.688 248.144 311.218 249.025 312.943C249.388 313.654 249.881 314.36 250.12 314.511C250.632 314.835 253.852 315.254 257.952 315.531C261.191 315.749 261.879 316.075 261.582 317.253C261.311 318.332 262.469 319.036 264.66 319.125C265.607 319.164 266.908 319.406 267.552 319.664C268.565 320.069 268.832 320.062 269.53 319.605C270.452 319.001 270.494 318.783 269.927 317.538C269.592 316.804 269.608 316.58 270.013 316.325C271.111 315.631 274.803 316.436 274.817 317.372C274.83 318.218 275.931 319.317 277.183 319.734C279 320.339 280.419 320.201 281.641 319.301C282.621 318.579 282.887 318.526 283.817 318.871C284.4 319.088 285.12 319.632 285.416 320.08C285.909 320.827 285.902 320.986 285.341 321.963C284.731 323.025 284.732 323.033 285.66 323.83C286.256 324.341 286.794 324.542 287.152 324.386C288.668 323.723 289.983 323.835 291.359 324.744C292.396 325.43 292.864 325.569 293.199 325.291C293.79 324.801 295.038 325.288 296.09 326.418C296.537 326.897 297.119 327.206 297.385 327.103C298.097 326.83 298.968 327.698 298.764 328.478C298.573 329.207 299.711 330.399 300.615 330.419C301.319 330.435 302.069 329.162 301.819 328.377C301.535 327.485 302.189 327.199 303.083 327.825C303.521 328.13 304.17 328.266 304.637 328.15C305.077 328.039 305.653 328.127 305.916 328.346C306.181 328.565 306.782 328.645 307.26 328.526C307.92 328.36 308.216 328.478 308.509 329.026C308.84 329.644 308.797 329.744 308.193 329.744C307.307 329.744 307.288 330.297 308.158 330.762C308.901 331.159 310.356 331.236 310.695 330.898C310.816 330.777 310.664 330.253 310.357 329.734C309.616 328.481 309.897 327.907 311.512 327.375C312.73 326.973 312.971 327.002 314.144 327.693C315.579 328.539 315.579 328.539 316.382 326.943C316.697 326.318 317.341 325.619 317.814 325.391C321.975 323.381 321.628 323.479 322.329 324.113C323.215 324.914 324.695 324.283 324.695 323.104C324.695 322.657 325.005 322.011 325.383 321.669C325.762 321.328 326.071 320.845 326.071 320.598C326.071 319.934 324.755 319.347 323.803 319.585C322.529 319.905 322.82 319.223 324.316 318.384C325.779 317.562 326.338 316.729 326.489 315.142C326.577 314.223 326.7 314.121 327.619 314.202C328.187 314.252 329.316 314.114 330.129 313.895C331.353 313.566 331.723 313.258 332.28 312.107C332.649 311.343 332.952 310.542 332.952 310.327C332.952 309.881 334.393 308.442 334.839 308.442C335.001 308.442 335.425 308.179 335.78 307.858C336.318 307.372 336.601 307.339 337.461 307.663C338.763 308.154 339.076 307.579 338.504 305.749C338.151 304.621 338.185 304.429 338.837 303.889C339.237 303.559 339.774 303.288 340.029 303.288C340.285 303.288 340.771 303.001 341.109 302.65C341.984 301.741 343.438 301.456 343.964 302.089C344.567 302.815 345.252 302.723 345.52 301.88C345.646 301.483 346.585 300.317 347.608 299.288C349.424 297.459 349.815 296.673 349.122 296.245C348.608 295.928 348.706 294.842 349.294 294.355C349.578 294.12 349.81 293.631 349.81 293.268C349.81 292.905 350.489 291.88 351.319 290.991C353.317 288.85 354.547 286.271 353.995 285.381C353.212 284.119 352.945 283.521 352.745 282.573C352.483 281.335 351.697 281.052 350.492 281.763C349.964 282.075 349.237 282.33 348.877 282.33C348.518 282.33 347.69 282.724 347.038 283.204C345.418 284.399 343.848 284.095 340.47 281.932C338.592 280.73 337.174 280.109 335.518 279.763C334.242 279.496 333.084 279.153 332.943 279C331.629 277.57 329.417 274.569 329.139 273.839C328.865 273.118 328.904 272.864 329.324 272.63C330.062 272.217 329.992 271.751 328.995 270.446C327.894 269.004 327.913 268.617 329.167 267.041C329.735 266.328 330.2 265.417 330.201 265.018C330.203 263.919 331.417 262.159 332.593 261.552C333.625 261.019 333.999 259.917 333.296 259.482C333.107 259.366 332.952 258.618 332.952 257.821C332.952 255.754 331.475 254.157 329.563 254.157C327.169 254.157 323.508 251.806 324.189 250.706C324.644 249.97 323.926 248.257 322.901 247.634C322.328 247.287 321.502 246.372 321.063 245.602L320.267 244.201L321.009 243.682C321.418 243.396 321.976 243.163 322.25 243.163C322.524 243.163 323.007 242.929 323.324 242.642C323.839 242.178 324.039 242.18 325.206 242.668C327.021 243.424 327.82 243.111 329.372 241.036C330.364 239.709 331.015 239.177 331.856 239.006C334.042 238.561 335.317 236.468 334.341 234.927C334.122 234.58 334.239 234.07 334.716 233.3C335.767 231.601 335.528 231.202 331.114 227.304C329.888 226.221 329.787 225.99 329.712 224.085L329.632 222.033L327.173 220.733C324.959 219.562 324.678 219.295 324.341 218.045C323.757 215.88 324.01 214.498 325.015 214.356C326.245 214.183 329.468 212.276 329.903 211.466C330.734 209.915 328.505 205.575 326.626 205.086C325.673 204.838 325.552 204.665 325.531 203.515C325.51 202.338 325.379 202.166 324.069 201.58C323.278 201.226 322.631 200.716 322.631 200.446C322.631 199.665 323.573 197.626 324.159 197.14C324.947 196.487 324.82 195.81 323.663 194.494C322.573 193.255 322.424 192.654 322.958 191.657C323.378 190.875 322.634 189.762 321.194 189.019C320.341 188.577 319.531 188.522 316.866 188.721C313.82 188.949 313.501 189.045 312.347 190.076C311.66 190.691 310.529 191.291 309.815 191.422C307.969 191.759 306.805 193.131 306.805 194.97C306.805 196.058 306.98 196.54 307.493 196.86C308.629 197.568 308.29 198.382 306.099 200.203C304.297 201.701 303.815 201.934 302.512 201.934C301.295 201.934 300.869 201.76 300.293 201.028C299.901 200.53 299.58 200.023 299.58 199.9C299.58 199.777 300.548 199.218 301.73 198.658C303.737 197.707 303.884 197.559 303.933 196.436C303.961 195.775 304.089 194.844 304.216 194.368C304.394 193.7 304.197 193.188 303.357 192.135C302.434 190.977 302.295 190.562 302.446 189.426C302.545 188.689 302.969 187.621 303.389 187.054C304.059 186.149 304.103 185.887 303.752 184.918C303.532 184.31 303.446 183.57 303.56 183.272C303.785 182.686 306.79 180.298 308.181 179.599C308.654 179.361 309.692 178.642 310.487 178.001C311.762 176.971 311.935 176.663 311.951 175.383C311.961 174.585 312.002 173.159 312.042 172.214C312.081 171.27 311.991 170.238 311.841 169.922C311.465 169.129 312.734 167.92 313.944 167.918C314.503 167.917 315.593 167.386 316.61 166.618C317.963 165.598 318.405 165.014 318.679 163.889C318.955 162.756 319.727 161.746 322.377 159.052C324.22 157.18 325.727 155.375 325.727 155.043C325.727 154.711 326.192 153.911 326.759 153.265C327.327 152.62 327.791 151.772 327.791 151.382C327.791 150.718 327.661 150.689 325.727 150.913C323.269 151.198 323.088 150.848 324.842 149.197C325.642 148.443 326.056 147.712 326.132 146.923C326.237 145.826 326.322 145.755 327.619 145.694C328.376 145.658 329.373 145.58 329.834 145.522C330.485 145.439 330.719 145.607 330.881 146.271C331.136 147.322 333.216 148.798 333.965 148.46C334.259 148.328 335.197 148.15 336.048 148.066C338.129 147.86 339.558 146.842 339.286 145.761C339.112 145.069 339.224 144.936 340.06 144.84C340.933 144.74 341.058 144.566 341.241 143.2C341.353 142.36 341.624 141.612 341.843 141.54C342.534 141.31 342.277 140.278 341.223 139.046C340.15 137.793 339.914 136.71 340.571 136.055C340.867 135.759 340.856 135.273 340.528 134.102C340.149 132.752 340.165 132.428 340.647 131.694C340.953 131.227 341.2 130.49 341.195 130.056C341.182 128.744 341.619 126.903 342.116 126.185C342.782 125.223 342.704 124.698 341.725 123.536C340.753 122.382 340.569 120.403 341.331 119.295C341.587 118.922 341.881 117.965 341.984 117.169C342.088 116.372 342.497 115.307 342.895 114.803C343.292 114.299 343.617 113.401 343.617 112.809C343.617 112.217 344.004 111.165 344.476 110.471C345.184 109.429 345.275 109.049 344.992 108.307C344.338 106.589 344.86 104.397 346.441 102.219C346.794 101.734 346.764 101.444 346.276 100.62C345.445 99.2147 345.493 99.035 347.181 97.2144C348.871 95.3927 349.466 94.4056 349.466 93.4223C349.466 92.9911 350.076 92.3576 351.159 91.6629C352.091 91.0661 353.054 90.3363 353.299 90.0412C353.896 89.3228 354.614 87.2119 354.623 86.1488C354.627 85.6764 354.938 84.8261 355.314 84.2592C355.69 83.6923 355.999 83.1254 356 82.9993C356.001 82.8732 355.215 82.6014 354.253 82.3953C353.291 82.1891 351.854 81.6408 351.061 81.1766C349.726 80.395 349.301 80.3352 345.328 80.3709C341.437 80.4056 340.86 80.329 339.145 79.5498C337.96 79.0118 336.828 78.1573 336.118 77.2661C334.61 75.3719 333.564 75.4083 331.119 77.4389C330.031 78.3428 328.27 78.4971 326.414 77.8512C325.454 77.5169 325.213 77.5433 324.863 78.0229C324.22 78.9011 323.76 78.6994 323.523 77.4347C323.23 75.8794 322.284 75.1084 320.409 74.8974C318.862 74.7233 318.846 74.7318 318.846 75.755C318.846 78.2002 316.491 78.0497 315.09 75.5145C314.63 74.6813 313.429 73.1428 312.421 72.0956C311.087 70.7086 310.589 69.9266 310.589 69.2171C310.589 68.5362 310.131 67.7576 309.064 66.631C307.666 65.153 307.401 65.0176 305.882 65.0025C304.792 64.9918 303.813 64.728 303.021 64.2308C302.358 63.8154 301.556 63.475 301.237 63.4743C300.246 63.4719 298.76 64.1655 297.804 65.076C297.018 65.8253 296.693 65.9157 295.509 65.7157C294.75 65.5879 294.052 65.2811 293.957 65.0348C293.863 64.7881 293.038 64.3329 292.124 64.023C291.21 63.7134 290.21 63.1273 289.901 62.7208C289.396 62.0553 289.236 62.0247 288.299 62.4126C287.726 62.6493 286.878 62.7933 286.414 62.7328C285.95 62.672 285.292 62.8524 284.953 63.1334C284.613 63.4145 283.856 63.6742 283.271 63.7103C282.685 63.7464 281.835 63.8237 281.382 63.8821C280.678 63.9728 280.478 63.757 280.006 62.3992C279.284 60.3202 278.771 59.7578 277.355 59.4926C276.712 59.372 276.186 59.148 276.186 58.9944C276.186 58.4199 274.382 56.6014 273.811 56.6014C273.485 56.6014 272.769 56.1331 272.22 55.5604C270.699 53.9758 267.436 52.4785 265.502 52.4785C264.335 52.4785 263.815 52.3246 263.665 51.935C263.314 51.02 263.431 50.1786 263.972 49.7299C264.758 49.0788 264.597 48.3284 263.41 47.1057L262.332 45.9945L262.894 44.5914C263.203 43.8194 263.456 42.6691 263.456 42.0345C263.456 41.4003 263.689 40.6887 263.972 40.4534C264.67 39.8755 264.622 38.9629 263.859 38.2734C262.897 37.4038 262.458 37.5625 260.67 39.424C259.189 40.9667 259.009 41.3267 258.916 42.9254C258.816 44.6288 258.761 44.7206 257.657 45.0047C257.022 45.1682 255.888 45.708 255.137 46.2041C253.833 47.0662 253.692 47.0871 251.991 46.6776C251.012 46.4415 249.282 46.1402 248.147 46.0079C245.633 45.7152 245.339 45.5434 245.043 44.199C244.857 43.3545 244.956 43.0408 245.532 42.6371C246.486 41.9706 246.443 41.1708 245.371 39.5934L244.488 38.2937L245.543 36.8266C247.046 34.7366 246.837 33.2383 245.041 33.2383C244.278 33.2383 243.182 32.2381 242.501 30.9192C242.041 30.0283 241.124 29.9352 239.758 30.6405C238.933 31.0666 238.613 31.0686 237.453 30.6556C236.712 30.3921 235.598 30.1695 234.979 30.1612C234.074 30.1492 233.785 30.3227 233.511 31.0425C232.954 32.5041 232.249 31.4929 232.091 29.0054C231.929 26.4675 230.878 24.6489 229.573 24.6489C228.432 24.6489 227.676 24.3067 227.676 23.79C227.676 22.9884 226.569 22.8816 225.794 23.6086C224.764 24.5754 223.775 24.4795 222.592 23.298C221.575 22.2824 221.155 20.7081 221.128 17.8152C221.119 16.7907 220.764 16.1863 219.087 14.3417C217.243 12.3125 216.993 12.1476 216.351 12.5379C215.962 12.7743 215.345 12.9674 214.978 12.9674C214.16 12.9674 212.195 14.566 212.195 15.2312C212.195 16.5082 208.858 14.8192 207.425 12.8162C206.788 11.9267 205.908 11.0354 205.469 10.8358C204.202 10.2593 203.128 6.59611 204.116 6.21783C204.913 5.91205 204.725 5.15378 203.43 3.45996C202.575 2.34162 202.317 1.7359 202.523 1.33323C203.27 -0.121124 202.189 -0.425532 199.981 0.617562ZM50.0456 85.6836C49.5729 86.1557 49.8178 86.8848 50.4109 86.7707C50.7423 86.7068 51.013 86.4378 51.013 86.1729C51.013 85.6304 50.4061 85.3236 50.0456 85.6836ZM76.8035 98.142C76.9641 98.4079 77.0697 99.2971 77.0388 100.118C77.0078 100.938 77.1382 101.61 77.3291 101.61C77.936 101.61 77.7358 98.6502 77.0938 98.13C76.5977 97.7284 76.5551 97.7301 76.8035 98.142ZM32.521 134.51C31.6829 134.696 31.7699 135.167 32.7622 135.816C33.5786 136.35 35.0153 136.24 35.0153 135.643C35.0153 134.983 33.4977 134.293 32.521 134.51ZM41.959 141.307C42.0632 142.541 42.9618 143.607 43.4703 143.099C43.7844 142.785 42.7743 140.325 42.2614 140.154C41.9793 140.061 41.8843 140.423 41.959 141.307ZM38.3411 146.504C37.3809 147.463 39.5383 150.644 40.9062 150.287C41.305 150.183 41.9025 150.266 42.2342 150.473C42.9715 150.933 43.9602 150.606 43.9602 149.902C43.9602 149.617 43.5347 149.162 43.0141 148.891C42.4936 148.619 41.6132 147.92 41.0576 147.336C40.1177 146.349 38.8767 145.968 38.3411 146.504ZM64.9331 162.954C64.2894 163.729 64.8564 165.141 66.1073 165.878C66.7338 166.247 67.4277 166.947 67.6493 167.433C67.8712 167.919 68.2441 168.254 68.4777 168.177C69.2467 167.925 69.1262 166.659 68.2324 165.598C67.7498 165.025 67.3548 164.327 67.3548 164.047C67.3548 163.026 65.5503 162.212 64.9331 162.954ZM61.5068 174.962C61.275 175.241 61.169 175.688 61.2715 175.955C61.5058 176.564 63.7582 177.33 64.4914 177.048C64.9902 176.857 64.9909 176.784 64.5003 176.244C64.2034 175.917 63.5033 175.381 62.9446 175.053C62.0532 174.528 61.8767 174.517 61.5068 174.962ZM83.6763 196.237C83.0219 196.715 83.025 196.742 83.8376 197.606C84.2935 198.091 85.2224 198.589 85.9019 198.713C86.581 198.837 87.7755 199.393 88.5554 199.948C89.5201 200.634 90.2911 200.921 90.9637 200.844C92.4665 200.673 92.1747 199.881 90.0613 198.397C88.467 197.277 87.9661 197.094 86.8807 197.235C85.6617 197.392 85.6036 197.357 85.7997 196.575C85.9762 195.874 85.8823 195.749 85.176 195.749C84.7184 195.749 84.0437 195.969 83.6763 196.237ZM110.36 248.464C110.36 248.558 110.669 248.801 111.048 249.003C111.426 249.206 111.736 249.294 111.736 249.199C111.736 249.105 111.426 248.862 111.048 248.66C110.669 248.457 110.36 248.369 110.36 248.464ZM275.222 311.946C274.612 312.556 274.72 313.408 275.498 314.111C275.876 314.453 276.186 314.941 276.186 315.195C276.186 315.503 276.672 315.67 277.648 315.697C279.808 315.758 280.083 315.687 280.756 314.898C281.624 313.879 281.318 313.424 279.766 313.424C278.829 313.424 278.047 313.137 277.185 312.479C275.767 311.395 275.773 311.397 275.222 311.946ZM318.645 329.681C318.061 330.188 317.287 330.788 316.925 331.014C316.353 331.371 316.334 331.474 316.782 331.79C317.805 332.512 318.982 332.05 319.662 330.661C320.493 328.962 320.009 328.496 318.645 329.681ZM310.937 331.285C310.372 331.966 310.743 332.836 311.599 332.836C312.475 332.836 313.123 331.724 312.569 331.17C312.029 330.632 311.446 330.673 310.937 331.285Z" fill="url(#paint0_linear_2010_106)"/>
<path d="M225 75H386" stroke="#3E3E3E" stroke-width="3" stroke-linecap="round" stroke-linejoin="round" stroke-dasharray="8 8"/>
<path d="M204 58.4165C196.281 58.4165 190 64.5477 190 72.0746C189.949 83.0848 203.468 92.2142 204 92.5832C204 92.5832 218.051 83.0848 218 72.0832C218 64.5477 211.719 58.4165 204 58.4165ZM204 78.9165C200.133 78.9165 197 75.8586 197 72.0832C197 68.3078 200.133 65.2498 204 65.2498C207.868 65.2498 211 68.3078 211 72.0832C211 75.8586 207.868 78.9165 204 78.9165Z" fill="white"/>
<path fill-rule="evenodd" clip-rule="evenodd" d="M206.111 66.0215C204.834 66.0739 203.639 67.4095 203.911 68.4696C205.062 68.5745 206.229 67.284 206.111 66.0215ZM208.219 74.3212C207.923 74.9824 207.503 75.5725 206.988 76.1026C206.519 76.5877 205.935 76.7357 205.308 76.4716C204.465 76.1119 203.654 76.1119 202.814 76.4753C202.198 76.7413 201.637 76.5914 201.172 76.1157C200.155 75.0892 199.534 73.8661 199.319 72.4519C199.187 71.5771 199.25 70.7305 199.702 69.9438C200.199 69.0859 200.96 68.6045 201.963 68.5502C202.305 68.5333 202.678 68.6083 202.989 68.745C203.618 69.026 204.207 69.0166 204.838 68.7412C205.57 68.4209 206.344 68.4172 207.072 68.7506C207.103 68.7646 207.134 68.7801 207.164 68.7957L207.164 68.7957C207.183 68.8051 207.201 68.8145 207.22 68.8237C207.099 68.9304 207.057 69.1065 207.132 69.2582C207.172 69.3481 207.214 69.438 207.257 69.5261C207.27 69.5504 207.264 69.5635 207.243 69.5823L207.188 69.6357C207.097 69.7247 207.005 69.8142 206.917 69.9063C206.869 69.9588 206.826 70.0112 206.786 70.0674L206.467 69.955C206.271 69.8895 206.054 69.9831 205.975 70.1704C205.921 70.3053 205.871 70.4402 205.823 70.575L205.823 70.5752L205.823 70.5752C205.821 70.5808 205.819 70.5863 205.818 70.59C205.752 70.7829 205.86 70.9927 206.062 71.0564C206.091 71.067 206.121 71.0778 206.15 71.0885C206.214 71.1119 206.277 71.1351 206.34 71.1557C206.369 71.165 206.369 71.1744 206.369 71.2006C206.346 71.4104 206.354 71.6202 206.392 71.8263C206.396 71.8525 206.392 71.8656 206.365 71.8787C206.3 71.905 206.237 71.9341 206.172 71.9634L206.172 71.9634C206.145 71.9758 206.118 71.9882 206.09 72.0005C205.894 72.0885 205.808 72.3114 205.894 72.5024L206.071 72.8864C206.073 72.8939 206.075 72.8995 206.079 72.9052C206.169 73.0887 206.398 73.1674 206.588 73.0775L206.863 72.9557C206.876 72.9426 206.899 72.9426 206.915 72.9557C206.93 72.9724 206.946 72.9892 206.961 73.006C207.006 73.055 207.05 73.1035 207.099 73.1468C207.166 73.2073 207.236 73.2645 207.308 73.3228L207.308 73.3228C207.342 73.3511 207.377 73.3797 207.412 73.409C207.378 73.5046 207.335 73.6076 207.293 73.705C207.218 73.8979 207.316 74.1133 207.516 74.1845C207.652 74.2369 207.789 74.2856 207.927 74.3343C207.928 74.3355 207.93 74.3359 207.931 74.3365L207.935 74.3381C208.033 74.3662 208.133 74.3587 208.219 74.3212ZM208.654 72.907C208.711 72.5792 208.742 72.2233 208.742 71.8525C208.742 71.1388 208.625 70.4832 208.435 69.9812C207.77 70.1423 207.276 70.7286 207.278 71.4273C207.278 72.2027 207.881 72.8358 208.654 72.907Z" fill="white"/>
<defs>
<linearGradient id="paint0_linear_2010_106" x1="224.141" y1="316.261" x2="281.948" y2="18.9531" gradientUnits="userSpaceOnUse">
<stop stop-color="#E65411"/>
<stop offset="1" stop-color="#FF7C40"/>
</linearGradient>
</defs>
</svg>
