<svg width="356" height="382" viewBox="0 0 356 382" fill="none" xmlns="http://www.w3.org/2000/svg">
<path fill-rule="evenodd" clip-rule="evenodd" d="M199.981 20.6185C199.224 20.9762 197.909 21.2734 197.057 21.2792C196.206 21.2851 194.58 21.6719 193.445 22.1392C192.309 22.6061 190.683 22.992 189.831 22.9964C186.642 23.0133 182.141 24.6755 179.428 26.8379C178.399 27.6587 177.283 28.4878 176.948 28.6805C176.378 29.009 176.375 29.1148 176.894 30.3558C177.391 31.5442 177.396 31.8558 176.94 33.3885C176.195 35.8942 176.174 40.7225 176.905 41.5289C177.413 42.0896 177.417 42.1827 176.946 42.3634C176.611 42.4916 176.415 42.9994 176.415 43.737C176.415 44.3805 176.183 45.5645 175.899 46.3678C175.221 48.2863 175.227 48.3231 176.329 48.9198C176.983 49.2744 177.093 49.4366 176.685 49.4462C175.891 49.4648 175.382 50.5078 175.388 52.1C175.394 53.6375 175.532 53.8756 177.018 54.9118C177.633 55.3409 178.297 55.991 178.492 56.3565C178.833 56.9915 178.787 56.9887 177.452 56.294C175.591 55.3251 174.224 55.813 173.638 57.6552C173.191 59.0618 170.81 61.6599 167.47 64.3855C164.482 66.8232 162.726 67.6694 160.654 67.6694C159.521 67.6694 158.444 67.9494 157.358 68.5256C156.178 69.1526 154.883 69.4612 152.53 69.6773C150.18 69.893 149.045 70.1634 148.319 70.6798C147.772 71.0687 146.632 71.7583 145.786 72.2118C144.939 72.6653 143.938 73.2109 143.559 73.4243C143.181 73.6377 141.865 74.299 140.635 74.8941C137.874 76.2296 137.899 76.2049 137.507 77.9471C137.33 78.7322 136.63 80.2099 135.952 81.2307L134.718 83.0867L135.651 84.3081C136.921 85.9713 138.516 86.3657 142.414 85.9809C144.085 85.816 145.451 85.7903 145.451 85.9236C145.451 86.0572 144.903 86.5052 144.232 86.9192C143.212 87.5487 142.715 87.6349 141.201 87.4463C138.922 87.1618 138.023 87.5026 134.972 89.8087C131.815 92.1948 131.501 92.3384 128.902 92.5917C126.778 92.7985 126.623 92.7583 124.465 91.4458L122.229 90.0856L117.332 89.8338C112.438 89.5816 111.635 89.4115 108.534 87.9716C105.309 86.4743 102.791 86.7234 102.791 88.5389C102.791 89.1405 102.627 89.3339 102.189 89.25C101.753 89.1669 101.536 88.6955 101.404 87.55C101.278 86.4623 100.765 85.2876 99.7693 83.8068C97.9676 81.1272 97.9222 80.1587 99.5223 78.5607C100.99 77.0951 101.039 76.1746 99.7208 74.858C98.9626 74.1008 98.3911 73.8527 97.3986 73.849C96.6744 73.8466 95.7613 73.7583 95.3691 73.6531C94.874 73.5205 94.208 73.8362 93.1865 74.6887C92.378 75.3634 91.3827 75.9135 90.9747 75.9114C89.6681 75.9049 86.9336 74.9243 85.1274 73.8143C81.8319 71.7892 79.7157 72.7392 82.2853 75.09C83.3185 76.0351 83.5246 76.4557 83.5246 77.619C83.5246 78.5889 83.3151 79.1933 82.8365 79.6025C81.9468 80.3631 81.9681 80.5734 83.0298 81.4952C83.774 82.1415 83.9034 82.528 83.8604 83.9837C83.7798 86.7286 83.8146 86.8564 84.9021 87.8239C86.6577 89.3861 87.9971 91.7846 87.9971 93.3664C87.9971 94.3058 88.2836 95.2032 88.8496 96.036C89.4964 96.9877 89.6209 97.4419 89.3656 97.9181C88.8472 98.8856 88.9669 101.098 89.5851 101.98C89.9942 102.563 90.0396 102.873 89.7572 103.155C89.2208 103.691 89.2786 104.613 89.8803 105.112C90.3252 105.481 90.3173 105.664 89.816 106.614C89.42 107.364 89.2514 108.504 89.2669 110.332C89.2917 113.309 89.6061 113.943 92.2748 116.4C93.1387 117.195 93.8457 117.93 93.8457 118.033C93.8457 118.136 92.4135 118.196 90.6634 118.167C88.9132 118.138 86.3047 118.221 84.867 118.351C82.3012 118.584 82.2396 118.571 81.5075 117.641C80.8369 116.79 80.8142 116.637 81.2832 116.119C81.8691 115.473 81.9829 114.396 81.4652 114.396C80.3133 114.396 77.7613 115.392 76.9318 116.166C76.3944 116.667 75.8684 116.938 75.7631 116.767C75.3877 116.161 74.2617 116.472 73.1456 117.49C71.8816 118.643 71.4901 118.648 70.9211 117.518C70.2172 116.12 69.8412 115.937 69.0832 116.622C68.2321 117.391 68.1571 116.936 68.9845 116.023C69.5529 115.396 69.5498 115.341 68.9198 114.881C68.3332 114.453 68.165 114.484 67.4491 115.156C66.9492 115.625 66.2749 115.886 65.6824 115.841C65.0398 115.792 64.4577 116.052 63.9151 116.628C63.4703 117.101 62.9559 117.488 62.7719 117.488C62.5878 117.488 61.7759 118.029 60.9677 118.69C60.1593 119.352 59.2486 119.893 58.9431 119.893C58.6379 119.893 58.299 120.125 58.1903 120.408C57.8862 121.199 56.9432 121.063 57.1971 120.264C57.3481 119.788 57.0199 119.222 56.016 118.23C55.2271 117.449 54.6254 116.526 54.6254 116.096C54.6254 115.679 54.0835 114.739 53.4213 114.007C52.7225 113.234 52.2171 112.316 52.2171 111.818C52.2171 110.891 51.1351 109.586 50.3669 109.586C49.5945 109.586 49.0671 108.746 49.5419 108.272C50.1773 107.637 49.2973 106.905 48.4984 107.404C47.96 107.739 47.9074 107.657 48.0237 106.662C48.2232 104.956 47.5406 104.894 45.6925 106.45L44.0301 107.85L44.3968 106.657C44.8351 105.231 44.5444 104.796 43.6771 105.579C43.33 105.893 42.4774 106.15 41.7828 106.15C40.9585 106.15 40.2691 106.4 39.7974 106.871L39.0752 107.592L37.9055 106.46L36.7358 105.328L35.5313 106.641C34.1459 108.152 34.1507 108.134 34.8684 108.926C35.3648 109.474 35.3503 109.542 34.6963 109.749C34.1528 109.922 33.9831 110.263 33.9831 111.184C33.9831 111.848 33.8421 112.34 33.6694 112.277C33.497 112.214 32.1924 111.545 30.7702 110.79L28.1847 109.419L27.2995 110.249C26.7535 110.761 26.4143 111.452 26.4143 112.05C26.4143 113.193 25.9612 113.301 25.2731 112.32C25.0024 111.934 24.5679 111.663 24.3074 111.718C23.9916 111.785 23.7972 111.419 23.7236 110.616C23.6627 109.955 23.4996 109.297 23.361 109.155C23.2223 109.012 22.4204 109.234 21.5792 109.647C20.738 110.06 19.6337 110.359 19.1252 110.312C17.8784 110.195 16.7813 110.832 16.7813 111.671C16.7813 112.256 16.677 112.303 16.0801 111.984C15.6944 111.778 15.0752 111.705 14.704 111.823C14.1821 111.989 14.029 111.876 14.029 111.326C14.029 110.323 11.984 110.333 11.072 111.341C10.5177 111.953 10.1582 112.035 8.74454 111.868C7.12206 111.676 7.07733 111.695 7.23112 112.499C7.3763 113.258 7.30337 113.31 6.3583 113.121C5.36506 112.923 5.33616 112.952 5.57527 113.904C5.82056 114.88 5.81472 114.884 5.12354 114.26C4.19258 113.418 2.91104 113.754 1.59681 115.183C0.915275 115.925 0.613554 116.581 0.675481 117.187C0.725711 117.683 0.585343 118.308 0.363095 118.575C-0.118558 119.155 -0.121998 122.631 0.358622 123.243C0.816881 123.827 1.58236 123.782 2.23088 123.135C2.61138 122.755 2.87629 122.704 3.13535 122.963C3.67549 123.502 4.9443 123.41 7.11277 122.675C9.91805 121.723 12.6735 120.923 13.1224 120.929C13.3371 120.932 12.6769 121.357 11.6554 121.874C9.83067 122.797 8.84706 123.766 9.28812 124.206C9.57677 124.494 10.8473 124.48 12.0556 124.174C12.8259 123.979 12.9683 124.034 12.8038 124.462C12.6628 124.829 12.9762 125.167 13.8311 125.572C15.4247 126.328 15.3879 126.536 13.7107 126.253C12.9635 126.127 12.0652 126.183 11.6995 126.378C11.2144 126.638 10.8497 126.599 10.3257 126.233C9.93354 125.958 9.37207 125.826 9.07791 125.938C8.33066 126.225 6.53375 125.365 6.34075 124.628C6.09029 123.671 5.08398 123.868 5.08398 124.875C5.08398 125.409 4.88891 125.734 4.56792 125.734C3.72021 125.734 3.98409 126.734 4.89201 126.962C5.6771 127.158 5.71907 127.283 5.53192 128.858C5.29006 130.898 5.76724 131.07 6.88708 129.349C7.31438 128.691 7.84763 128.082 8.07195 127.994C8.59076 127.79 12.1316 130.467 12.6872 131.483C12.9848 132.027 13.0058 132.477 12.7588 133.029C12.446 133.728 12.1505 133.813 9.86542 133.864C5.47343 133.963 1.14509 134.379 0.693371 134.747C0.217911 135.135 0.713669 136.041 1.40071 136.041C1.59922 136.041 2.04441 136.296 2.39016 136.609C2.73592 136.922 3.59326 137.212 4.2951 137.255C5.13318 137.306 5.95543 137.67 6.69098 138.318C8.06885 139.532 9.73399 141.819 9.44775 142.105C9.33147 142.221 9.39477 142.611 9.58812 142.971C9.85647 143.472 9.76977 143.901 9.22069 144.789C8.4153 146.09 8.52677 146.26 10.5886 146.884C11.8264 147.259 14.2464 146.948 14.865 146.335C15.0618 146.14 15.0067 145.686 14.7212 145.153C14.1236 144.038 14.437 143.744 15.4887 144.432C16.5549 145.13 16.8993 144.786 16.2005 143.721C15.9012 143.265 15.7485 142.798 15.8616 142.686C15.9748 142.573 16.2425 142.848 16.4568 143.297C17.0087 144.456 18.6755 145.705 19.334 145.452C19.6361 145.336 19.9763 144.872 20.0899 144.421C20.3816 143.26 21.0442 143.402 21.5242 144.728C21.7488 145.348 22.5494 146.457 23.3032 147.193C24.5541 148.413 24.7509 148.494 25.5608 148.125C26.5234 147.687 27.9054 148.165 28.8037 149.246C29.0937 149.595 29.8203 149.784 30.8699 149.784C32.4419 149.784 32.5086 149.826 33.1502 151.244C33.6721 152.397 34.0169 152.728 34.7882 152.816C35.5743 152.906 35.9995 152.654 36.9653 151.527C38.2771 149.997 39.2892 149.569 38.1367 151.033C37.7445 151.531 37.4235 152.131 37.4235 152.366C37.4235 152.978 39.5139 154.937 40.1669 154.937C40.7648 154.937 41.896 153.273 41.896 152.394C41.896 151.742 42.2879 151.687 42.8593 152.258C43.5446 152.942 43.3293 153.735 42.24 154.54C40.9819 155.469 40.9719 155.837 42.1681 157.208C43.3681 158.584 44.4323 159.128 45.4324 158.877C46.4033 158.634 49.4136 160.528 50.0287 161.769C50.7829 163.292 52.4769 163.667 53.7024 162.582C54.2005 162.141 54.4221 162.096 54.5322 162.41C54.6987 162.885 56.0016 163.01 56.0016 162.551C56.0016 162.393 56.3886 162.087 56.8616 161.872C57.4861 161.587 57.7217 161.585 57.7217 161.862C57.7217 162.105 58.1955 162.18 59.0312 162.068C59.8025 161.964 60.5797 162.067 60.9234 162.318C61.6307 162.835 61.6727 163.183 61.0269 163.183C60.7634 163.183 60.4489 163.44 60.3282 163.755C60.1248 164.284 61.137 165.707 62.5004 166.809C62.9067 167.137 62.9019 167.225 62.4695 167.391C62.1891 167.498 61.7415 167.448 61.4749 167.28C60.7672 166.832 60.3987 166.905 59.4712 167.676L58.6403 168.367L60.1052 169.858C61.0534 170.822 61.4325 171.434 61.1793 171.59C60.964 171.723 60.5693 171.651 60.302 171.429C59.8259 171.034 59.0979 171.216 59.0979 171.729C59.0979 171.872 59.6573 172.255 60.3406 172.581C61.5127 173.139 61.608 173.139 62.0136 172.585C62.4124 172.041 62.4908 172.054 63.0929 172.77C63.4503 173.195 63.9911 173.679 64.2953 173.846C65.164 174.323 67.2151 173.584 68.1705 172.45C68.9288 171.55 69.14 171.471 69.9543 171.78C70.607 172.028 71.207 172.012 71.9983 171.726C72.9795 171.372 73.2475 171.414 74.1602 172.063C74.733 172.47 75.5284 172.803 75.9279 172.803C76.372 172.803 76.9077 173.22 77.3075 173.877C77.667 174.467 78.4001 175.239 78.9365 175.592C79.4732 175.946 79.7474 176.236 79.5461 176.237C79.3449 176.238 78.1837 175.579 76.9658 174.773C73.7845 172.667 73.0631 172.409 71.0838 172.671C69.1858 172.923 68.219 173.623 68.5858 174.48C69.1063 175.696 68.8813 176.382 67.6988 177.183C66.1455 178.235 66.053 178.571 67.2444 178.831C69.1493 179.248 70.1188 179.775 71.7155 181.259L73.3342 182.765L72.3657 183.774C71.636 184.535 71.4499 184.992 71.6099 185.628C71.7805 186.309 71.6714 186.511 71.0494 186.667C70.2093 186.878 68.0429 189.461 68.0429 190.253C68.0429 190.522 69.1022 191.847 70.3971 193.197C74.2689 197.233 76.5712 201.169 76.8957 204.305C77.0484 205.786 77.1946 206.124 77.6116 205.965C77.9229 205.845 78.566 206.173 79.1959 206.773C79.779 207.328 80.5658 207.837 80.9443 207.905C81.3454 207.976 81.6781 208.348 81.7425 208.796C81.8405 209.484 82.0483 209.566 83.7011 209.566C85.2214 209.566 85.6449 209.702 86.0852 210.33C86.3797 210.75 86.6209 211.426 86.6209 211.833C86.6209 213.013 87.3503 213.399 88.6504 212.91C89.6526 212.532 89.8057 212.559 90.1459 213.174C90.6678 214.119 92.6663 216.094 93.1005 216.094C93.2959 216.094 93.5051 215.669 93.565 215.149C93.7184 213.817 94.9022 213.718 96.0389 214.942C96.8406 215.806 96.8722 215.945 96.3899 216.477C96.0981 216.799 95.5146 217.149 95.0932 217.255C94.6521 217.365 94.069 217.988 93.717 218.725L93.1071 220.003L94.3067 221.054C94.9662 221.633 95.6801 222.667 95.8931 223.353C96.1057 224.039 96.5836 224.875 96.9551 225.21C97.9511 226.111 97.8039 226.745 96.598 226.745C95.4159 226.745 95.375 226.891 96.082 228.581C96.8251 230.357 96.7287 230.858 95.5659 231.263C94.9982 231.46 94.5338 231.792 94.5338 232C94.5338 232.716 92.5511 229.663 92.3209 228.592C92.0681 227.416 91.0556 226.307 89.7173 225.738C89.2442 225.537 88.5936 225.184 88.2716 224.954C87.4937 224.398 87.0558 224.887 87.5801 225.725C87.8096 226.091 87.9971 226.713 87.9971 227.106C87.9971 228.061 88.5489 229.059 89.9302 230.601C90.5605 231.305 91.1681 232.31 91.2806 232.834C91.8616 235.543 92.3526 235.762 93.5282 233.836L94.1873 232.757L94.1884 233.801C94.1894 234.598 94.5964 235.245 95.9099 236.537C96.856 237.467 97.6301 238.383 97.6301 238.572C97.6301 238.761 96.8894 238.187 95.9842 237.296C94.6174 235.952 94.1213 235.678 93.0599 235.678C91.8957 235.678 91.7811 235.762 91.7767 236.622C91.7743 237.142 91.6786 237.915 91.5647 238.34C91.3986 238.959 91.4987 239.113 92.0684 239.113C92.4592 239.113 92.903 239.325 93.0544 239.584C93.2058 239.843 93.9489 240.37 94.7058 240.755C96.4105 241.623 97.8145 243.107 98.1083 244.353C98.2312 244.873 98.5618 245.298 98.8439 245.298C99.6661 245.298 103.58 249.067 104.425 250.673C104.851 251.482 105.366 253.348 105.57 254.82C105.774 256.291 106.041 257.727 106.163 258.01C106.285 258.293 106.397 259.453 106.413 260.587C106.455 263.584 107.094 265.399 108.658 266.961C109.821 268.123 109.914 268.317 109.305 268.317C108.129 268.317 107.334 267.701 106.355 266.032C105.557 264.673 105.408 263.988 105.312 261.227C105.16 256.828 104.555 255.663 100.146 251.27C97.0243 248.16 96.598 247.594 96.598 246.559C96.598 244.47 94.9927 244.081 94.0511 245.941C93.4036 247.219 93.2061 248.709 93.1119 253.028C93.0393 256.339 92.914 257.041 92.1014 258.697C91.2634 260.404 91.1577 261.052 91.0105 265.397C90.8746 269.414 90.6978 270.648 89.9385 272.88C89.4382 274.35 89.0292 276.144 89.0292 276.866C89.0292 277.588 88.8661 278.646 88.6666 279.217C88.4674 279.788 88.3511 281.164 88.4085 282.274L88.5131 284.293L88.9721 282.747C90.0327 279.175 91.4168 277.534 92.7637 278.254C93.7139 278.762 94.8778 280.309 94.8778 281.064C94.8778 281.925 93.6751 282.497 92.4351 282.224C91.1175 281.935 90.6376 282.351 89.5504 284.722C88.5118 286.988 87.7466 290.12 87.3083 293.903C86.6195 299.844 86.1778 302.247 85.3741 304.425C84.9145 305.671 84.3984 307.526 84.2281 308.547C83.7365 311.491 81.5866 318.57 80.7578 319.972C80.1984 320.919 79.9387 322.093 79.7567 324.494L79.511 327.738L76.8365 330.324C74.1753 332.896 74.1523 332.909 72.2955 332.909C71.0879 332.909 70.3693 333.066 70.2592 333.353C69.9588 334.134 71.6257 336.831 72.7452 337.376C73.3273 337.659 74.0945 338.431 74.4499 339.09C75.1848 340.453 76.2998 340.91 76.2998 339.848C76.2998 339.479 76.4931 339.022 76.7298 338.832C77.1974 338.455 78.4903 338.807 78.8653 339.413C78.9902 339.615 79.467 339.781 79.9246 339.781C80.4093 339.781 80.9694 340.106 81.2673 340.56C81.9599 341.615 81.3578 343.345 79.6356 345.248C78.161 346.879 78.2701 347.56 80.1922 348.731C81.7087 349.654 82.1484 349.578 82.1484 348.389C82.1484 347.188 83.5507 345.385 84.182 345.774C84.4999 345.971 84.4253 346.232 83.8892 346.802C83.2046 347.53 83.1991 347.592 83.7771 348.093C84.1115 348.383 84.9007 348.717 85.5317 348.836C86.1627 348.955 87.1346 349.376 87.6919 349.772C88.2489 350.168 89.2236 350.635 89.858 350.81C90.492 350.985 91.5874 351.586 92.2924 352.145C93.8288 353.365 95.2714 353.683 97.8245 353.364C99.9699 353.096 100.726 353.46 100.726 354.758C100.726 355.311 101.603 356.426 103.531 358.323C105.073 359.841 106.461 361.082 106.615 361.082C106.769 361.082 107.061 360.773 107.263 360.395C107.7 359.579 108.391 359.51 108.983 360.224C109.701 361.088 111.581 360.872 112.334 359.84C112.99 358.941 112.99 358.941 114.169 359.549C116.021 360.506 117.238 361.428 119.701 363.742C120.96 364.925 122.13 365.893 122.302 365.893C122.473 365.893 122.914 365.665 123.281 365.388C123.648 365.111 124.598 364.879 125.391 364.873C126.184 364.867 126.928 364.707 127.045 364.518C127.384 363.971 129.496 364.12 130 364.727C130.252 365.03 130.624 365.61 130.825 366.015C131.026 366.42 131.535 366.801 131.956 366.861C132.569 366.949 132.722 366.803 132.722 366.13C132.722 364.387 134.247 364.161 135.29 365.75C135.863 366.623 137.162 366.783 139.431 366.26C140.031 366.122 141.028 366.213 141.815 366.479C143.664 367.104 143.941 366.678 143.041 364.59L142.296 362.86L142.967 361.345C143.43 360.302 143.968 359.694 144.697 359.392C145.66 358.994 145.858 359.034 146.926 359.847C147.57 360.338 148.326 360.739 148.606 360.739C148.887 360.739 149.462 361.107 149.886 361.557C150.425 362.131 151.188 362.438 152.44 362.585C156.627 363.076 156.844 363.155 157.351 364.366C157.763 365.351 158.039 365.537 159.392 365.74C160.252 365.868 161.415 365.882 161.977 365.77C162.538 365.658 163.365 365.706 163.815 365.876C164.938 366.303 166.094 368.816 166.094 370.833C166.094 371.731 166.259 372.775 166.461 373.152C166.73 373.654 166.717 373.974 166.411 374.342C165.795 375.084 166.454 376.259 167.933 377.054L169.169 377.719L170.198 376.959C170.763 376.542 171.627 376.2 172.117 376.2C172.631 376.2 173.353 375.827 173.824 375.319C174.606 374.477 174.706 374.458 176.13 374.878C176.949 375.12 178.34 375.763 179.221 376.306C181.134 377.485 182.048 377.425 182.2 376.111C182.328 375.009 182.629 374.931 183.414 375.797C184.178 376.64 184.136 376.846 183.123 377.23C181.235 377.947 182.574 380.666 184.815 380.666C185.772 380.666 186.189 380.415 187.063 379.314C188.064 378.051 188.204 377.985 189.163 378.319C189.92 378.583 190.324 378.566 190.697 378.257C191.1 377.923 191.434 377.945 192.324 378.365C192.941 378.655 194.219 379.188 195.165 379.55C196.111 379.911 197.487 380.62 198.223 381.124C199.779 382.19 200.338 382.263 200.789 381.459C201.08 380.94 201.265 380.926 202.49 381.33C204.074 381.852 204.639 381.648 204.377 380.649C204.098 379.584 205.421 378.345 206.646 378.525C207.373 378.632 207.866 378.43 208.554 377.743C209.117 377.181 209.71 376.889 210.064 377.001C212.256 377.695 212.195 377.703 212.195 376.713C212.195 375.927 212.278 375.841 212.697 376.188C213.01 376.448 213.606 376.515 214.282 376.366C215.216 376.162 215.506 376.282 216.379 377.236C217.307 378.251 217.512 378.324 218.836 378.113C220.781 377.803 221.042 377.44 219.983 376.52C218.399 375.145 217.369 373.298 216.482 370.243L215.613 367.249L216.32 364.962L217.027 362.675L215.978 361.718C215.129 360.943 214.968 360.578 215.139 359.805C215.539 357.981 215.604 357.908 216.671 358.064C217.237 358.147 217.699 358.1 217.699 357.959C217.699 357.308 217.237 356.616 216.802 356.616C216.539 356.616 216.323 356.307 216.323 355.929C216.323 355.551 216.543 355.242 216.812 355.242C217.398 355.242 217.733 353.894 217.752 351.463C217.762 350.158 217.869 349.776 218.145 350.053C218.9 350.806 219.374 350.394 220.179 348.286C220.699 346.928 221.286 345.999 221.779 345.754C222.207 345.54 223.023 344.891 223.59 344.311C224.337 343.548 225.164 343.15 226.58 342.87C229.794 342.236 230.598 341.886 231.207 340.857C232.032 339.463 234.373 337.435 235.477 337.158C235.993 337.029 237.248 336.025 238.266 334.926C240.18 332.862 243.688 330.3 245.078 329.951C246.125 329.689 248.144 331.219 249.025 332.944C249.388 333.655 249.881 334.361 250.12 334.512C250.632 334.836 253.852 335.255 257.952 335.531C261.191 335.75 261.879 336.076 261.582 337.254C261.311 338.333 262.469 339.037 264.66 339.126C265.607 339.165 266.908 339.407 267.552 339.665C268.565 340.07 268.832 340.063 269.53 339.606C270.452 339.002 270.494 338.784 269.927 337.539C269.592 336.805 269.608 336.581 270.013 336.326C271.111 335.632 274.803 336.437 274.817 337.373C274.83 338.219 275.931 339.318 277.183 339.735C279 340.34 280.419 340.202 281.641 339.302C282.621 338.58 282.887 338.527 283.817 338.872C284.4 339.089 285.12 339.633 285.416 340.081C285.909 340.828 285.902 340.987 285.341 341.964C284.731 343.026 284.732 343.034 285.66 343.831C286.256 344.342 286.794 344.543 287.152 344.387C288.668 343.724 289.983 343.836 291.359 344.745C292.396 345.431 292.864 345.57 293.199 345.292C293.79 344.802 295.038 345.289 296.09 346.419C296.537 346.898 297.119 347.206 297.385 347.104C298.097 346.831 298.968 347.699 298.764 348.479C298.573 349.207 299.711 350.4 300.615 350.42C301.319 350.436 302.069 349.163 301.819 348.378C301.535 347.486 302.189 347.2 303.083 347.826C303.521 348.131 304.17 348.267 304.637 348.151C305.077 348.04 305.653 348.128 305.916 348.346C306.181 348.566 306.782 348.646 307.26 348.527C307.92 348.361 308.216 348.479 308.509 349.027C308.84 349.645 308.797 349.744 308.193 349.744C307.307 349.744 307.288 350.298 308.158 350.763C308.901 351.16 310.356 351.237 310.695 350.899C310.816 350.778 310.664 350.254 310.357 349.735C309.616 348.482 309.897 347.908 311.512 347.376C312.73 346.974 312.971 347.003 314.144 347.694C315.579 348.54 315.579 348.54 316.382 346.944C316.697 346.319 317.341 345.62 317.814 345.392C321.975 343.382 321.628 343.48 322.329 344.114C323.215 344.915 324.695 344.284 324.695 343.105C324.695 342.658 325.005 342.012 325.383 341.67C325.762 341.329 326.071 340.846 326.071 340.599C326.071 339.935 324.755 339.348 323.803 339.586C322.529 339.906 322.82 339.224 324.316 338.385C325.779 337.563 326.338 336.73 326.489 335.143C326.577 334.224 326.7 334.122 327.619 334.203C328.187 334.253 329.316 334.115 330.129 333.896C331.353 333.567 331.723 333.259 332.28 332.108C332.649 331.344 332.952 330.543 332.952 330.328C332.952 329.882 334.393 328.443 334.839 328.443C335.001 328.443 335.425 328.18 335.78 327.859C336.318 327.373 336.601 327.34 337.461 327.664C338.763 328.155 339.076 327.58 338.504 325.75C338.151 324.622 338.185 324.43 338.837 323.89C339.237 323.56 339.774 323.289 340.029 323.289C340.285 323.289 340.771 323.002 341.109 322.65C341.984 321.742 343.438 321.457 343.964 322.09C344.567 322.816 345.252 322.724 345.52 321.881C345.646 321.484 346.585 320.318 347.608 319.289C349.424 317.46 349.815 316.674 349.122 316.246C348.608 315.929 348.706 314.843 349.294 314.356C349.578 314.121 349.81 313.632 349.81 313.269C349.81 312.906 350.489 311.881 351.319 310.992C353.317 308.851 354.547 306.272 353.995 305.382C353.212 304.12 352.945 303.522 352.745 302.574C352.483 301.336 351.697 301.053 350.492 301.764C349.964 302.076 349.237 302.331 348.877 302.331C348.518 302.331 347.69 302.725 347.038 303.205C345.418 304.4 343.848 304.096 340.47 301.933C338.592 300.731 337.174 300.11 335.518 299.764C334.242 299.497 333.084 299.154 332.943 299.001C331.629 297.571 329.417 294.57 329.139 293.84C328.865 293.119 328.904 292.865 329.324 292.631C330.062 292.218 329.992 291.752 328.995 290.447C327.894 289.005 327.913 288.618 329.167 287.042C329.735 286.329 330.2 285.418 330.201 285.019C330.203 283.92 331.417 282.16 332.593 281.553C333.625 281.02 333.999 279.918 333.296 279.483C333.107 279.367 332.952 278.619 332.952 277.822C332.952 275.755 331.475 274.158 329.563 274.158C327.169 274.158 323.508 271.807 324.189 270.707C324.644 269.971 323.926 268.258 322.901 267.635C322.328 267.288 321.502 266.373 321.063 265.603L320.267 264.202L321.009 263.683C321.418 263.397 321.976 263.164 322.25 263.164C322.524 263.164 323.007 262.93 323.324 262.643C323.839 262.179 324.039 262.181 325.206 262.668C327.021 263.425 327.82 263.112 329.372 261.037C330.364 259.71 331.015 259.178 331.856 259.007C334.042 258.562 335.317 256.469 334.341 254.928C334.122 254.581 334.239 254.071 334.716 253.301C335.767 251.602 335.528 251.203 331.114 247.305C329.888 246.222 329.787 245.991 329.712 244.086L329.632 242.034L327.173 240.734C324.959 239.563 324.678 239.296 324.341 238.046C323.757 235.881 324.01 234.499 325.015 234.357C326.245 234.184 329.468 232.277 329.903 231.467C330.734 229.915 328.505 225.576 326.626 225.087C325.673 224.839 325.552 224.666 325.531 223.516C325.51 222.339 325.379 222.166 324.069 221.581C323.278 221.227 322.631 220.717 322.631 220.447C322.631 219.666 323.573 217.626 324.159 217.141C324.947 216.488 324.82 215.811 323.663 214.495C322.573 213.256 322.424 212.655 322.958 211.658C323.378 210.876 322.634 209.763 321.194 209.02C320.341 208.578 319.531 208.523 316.866 208.722C313.82 208.95 313.501 209.046 312.347 210.077C311.66 210.692 310.529 211.292 309.815 211.423C307.969 211.76 306.805 213.132 306.805 214.971C306.805 216.059 306.98 216.541 307.493 216.861C308.629 217.569 308.29 218.383 306.099 220.204C304.297 221.702 303.815 221.935 302.512 221.935C301.295 221.935 300.869 221.761 300.293 221.029C299.901 220.531 299.58 220.024 299.58 219.901C299.58 219.778 300.548 219.219 301.73 218.659C303.737 217.708 303.884 217.559 303.933 216.437C303.961 215.776 304.089 214.845 304.216 214.369C304.394 213.701 304.197 213.189 303.357 212.135C302.434 210.978 302.295 210.563 302.446 209.427C302.545 208.69 302.969 207.622 303.389 207.055C304.059 206.15 304.103 205.888 303.752 204.919C303.532 204.311 303.446 203.571 303.56 203.273C303.785 202.687 306.79 200.299 308.181 199.6C308.654 199.362 309.692 198.643 310.487 198.001C311.762 196.972 311.935 196.664 311.951 195.384C311.961 194.586 312.002 193.16 312.042 192.215C312.081 191.271 311.991 190.239 311.841 189.923C311.465 189.13 312.734 187.921 313.944 187.919C314.503 187.918 315.593 187.387 316.61 186.619C317.963 185.599 318.405 185.015 318.679 183.89C318.955 182.757 319.727 181.747 322.377 179.053C324.22 177.181 325.727 175.376 325.727 175.044C325.727 174.712 326.192 173.912 326.759 173.266C327.327 172.621 327.791 171.773 327.791 171.383C327.791 170.719 327.661 170.69 325.727 170.914C323.269 171.199 323.088 170.849 324.842 169.198C325.642 168.444 326.056 167.713 326.132 166.924C326.237 165.827 326.322 165.756 327.619 165.695C328.376 165.659 329.373 165.581 329.834 165.523C330.485 165.44 330.719 165.608 330.881 166.272C331.136 167.323 333.216 168.799 333.965 168.461C334.259 168.329 335.197 168.151 336.048 168.067C338.129 167.861 339.558 166.843 339.286 165.762C339.112 165.069 339.224 164.937 340.06 164.841C340.933 164.741 341.058 164.567 341.241 163.201C341.353 162.361 341.624 161.613 341.843 161.541C342.534 161.311 342.277 160.279 341.223 159.047C340.15 157.794 339.914 156.711 340.571 156.056C340.867 155.76 340.856 155.274 340.528 154.103C340.149 152.753 340.165 152.429 340.647 151.695C340.953 151.228 341.2 150.491 341.195 150.057C341.182 148.745 341.619 146.904 342.116 146.186C342.782 145.224 342.704 144.699 341.725 143.537C340.753 142.383 340.569 140.404 341.331 139.296C341.587 138.923 341.881 137.966 341.984 137.169C342.088 136.373 342.497 135.308 342.895 134.804C343.292 134.3 343.617 133.402 343.617 132.81C343.617 132.218 344.004 131.166 344.476 130.471C345.184 129.43 345.275 129.05 344.992 128.308C344.338 126.59 344.86 124.398 346.441 122.22C346.794 121.735 346.764 121.445 346.276 120.621C345.445 119.216 345.493 119.036 347.181 117.215C348.871 115.394 349.466 114.407 349.466 113.423C349.466 112.992 350.076 112.359 351.159 111.664C352.091 111.067 353.054 110.337 353.299 110.042C353.896 109.324 354.614 107.213 354.623 106.15C354.627 105.677 354.938 104.827 355.314 104.26C355.69 103.693 355.999 103.126 356 103C356.001 102.874 355.215 102.602 354.253 102.396C353.291 102.19 351.854 101.642 351.061 101.178C349.726 100.396 349.301 100.336 345.328 100.372C341.437 100.407 340.86 100.33 339.145 99.5508C337.96 99.0127 336.828 98.1583 336.118 97.267C334.61 95.3729 333.564 95.4093 331.119 97.4398C330.031 98.3438 328.27 98.4981 326.414 97.8521C325.454 97.5178 325.213 97.5443 324.863 98.0239C324.22 98.9021 323.76 98.7004 323.523 97.4357C323.23 95.8804 322.284 95.1094 320.409 94.8984C318.862 94.7242 318.846 94.7328 318.846 95.756C318.846 98.2012 316.491 98.0507 315.09 95.5155C314.63 94.6823 313.429 93.1438 312.421 92.0966C311.087 90.7096 310.589 89.9276 310.589 89.2181C310.589 88.5371 310.131 87.7586 309.064 86.632C307.666 85.154 307.401 85.0186 305.882 85.0035C304.792 84.9928 303.813 84.7289 303.021 84.2318C302.358 83.8164 301.556 83.4759 301.237 83.4752C300.246 83.4728 298.76 84.1665 297.804 85.077C297.018 85.8263 296.693 85.9167 295.509 85.7167C294.75 85.5889 294.052 85.2821 293.957 85.0358C293.863 84.7891 293.038 84.3338 292.124 84.0239C291.21 83.7144 290.21 83.1282 289.901 82.7218C289.396 82.0563 289.236 82.0257 288.299 82.4136C287.726 82.6503 286.878 82.7943 286.414 82.7338C285.95 82.673 285.292 82.8534 284.953 83.1344C284.613 83.4155 283.856 83.6752 283.271 83.7113C282.685 83.7474 281.835 83.8247 281.382 83.8831C280.678 83.9738 280.478 83.758 280.006 82.4002C279.284 80.3212 278.771 79.7588 277.355 79.4935C276.712 79.373 276.186 79.1489 276.186 78.9954C276.186 78.4209 274.382 76.6024 273.811 76.6024C273.485 76.6024 272.769 76.1341 272.22 75.5613C270.699 73.9768 267.436 72.4795 265.502 72.4795C264.335 72.4795 263.815 72.3255 263.665 71.9359C263.314 71.021 263.431 70.1796 263.972 69.7309C264.758 69.0798 264.597 68.3294 263.41 67.1066L262.332 65.9955L262.894 64.5924C263.203 63.8203 263.456 62.6701 263.456 62.0355C263.456 61.4012 263.689 60.6897 263.972 60.4543C264.67 59.8764 264.622 58.9639 263.859 58.2744C262.897 57.4048 262.458 57.5635 260.67 59.425C259.189 60.9676 259.009 61.3277 258.916 62.9264C258.816 64.6298 258.761 64.7215 257.657 65.0057C257.022 65.1692 255.888 65.709 255.137 66.2051C253.833 67.0671 253.692 67.0881 251.991 66.6785C251.012 66.4425 249.282 66.1412 248.147 66.0089C245.633 65.7162 245.339 65.5444 245.043 64.2C244.857 63.3555 244.956 63.0418 245.532 62.6381C246.486 61.9716 246.443 61.1717 245.371 59.5944L244.488 58.2946L245.543 56.8276C247.046 54.7376 246.837 53.2393 245.041 53.2393C244.278 53.2393 243.182 52.2391 242.501 50.9201C242.041 50.0292 241.124 49.9361 239.758 50.6415C238.933 51.0675 238.613 51.0696 237.453 50.6566C236.712 50.3931 235.598 50.1705 234.979 50.1622C234.074 50.1502 233.785 50.3237 233.511 51.0435C232.954 52.505 232.249 51.4939 232.091 49.0064C231.929 46.4684 230.878 44.6499 229.573 44.6499C228.432 44.6499 227.676 44.3077 227.676 43.791C227.676 42.9894 226.569 42.8825 225.794 43.6095C224.764 44.5764 223.775 44.4805 222.592 43.299C221.575 42.2833 221.155 40.7091 221.128 37.8162C221.119 36.7916 220.764 36.1873 219.087 34.3426C217.243 32.3135 216.993 32.1486 216.351 32.5389C215.962 32.7753 215.345 32.9683 214.978 32.9683C214.16 32.9683 212.195 34.567 212.195 35.2322C212.195 36.5092 208.858 34.8202 207.425 32.8172C206.788 31.9277 205.908 31.0364 205.469 30.8368C204.202 30.2603 203.128 26.5971 204.116 26.2188C204.913 25.913 204.725 25.1548 203.43 23.4609C202.575 22.3426 202.317 21.7369 202.523 21.3342C203.27 19.8799 202.189 19.5754 199.981 20.6185ZM50.0456 105.685C49.5729 106.157 49.8178 106.886 50.4109 106.772C50.7423 106.708 51.013 106.439 51.013 106.174C51.013 105.631 50.4061 105.325 50.0456 105.685ZM76.8035 118.143C76.9641 118.409 77.0697 119.298 77.0388 120.119C77.0078 120.939 77.1382 121.611 77.3291 121.611C77.936 121.611 77.7358 118.651 77.0938 118.131C76.5977 117.729 76.5551 117.731 76.8035 118.143ZM32.521 154.511C31.6829 154.697 31.7699 155.168 32.7622 155.817C33.5786 156.351 35.0153 156.241 35.0153 155.644C35.0153 154.984 33.4977 154.294 32.521 154.511ZM41.959 161.308C42.0632 162.542 42.9618 163.608 43.4703 163.1C43.7844 162.786 42.7743 160.326 42.2614 160.155C41.9793 160.062 41.8843 160.424 41.959 161.308ZM38.3411 166.505C37.3809 167.464 39.5383 170.645 40.9062 170.288C41.305 170.184 41.9025 170.267 42.2342 170.474C42.9715 170.934 43.9602 170.607 43.9602 169.903C43.9602 169.618 43.5347 169.163 43.0141 168.892C42.4936 168.62 41.6132 167.92 41.0576 167.337C40.1177 166.35 38.8767 165.969 38.3411 166.505ZM64.9331 182.955C64.2894 183.73 64.8564 185.142 66.1073 185.879C66.7338 186.248 67.4277 186.948 67.6493 187.434C67.8712 187.92 68.2441 188.255 68.4777 188.178C69.2467 187.926 69.1262 186.66 68.2324 185.599C67.7498 185.026 67.3548 184.328 67.3548 184.048C67.3548 183.027 65.5503 182.213 64.9331 182.955ZM61.5068 194.963C61.275 195.242 61.169 195.689 61.2715 195.956C61.5058 196.565 63.7582 197.33 64.4914 197.049C64.9902 196.858 64.9909 196.785 64.5003 196.245C64.2034 195.918 63.5033 195.382 62.9446 195.054C62.0532 194.529 61.8767 194.518 61.5068 194.963ZM83.6763 216.238C83.0219 216.716 83.025 216.743 83.8376 217.607C84.2935 218.092 85.2224 218.59 85.9019 218.714C86.581 218.838 87.7755 219.394 88.5554 219.949C89.5201 220.635 90.2911 220.922 90.9637 220.845C92.4665 220.674 92.1747 219.882 90.0613 218.398C88.467 217.278 87.9661 217.095 86.8807 217.236C85.6617 217.393 85.6036 217.358 85.7997 216.576C85.9762 215.875 85.8823 215.75 85.176 215.75C84.7184 215.75 84.0437 215.97 83.6763 216.238ZM110.36 268.465C110.36 268.559 110.669 268.802 111.048 269.004C111.426 269.207 111.736 269.295 111.736 269.2C111.736 269.106 111.426 268.863 111.048 268.661C110.669 268.458 110.36 268.37 110.36 268.465ZM275.222 331.947C274.612 332.557 274.72 333.409 275.498 334.112C275.876 334.454 276.186 334.942 276.186 335.196C276.186 335.504 276.672 335.671 277.648 335.698C279.808 335.759 280.083 335.688 280.756 334.899C281.624 333.88 281.318 333.425 279.766 333.425C278.829 333.425 278.047 333.138 277.185 332.48C275.767 331.396 275.773 331.398 275.222 331.947ZM318.645 349.682C318.061 350.189 317.287 350.789 316.925 351.015C316.353 351.372 316.334 351.475 316.782 351.791C317.805 352.513 318.982 352.051 319.662 350.662C320.493 348.963 320.009 348.497 318.645 349.682ZM310.937 351.286C310.372 351.967 310.743 352.837 311.599 352.837C312.475 352.837 313.123 351.725 312.569 351.171C312.029 350.633 311.446 350.674 310.937 351.286Z" fill="url(#paint0_linear_2010_107)"/>
<path d="M204 69L204 2" stroke="#3E3E3E" stroke-width="3" stroke-linecap="round" stroke-linejoin="round" stroke-dasharray="8 8"/>
<path d="M204 78.4175C196.281 78.4175 190 84.5487 190 92.0756C189.949 103.086 203.468 112.215 204 112.584C204 112.584 218.051 103.086 218 92.0841C218 84.5487 211.719 78.4175 204 78.4175ZM204 98.9175C200.132 98.9175 197 95.8596 197 92.0841C197 88.3087 200.132 85.2508 204 85.2508C207.867 85.2508 211 88.3087 211 92.0841C211 95.8596 207.867 98.9175 204 98.9175Z" fill="white"/>
<path fill-rule="evenodd" clip-rule="evenodd" d="M206.111 86.0225C204.834 86.0749 203.639 87.4104 203.911 88.4706C205.062 88.5755 206.229 87.2849 206.111 86.0225ZM208.219 94.3222C207.923 94.9834 207.503 95.5734 206.988 96.1035C206.519 96.5887 205.935 96.7366 205.308 96.4725C204.465 96.1129 203.654 96.1129 202.814 96.4763C202.198 96.7423 201.637 96.5924 201.172 96.1166C200.155 95.0902 199.534 93.867 199.319 92.4528C199.187 91.5781 199.25 90.7315 199.702 89.9448C200.199 89.0869 200.96 88.6055 201.963 88.5512C202.305 88.5343 202.678 88.6092 202.989 88.746C203.618 89.0269 204.207 89.0176 204.838 88.7422C205.57 88.4219 206.344 88.4182 207.072 88.7516C207.103 88.7656 207.134 88.7811 207.164 88.7966L207.164 88.7967C207.183 88.806 207.201 88.8155 207.22 88.8246C207.099 88.9314 207.057 89.1075 207.132 89.2592C207.172 89.3491 207.214 89.439 207.257 89.5271C207.27 89.5514 207.264 89.5645 207.243 89.5832L207.188 89.6366C207.097 89.7257 207.005 89.8152 206.917 89.9073C206.869 89.9597 206.826 90.0122 206.786 90.0684L206.467 89.956C206.271 89.8904 206.054 89.9841 205.975 90.1714C205.921 90.3063 205.871 90.4411 205.823 90.576L205.823 90.5762L205.823 90.5762C205.821 90.5817 205.819 90.5873 205.818 90.591C205.752 90.7839 205.86 90.9937 206.062 91.0574C206.091 91.068 206.121 91.0788 206.15 91.0895C206.214 91.1129 206.277 91.1361 206.34 91.1567C206.369 91.166 206.369 91.1754 206.369 91.2016C206.346 91.4114 206.354 91.6212 206.392 91.8272C206.396 91.8535 206.392 91.8666 206.365 91.8797C206.3 91.906 206.237 91.9351 206.172 91.9643L206.172 91.9644C206.145 91.9767 206.118 91.9892 206.09 92.0014C205.894 92.0895 205.808 92.3124 205.894 92.5034L206.071 92.8874C206.073 92.8949 206.075 92.9005 206.079 92.9061C206.169 93.0897 206.398 93.1684 206.588 93.0785L206.863 92.9567C206.876 92.9436 206.899 92.9436 206.915 92.9567C206.93 92.9734 206.946 92.9902 206.961 93.007C207.006 93.056 207.05 93.1045 207.099 93.1478C207.166 93.2083 207.236 93.2654 207.308 93.3237L207.308 93.3238C207.342 93.3521 207.377 93.3806 207.412 93.41C207.378 93.5055 207.335 93.6086 207.293 93.706C207.218 93.8989 207.316 94.1143 207.516 94.1855C207.652 94.2379 207.789 94.2866 207.927 94.3353C207.928 94.3365 207.93 94.3369 207.931 94.3375L207.935 94.3391C208.033 94.3672 208.133 94.3597 208.219 94.3222ZM208.654 92.908C208.711 92.5802 208.742 92.2243 208.742 91.8534C208.742 91.1398 208.625 90.4842 208.435 89.9822C207.77 90.1433 207.276 90.7296 207.278 91.4282C207.278 92.2037 207.881 92.8368 208.654 92.908Z" fill="white"/>
<defs>
<linearGradient id="paint0_linear_2010_107" x1="224.141" y1="336.262" x2="281.948" y2="38.9541" gradientUnits="userSpaceOnUse">
<stop stop-color="#E65411"/>
<stop offset="1" stop-color="#FF7C40"/>
</linearGradient>
</defs>
</svg>
